<svg width="584" height="186" viewBox="0 0 584 186" fill="none" xmlns="http://www.w3.org/2000/svg">
<path d="M87.375 109V56.6363H101.591V97.5454H122.761V109H87.375Z" fill="#FF6B00"/>
<path d="M147.531 109.716C143.337 109.716 139.724 108.915 136.69 107.312C133.673 105.693 131.346 103.375 129.709 100.358C128.09 97.3238 127.281 93.6932 127.281 89.4659C127.281 85.4091 128.099 81.8636 129.735 78.8295C131.371 75.7954 133.681 73.4346 136.664 71.7471C139.647 70.0596 143.167 69.2159 147.224 69.2159C150.19 69.2159 152.874 69.6761 155.278 70.5966C157.681 71.517 159.735 72.8551 161.44 74.6108C163.144 76.3494 164.457 78.463 165.377 80.9517C166.298 83.4403 166.758 86.2443 166.758 89.3636V92.6363H131.678V84.8636H153.769C153.752 83.7386 153.462 82.75 152.9 81.8977C152.354 81.0284 151.613 80.3551 150.675 79.8778C149.755 79.3835 148.707 79.1363 147.531 79.1363C146.388 79.1363 145.34 79.3835 144.386 79.8778C143.431 80.3551 142.664 81.0199 142.084 81.8721C141.522 82.7244 141.224 83.7216 141.19 84.8636V93.25C141.19 94.5113 141.454 95.6363 141.982 96.625C142.511 97.6136 143.269 98.3892 144.258 98.9517C145.246 99.5142 146.44 99.7954 147.837 99.7954C148.809 99.7954 149.695 99.6591 150.496 99.3863C151.315 99.1136 152.013 98.7216 152.593 98.2102C153.173 97.6818 153.599 97.0511 153.871 96.3182H166.758C166.315 99.0454 165.266 101.415 163.613 103.426C161.959 105.42 159.769 106.972 157.042 108.08C154.332 109.17 151.161 109.716 147.531 109.716Z" fill="#FF6B00"/>
<path d="M183.46 109.614C180.955 109.614 178.739 109.205 176.812 108.386C174.903 107.551 173.403 106.29 172.312 104.602C171.222 102.915 170.676 100.767 170.676 98.1591C170.676 96.0113 171.043 94.1789 171.776 92.6619C172.508 91.1278 173.531 89.875 174.844 88.9034C176.156 87.9318 177.682 87.1903 179.42 86.6789C181.176 86.1676 183.068 85.8352 185.097 85.6818C187.295 85.5113 189.06 85.3068 190.389 85.0682C191.736 84.8125 192.707 84.463 193.304 84.0199C193.901 83.5596 194.199 82.9545 194.199 82.2045V82.1022C194.199 81.0795 193.807 80.2954 193.023 79.75C192.239 79.2045 191.233 78.9318 190.006 78.9318C188.659 78.9318 187.56 79.2301 186.707 79.8267C185.872 80.4062 185.369 81.3011 185.199 82.5113H172.21C172.381 80.125 173.139 77.9261 174.486 75.9147C175.849 73.8863 177.835 72.267 180.443 71.0568C183.051 69.8295 186.307 69.2159 190.21 69.2159C193.023 69.2159 195.545 69.5483 197.778 70.213C200.011 70.8608 201.912 71.7727 203.48 72.9488C205.048 74.1079 206.241 75.4716 207.06 77.0397C207.895 78.5909 208.312 80.2784 208.312 82.1022V109H195.119V103.477H194.812C194.028 104.943 193.074 106.128 191.949 107.031C190.841 107.935 189.571 108.591 188.139 109C186.724 109.409 185.165 109.614 183.46 109.614ZM188.062 100.716C189.136 100.716 190.142 100.494 191.08 100.051C192.034 99.6079 192.81 98.9687 193.406 98.1335C194.003 97.2983 194.301 96.2841 194.301 95.0909V91.8182C193.926 91.9716 193.526 92.1164 193.099 92.2528C192.69 92.3892 192.247 92.517 191.77 92.6363C191.31 92.7556 190.815 92.8664 190.287 92.9687C189.776 93.071 189.239 93.1647 188.676 93.25C187.585 93.4204 186.69 93.7017 185.991 94.0937C185.31 94.4687 184.798 94.9375 184.457 95.5C184.133 96.0454 183.972 96.6591 183.972 97.3409C183.972 98.4318 184.355 99.267 185.122 99.8466C185.889 100.426 186.869 100.716 188.062 100.716Z" fill="#FF6B00"/>
<path d="M229.272 109.511C226.477 109.511 223.903 108.778 221.55 107.312C219.215 105.847 217.34 103.622 215.925 100.639C214.528 97.6562 213.829 93.8977 213.829 89.3636C213.829 84.625 214.562 80.7727 216.028 77.8068C217.511 74.8409 219.42 72.6676 221.755 71.2869C224.107 69.9062 226.579 69.2159 229.17 69.2159C231.113 69.2159 232.817 69.5568 234.283 70.2386C235.749 70.9034 236.977 71.7983 237.965 72.9233C238.954 74.0312 239.704 75.25 240.215 76.5795H240.42V56.6363H254.533V109H240.522V102.557H240.215C239.67 103.886 238.886 105.08 237.863 106.136C236.857 107.176 235.63 108.003 234.181 108.616C232.749 109.213 231.113 109.511 229.272 109.511ZM234.488 98.6704C235.783 98.6704 236.891 98.2954 237.812 97.5454C238.749 96.7784 239.465 95.7045 239.959 94.3238C240.471 92.9261 240.727 91.2727 240.727 89.3636C240.727 87.4204 240.471 85.7585 239.959 84.3778C239.465 82.9801 238.749 81.9147 237.812 81.1818C236.891 80.4318 235.783 80.0568 234.488 80.0568C233.192 80.0568 232.084 80.4318 231.164 81.1818C230.261 81.9147 229.562 82.9801 229.067 84.3778C228.59 85.7585 228.352 87.4204 228.352 89.3636C228.352 91.3068 228.59 92.9772 229.067 94.375C229.562 95.7557 230.261 96.821 231.164 97.571C232.084 98.3039 233.192 98.6704 234.488 98.6704Z" fill="#FF6B00"/>
<path d="M303.829 73C303.692 71.2954 303.053 69.9659 301.911 69.0113C300.786 68.0568 299.073 67.5795 296.772 67.5795C295.306 67.5795 294.104 67.7585 293.167 68.1164C292.246 68.4574 291.565 68.9261 291.121 69.5227C290.678 70.1193 290.448 70.8011 290.431 71.5682C290.397 72.1988 290.508 72.7699 290.763 73.2812C291.036 73.7755 291.462 74.2272 292.042 74.6363C292.621 75.0284 293.363 75.3863 294.266 75.7102C295.17 76.0341 296.244 76.3238 297.488 76.5795L301.783 77.5C304.681 78.1136 307.161 78.9233 309.224 79.9289C311.286 80.9346 312.974 82.1193 314.286 83.4829C315.599 84.8295 316.562 86.3466 317.175 88.0341C317.806 89.7216 318.13 91.5625 318.147 93.5568C318.13 97 317.269 99.9147 315.565 102.301C313.86 104.687 311.423 106.503 308.252 107.747C305.099 108.991 301.306 109.614 296.874 109.614C292.323 109.614 288.352 108.94 284.96 107.594C281.585 106.247 278.96 104.176 277.085 101.381C275.227 98.5682 274.289 94.9716 274.272 90.5909H287.772C287.857 92.1932 288.258 93.5397 288.974 94.6307C289.69 95.7216 290.695 96.5483 291.991 97.1108C293.303 97.6733 294.863 97.9545 296.67 97.9545C298.187 97.9545 299.457 97.767 300.479 97.392C301.502 97.017 302.278 96.4971 302.806 95.8324C303.334 95.1676 303.607 94.4091 303.624 93.5568C303.607 92.7556 303.343 92.0568 302.832 91.4602C302.337 90.8466 301.519 90.3011 300.377 89.8238C299.235 89.3295 297.692 88.8693 295.749 88.4432L290.533 87.3182C285.897 86.3125 282.241 84.6335 279.565 82.2812C276.906 79.9119 275.584 76.6818 275.602 72.5909C275.584 69.267 276.471 66.3608 278.261 63.8721C280.067 61.3664 282.565 59.4147 285.752 58.017C288.957 56.6193 292.63 55.9204 296.772 55.9204C300.999 55.9204 304.656 56.6278 307.741 58.0426C310.826 59.4574 313.204 61.4517 314.874 64.0255C316.562 66.5824 317.414 69.5738 317.431 73H303.829Z" fill="#FF8B38"/>
<path d="M347.18 69.7272V79.9545H321.305V69.7272H347.18ZM326.316 60.3181H340.43V96.3693C340.43 96.9147 340.523 97.375 340.711 97.75C340.898 98.1079 341.188 98.3807 341.58 98.5682C341.972 98.7386 342.475 98.8238 343.089 98.8238C343.515 98.8238 344.009 98.7727 344.572 98.6704C345.151 98.5682 345.577 98.4829 345.85 98.4147L347.896 108.335C347.265 108.523 346.361 108.753 345.185 109.026C344.026 109.298 342.646 109.477 341.043 109.562C337.805 109.733 335.086 109.401 332.887 108.565C330.688 107.713 329.035 106.375 327.927 104.551C326.819 102.727 326.282 100.443 326.316 97.6988V60.3181Z" fill="#FF8B38"/>
<path d="M352.939 109V69.7272H366.643V77.1932H367.053C367.768 74.4318 368.902 72.4119 370.453 71.1335C372.021 69.8551 373.854 69.2159 375.95 69.2159C376.564 69.2159 377.169 69.267 377.766 69.3693C378.379 69.4545 378.967 69.5824 379.53 69.7528V81.7954C378.831 81.5568 377.97 81.3778 376.947 81.2585C375.925 81.1392 375.047 81.0795 374.314 81.0795C372.933 81.0795 371.689 81.3949 370.581 82.0255C369.49 82.6392 368.629 83.5085 367.999 84.6335C367.368 85.7414 367.053 87.0454 367.053 88.5454V109H352.939Z" fill="#FF8B38"/>
<path d="M393.273 109.614C390.767 109.614 388.551 109.205 386.625 108.386C384.716 107.551 383.216 106.29 382.125 104.602C381.034 102.915 380.489 100.767 380.489 98.1591C380.489 96.0113 380.855 94.1789 381.588 92.6619C382.321 91.1278 383.344 89.875 384.656 88.9034C385.969 87.9318 387.494 87.1903 389.233 86.6789C390.989 86.1676 392.881 85.8352 394.909 85.6818C397.108 85.5113 398.872 85.3068 400.202 85.0682C401.548 84.8125 402.52 84.463 403.116 84.0199C403.713 83.5596 404.011 82.9545 404.011 82.2045V82.1022C404.011 81.0795 403.619 80.2954 402.835 79.75C402.051 79.2045 401.045 78.9318 399.818 78.9318C398.472 78.9318 397.372 79.2301 396.52 79.8267C395.685 80.4062 395.182 81.3011 395.011 82.5113H382.023C382.193 80.125 382.952 77.9261 384.298 75.9147C385.662 73.8863 387.648 72.267 390.256 71.0568C392.864 69.8295 396.119 69.2159 400.023 69.2159C402.835 69.2159 405.358 69.5483 407.591 70.213C409.824 70.8608 411.724 71.7727 413.293 72.9488C414.861 74.1079 416.054 75.4716 416.872 77.0397C417.707 78.5909 418.125 80.2784 418.125 82.1022V109H404.932V103.477H404.625C403.841 104.943 402.886 106.128 401.761 107.031C400.653 107.935 399.384 108.591 397.952 109C396.537 109.409 394.977 109.614 393.273 109.614ZM397.875 100.716C398.949 100.716 399.955 100.494 400.892 100.051C401.847 99.6079 402.622 98.9687 403.219 98.1335C403.815 97.2983 404.114 96.2841 404.114 95.0909V91.8182C403.739 91.9716 403.338 92.1164 402.912 92.2528C402.503 92.3892 402.06 92.517 401.582 92.6363C401.122 92.7556 400.628 92.8664 400.099 92.9687C399.588 93.071 399.051 93.1647 398.489 93.25C397.398 93.4204 396.503 93.7017 395.804 94.0937C395.122 94.4687 394.611 94.9375 394.27 95.5C393.946 96.0454 393.784 96.6591 393.784 97.3409C393.784 98.4318 394.168 99.267 394.935 99.8466C395.702 100.426 396.682 100.716 397.875 100.716Z" fill="#FF8B38"/>
<path d="M448.289 69.7272V79.9545H422.414V69.7272H448.289ZM427.425 60.3181H441.539V96.3693C441.539 96.9147 441.633 97.375 441.82 97.75C442.008 98.1079 442.298 98.3807 442.69 98.5682C443.082 98.7386 443.584 98.8238 444.198 98.8238C444.624 98.8238 445.119 98.7727 445.681 98.6704C446.261 98.5682 446.687 98.4829 446.96 98.4147L449.005 108.335C448.374 108.523 447.471 108.753 446.295 109.026C445.136 109.298 443.755 109.477 442.153 109.562C438.914 109.733 436.195 109.401 433.996 108.565C431.798 107.713 430.144 106.375 429.036 104.551C427.928 102.727 427.391 100.443 427.425 97.6988V60.3181Z" fill="#FF8B38"/>
<path d="M472.445 109.716C468.251 109.716 464.638 108.915 461.604 107.312C458.587 105.693 456.26 103.375 454.624 100.358C453.004 97.3238 452.195 93.6932 452.195 89.4659C452.195 85.4091 453.013 81.8636 454.649 78.8295C456.285 75.7954 458.595 73.4346 461.578 71.7471C464.561 70.0596 468.081 69.2159 472.138 69.2159C475.104 69.2159 477.788 69.6761 480.192 70.5966C482.595 71.517 484.649 72.8551 486.354 74.6108C488.058 76.3494 489.371 78.463 490.291 80.9517C491.212 83.4403 491.672 86.2443 491.672 89.3636V92.6363H456.592V84.8636H478.683C478.666 83.7386 478.376 82.75 477.814 81.8977C477.268 81.0284 476.527 80.3551 475.589 79.8778C474.669 79.3835 473.621 79.1363 472.445 79.1363C471.303 79.1363 470.254 79.3835 469.3 79.8778C468.345 80.3551 467.578 81.0199 466.999 81.8721C466.436 82.7244 466.138 83.7216 466.104 84.8636V93.25C466.104 94.5113 466.368 95.6363 466.896 96.625C467.425 97.6136 468.183 98.3892 469.172 98.9517C470.16 99.5142 471.354 99.7954 472.751 99.7954C473.723 99.7954 474.609 99.6591 475.41 99.3863C476.229 99.1136 476.928 98.7216 477.507 98.2102C478.087 97.6818 478.513 97.0511 478.785 96.3182H491.672C491.229 99.0454 490.18 101.415 488.527 103.426C486.874 105.42 484.683 106.972 481.956 108.08C479.246 109.17 476.075 109.716 472.445 109.716Z" fill="#FF8B38"/>
<path d="M516.352 124.545C512.414 124.545 509.039 123.983 506.227 122.858C503.431 121.75 501.258 120.216 499.707 118.256C498.173 116.312 497.312 114.08 497.124 111.557H510.727C510.863 112.392 511.204 113.065 511.749 113.577C512.295 114.088 512.994 114.455 513.846 114.676C514.715 114.915 515.687 115.034 516.761 115.034C518.584 115.034 520.093 114.591 521.286 113.705C522.496 112.818 523.102 111.216 523.102 108.898V102.25H522.692C522.181 103.58 521.397 104.713 520.34 105.651C519.283 106.571 518.013 107.278 516.531 107.773C515.048 108.25 513.42 108.489 511.647 108.489C508.852 108.489 506.278 107.841 503.925 106.545C501.59 105.25 499.715 103.196 498.3 100.383C496.903 97.571 496.204 93.8977 496.204 89.3636C496.204 84.625 496.937 80.7727 498.403 77.8068C499.886 74.8409 501.795 72.6676 504.13 71.2869C506.482 69.9062 508.954 69.2159 511.545 69.2159C513.488 69.2159 515.192 69.5568 516.658 70.2386C518.124 70.9034 519.352 71.7983 520.34 72.9233C521.329 74.0312 522.079 75.25 522.59 76.5795H522.897V69.7272H537.011V108.898C537.011 112.222 536.15 115.043 534.428 117.361C532.724 119.696 530.32 121.477 527.218 122.705C524.116 123.932 520.494 124.545 516.352 124.545ZM516.863 98.4659C518.158 98.4659 519.266 98.1079 520.187 97.392C521.124 96.6591 521.84 95.6193 522.334 94.2727C522.846 92.9091 523.102 91.2727 523.102 89.3636C523.102 87.4204 522.846 85.7585 522.334 84.3778C521.84 82.9801 521.124 81.9147 520.187 81.1818C519.266 80.4318 518.158 80.0568 516.863 80.0568C515.567 80.0568 514.46 80.4318 513.539 81.1818C512.636 81.9147 511.937 82.9801 511.442 84.3778C510.965 85.7585 510.727 87.4204 510.727 89.3636C510.727 91.3068 510.965 92.9602 511.442 94.3238C511.937 95.6704 512.636 96.7017 513.539 97.4176C514.46 98.1164 515.567 98.4659 516.863 98.4659Z" fill="#FF8B38"/>
<path d="M552.78 123.727C551.16 123.727 549.618 123.599 548.152 123.344C546.686 123.105 545.399 122.773 544.291 122.347L547.359 112.324C548.518 112.733 549.575 112.997 550.53 113.116C551.501 113.236 552.328 113.168 553.01 112.912C553.709 112.656 554.212 112.17 554.518 111.455L554.825 110.739L541.018 69.7272H555.746L562.087 96.9318H562.496L568.939 69.7272H583.768L569.45 112.273C568.734 114.437 567.695 116.381 566.331 118.102C564.984 119.841 563.212 121.213 561.013 122.219C558.814 123.224 556.07 123.727 552.78 123.727Z" fill="#FF8B38"/>
<path d="M117.195 147.311C116.663 146.036 117.265 144.572 118.539 144.04C119.813 143.508 121.277 144.11 121.809 145.384C122.341 146.658 121.74 148.122 120.466 148.654C119.191 149.186 117.727 148.585 117.195 147.311Z" fill="#FF8B38"/>
<path d="M99.08 150.234C98.4416 148.705 99.1636 146.949 100.693 146.31C102.221 145.672 103.978 146.394 104.617 147.923C105.255 149.452 104.533 151.209 103.004 151.847C101.475 152.485 99.7183 151.763 99.08 150.234Z" fill="#FF8B38"/>
<path d="M81.9645 148.158C81.2198 146.375 82.0621 144.325 83.8459 143.58C85.6296 142.835 87.6794 143.678 88.4241 145.461C89.1689 147.245 88.3266 149.295 86.5428 150.04C84.759 150.784 82.7093 149.942 81.9645 148.158Z" fill="#FF8B38"/>
<path d="M65.8491 141.082C64.998 139.044 65.9606 136.701 67.9992 135.85C70.0378 134.999 72.3804 135.961 73.2315 138C74.0826 140.039 73.12 142.381 71.0814 143.232C69.0428 144.083 66.7002 143.121 65.8491 141.082Z" fill="#FF8B38"/>
<path d="M51.7336 130.006C50.7761 127.713 51.8591 125.077 54.1525 124.12C56.4459 123.162 59.0814 124.245 60.0389 126.539C60.9964 128.832 59.9134 131.467 57.62 132.425C55.3266 133.382 52.6912 132.299 51.7336 130.006Z" fill="#FF8B38"/>
<path d="M40.6182 116.93C39.5543 114.382 40.7576 111.453 43.3058 110.39C45.8541 109.326 48.7823 110.529 49.8462 113.077C50.9101 115.625 49.7068 118.554 47.1586 119.618C44.6103 120.681 41.6821 119.478 40.6182 116.93Z" fill="#FF8B38"/>
<path d="M34.0779 101.316C33.014 98.7676 34.2173 95.8394 36.7656 94.7755C39.3138 93.7116 42.242 94.9149 43.3059 97.4632C44.3699 100.011 43.1665 102.94 40.6183 104.004C38.0701 105.067 35.1418 103.864 34.0779 101.316Z" fill="#FF8B38"/>
<path d="M31.6182 83.9299C30.5543 81.3817 31.7576 78.4534 34.3058 77.3895C36.8541 76.3256 39.7823 77.5289 40.8462 80.0772C41.9101 82.6254 40.7068 85.5536 38.1586 86.6175C35.6103 87.6815 32.6821 86.4781 31.6182 83.9299Z" fill="#FF8B38"/>
<path d="M32.6182 65.9299C31.5543 63.3817 32.7576 60.4534 35.3058 59.3895C37.8541 58.3256 40.7823 59.5289 41.8462 62.0772C42.9101 64.6254 41.7068 67.5536 39.1586 68.6175C36.6103 69.6815 33.6821 68.4781 32.6182 65.9299Z" fill="#FF8B38"/>
<path d="M38.7336 49.006C37.7761 46.7126 38.8591 44.0772 41.1525 43.1197C43.4459 42.1622 46.0814 43.2451 47.0389 45.5386C47.9964 47.832 46.9134 50.4674 44.62 51.4249C42.3266 52.3824 39.6912 51.2995 38.7336 49.006Z" fill="#FF8B38"/>
<path d="M48.8491 33.0822C47.998 31.0436 48.9606 28.701 50.9992 27.8499C53.0378 26.9987 55.3804 27.9614 56.2315 30C57.0826 32.0386 56.12 34.3811 54.0814 35.2323C52.0428 36.0834 49.7002 35.1208 48.8491 33.0822Z" fill="#FF8B38"/>
<path d="M61.9645 20.1583C61.2198 18.3745 62.0621 16.3248 63.8459 15.58C65.6296 14.8353 67.6794 15.6776 68.4241 17.4614C69.1689 19.2451 68.3266 21.2949 66.5428 22.0396C64.759 22.7844 62.7093 21.9421 61.9645 20.1583Z" fill="#FF8B38"/>
<path d="M77.08 10.2344C76.4416 8.70547 77.1636 6.94853 78.6926 6.31019C80.2215 5.67184 81.9784 6.39382 82.6168 7.92277C83.2551 9.45172 82.5331 11.2087 81.0042 11.847C79.4752 12.4853 77.7183 11.7634 77.08 10.2344Z" fill="#FF8B38"/>
<path d="M95.3108 3.38667C94.8853 2.36737 95.3666 1.19608 96.3859 0.770517C97.4052 0.344955 98.5765 0.826275 99.002 1.84557C99.4276 2.86487 98.9463 4.03616 97.927 4.46173C96.9077 4.88729 95.7364 4.40597 95.3108 3.38667Z" fill="#FF8B38"/>
<path d="M134.311 12.3866C133.885 11.3673 134.367 10.196 135.386 9.77047C136.405 9.34491 137.577 9.82623 138.002 10.8455C138.428 11.8648 137.946 13.0361 136.927 13.4617C135.908 13.8872 134.736 13.4059 134.311 12.3866Z" fill="#FF9E58"/>
<path d="M118.731 11.9282C118.199 10.654 118.801 9.18993 120.075 8.65798C121.349 8.12603 122.813 8.72768 123.345 10.0018C123.877 11.2759 123.275 12.74 122.001 13.272C120.727 13.8039 119.263 13.2023 118.731 11.9282Z" fill="#FF9E58"/>
<path d="M101.08 13.2344C100.442 11.7054 101.164 9.94848 102.693 9.31014C104.222 8.67179 105.978 9.39377 106.617 10.9227C107.255 12.4517 106.533 14.2086 105.004 14.847C103.475 15.4853 101.718 14.7633 101.08 13.2344Z" fill="#FF9E58"/>
<path d="M86.1162 19.6215C85.3714 17.8377 86.2137 15.788 87.9975 15.0432C89.7813 14.2985 91.831 15.1408 92.5758 16.9246C93.3205 18.7084 92.4782 20.7581 90.6944 21.5028C88.9107 22.2476 86.8609 21.4053 86.1162 19.6215Z" fill="#FF9E58"/>
<path d="M71.8491 29.0821C70.998 27.0435 71.9606 24.7009 73.9992 23.8498C76.0378 22.9987 78.3804 23.9613 79.2315 25.9999C80.0827 28.0385 79.12 30.3811 77.0814 31.2322C75.0428 32.0833 72.7002 31.1207 71.8491 29.0821Z" fill="#FF9E58"/>
<path d="M59.8491 41.0821C58.998 39.0435 59.9606 36.7009 61.9992 35.8498C64.0378 34.9987 66.3804 35.9613 67.2315 37.9999C68.0827 40.0385 67.12 42.3811 65.0814 43.2322C63.0428 44.0833 60.7002 43.1207 59.8491 41.0821Z" fill="#FF9E58"/>
<path d="M51.8491 55.0821C50.998 53.0435 51.9606 50.7009 53.9992 49.8498C56.0378 48.9987 58.3804 49.9613 59.2315 51.9999C60.0827 54.0385 59.12 56.3811 57.0814 57.2322C55.0428 58.0833 52.7002 57.1207 51.8491 55.0821Z" fill="#FF9E58"/>
<path d="M46.7337 70.006C45.7762 67.7126 46.8591 65.0772 49.1526 64.1196C51.446 63.1621 54.0814 64.2451 55.0389 66.5385C55.9964 68.8319 54.9134 71.4673 52.62 72.4249C50.3266 73.3824 47.6912 72.2994 46.7337 70.006Z" fill="#FF9E58"/>
<path d="M46.8491 86.0821C45.998 84.0435 46.9606 81.7009 48.9992 80.8498C51.0378 79.9987 53.3804 80.9613 54.2315 82.9999C55.0827 85.0385 54.12 87.3811 52.0814 88.2322C50.0428 89.0833 47.7002 88.1207 46.8491 86.0821Z" fill="#FF9E58"/>
<path d="M50.8491 101.082C49.998 99.0435 50.9606 96.7009 52.9992 95.8498C55.0378 94.9987 57.3804 95.9613 58.2315 97.9999C59.0827 100.039 58.12 102.381 56.0814 103.232C54.0428 104.083 51.7002 103.121 50.8491 101.082Z" fill="#FF9E58"/>
<path d="M57.9646 115.158C57.2198 113.374 58.0621 111.325 59.8459 110.58C61.6297 109.835 63.6794 110.678 64.4242 112.461C65.1689 114.245 64.3266 116.295 62.5428 117.04C60.759 117.784 58.7093 116.942 57.9646 115.158Z" fill="#FF9E58"/>
<path d="M69.08 126.234C68.4417 124.705 69.1636 122.948 70.6926 122.31C72.2215 121.672 73.9785 122.394 74.6168 123.923C75.2551 125.452 74.5332 127.209 73.0042 127.847C71.4753 128.485 69.7183 127.763 69.08 126.234Z" fill="#FF9E58"/>
<path d="M82.1954 135.311C81.6635 134.036 82.2651 132.572 83.5393 132.04C84.8134 131.508 86.2775 132.11 86.8094 133.384C87.3414 134.658 86.7397 136.122 85.4656 136.654C84.1915 137.186 82.7274 136.585 82.1954 135.311Z" fill="#FF9E58"/>
<path d="M98.3109 140.387C97.8853 139.367 98.3666 138.196 99.3859 137.77C100.405 137.345 101.577 137.826 102.002 138.846C102.428 139.865 101.946 141.036 100.927 141.462C99.9077 141.887 98.7364 141.406 98.3109 140.387Z" fill="#FF9E58"/>
<path d="M53.1954 12.3105C52.6634 11.0364 53.2651 9.57225 54.5392 9.0403C55.8133 8.50835 57.2775 9.11 57.8094 10.3841C58.3414 11.6582 57.7397 13.1224 56.4656 13.6543C55.1915 14.1863 53.7274 13.5846 53.1954 12.3105Z" fill="#FF8025"/>
<path d="M38.08 26.2344C37.4416 24.7054 38.1636 22.9485 39.6925 22.3101C41.2215 21.6718 42.9784 22.3938 43.6168 23.9227C44.2551 25.4517 43.5331 27.2086 42.0042 27.847C40.4752 28.4853 38.7183 27.7633 38.08 26.2344Z" fill="#FF8025"/>
<path d="M25.8491 43.0821C24.998 41.0435 25.9606 38.7009 27.9992 37.8498C30.0378 36.9987 32.3804 37.9613 33.2315 39.9999C34.0826 42.0385 33.12 44.3811 31.0814 45.2322C29.0428 46.0833 26.7002 45.1207 25.8491 43.0821Z" fill="#FF8025"/>
<path d="M18.6182 62.9299C17.5543 60.3816 18.7576 57.4534 21.3058 56.3895C23.8541 55.3256 26.7823 56.5289 27.8462 59.0771C28.9101 61.6254 27.7068 64.5536 25.1586 65.6175C22.6103 66.6814 19.6821 65.4781 18.6182 62.9299Z" fill="#FF8025"/>
<path d="M16.6182 82.9299C15.5543 80.3816 16.7576 77.4534 19.3058 76.3895C21.8541 75.3256 24.7823 76.5289 25.8462 79.0771C26.9101 81.6254 25.7068 84.5536 23.1586 85.6175C20.6103 86.6814 17.6821 85.4781 16.6182 82.9299Z" fill="#FF8025"/>
<path d="M18.6182 102.93C17.5543 100.382 18.7576 97.4534 21.3058 96.3895C23.8541 95.3256 26.7823 96.5289 27.8462 99.0771C28.9101 101.625 27.7068 104.554 25.1586 105.618C22.6103 106.681 19.6821 105.478 18.6182 102.93Z" fill="#FF8025"/>
<path d="M24.5028 121.854C23.3325 119.051 24.6561 115.83 27.4592 114.659C30.2622 113.489 33.4833 114.813 34.6536 117.616C35.8239 120.419 34.5003 123.64 31.6972 124.81C28.8941 125.98 25.6731 124.657 24.5028 121.854Z" fill="#FF8025"/>
<path d="M35.5028 137.854C34.3325 135.051 35.6561 131.83 38.4592 130.659C41.2622 129.489 44.4833 130.813 45.6536 133.616C46.8239 136.419 45.5003 139.64 42.6972 140.81C39.8941 141.98 36.6731 140.657 35.5028 137.854Z" fill="#FF8025"/>
<path d="M50.6182 150.93C49.5543 148.382 50.7576 145.453 53.3058 144.389C55.8541 143.326 58.7823 144.529 59.8462 147.077C60.9101 149.625 59.7068 152.554 57.1586 153.618C54.6103 154.681 51.6821 153.478 50.6182 150.93Z" fill="#FF8025"/>
<path d="M67.6182 159.93C66.5543 157.382 67.7576 154.453 70.3058 153.389C72.8541 152.326 75.7823 153.529 76.8462 156.077C77.9101 158.625 76.7068 161.554 74.1586 162.618C71.6103 163.681 68.6821 162.478 67.6182 159.93Z" fill="#FF8025"/>
<path d="M86.7336 164.006C85.7761 161.713 86.8591 159.077 89.1525 158.12C91.4459 157.162 94.0814 158.245 95.0389 160.539C95.9964 162.832 94.9134 165.467 92.62 166.425C90.3266 167.382 87.6912 166.299 86.7336 164.006Z" fill="#FF8025"/>
<path d="M106.849 164.082C105.998 162.044 106.961 159.701 108.999 158.85C111.038 157.999 113.38 158.961 114.231 161C115.083 163.039 114.12 165.381 112.081 166.232C110.043 167.083 107.7 166.121 106.849 164.082Z" fill="#FF8025"/>
<path d="M126.08 158.234C125.442 156.705 126.164 154.948 127.693 154.31C129.221 153.672 130.978 154.394 131.617 155.923C132.255 157.452 131.533 159.209 130.004 159.847C128.475 160.485 126.718 159.763 126.08 158.234Z" fill="#FF8025"/>
<path d="M144.311 147.387C143.885 146.367 144.367 145.196 145.386 144.77C146.405 144.345 147.576 144.826 148.002 145.846C148.428 146.865 147.946 148.036 146.927 148.462C145.908 148.887 144.736 148.406 144.311 147.387Z" fill="#FF8025"/>
<path d="M13.3109 41.3866C12.8853 40.3673 13.3666 39.196 14.3859 38.7705C15.4052 38.3449 16.5765 38.8262 17.0021 39.8455C17.4277 40.8648 16.9463 42.0361 15.927 42.4617C14.9077 42.8872 13.7365 42.4059 13.3109 41.3866Z" fill="#FF6B00"/>
<path d="M5.08001 62.2344C4.44167 60.7054 5.16365 58.9485 6.6926 58.3101C8.22155 57.6718 9.97848 58.3938 10.6168 59.9227C11.2552 61.4517 10.5332 63.2086 9.00424 63.847C7.47529 64.4853 5.71835 63.7633 5.08001 62.2344Z" fill="#FF6B00"/>
<path d="M0.733694 84.006C-0.22382 81.7126 0.859149 79.0772 3.15257 78.1196C5.446 77.1621 8.0814 78.2451 9.03891 80.5385C9.99643 82.8319 8.91346 85.4674 6.62004 86.4249C4.32661 87.3824 1.69121 86.2994 0.733694 84.006Z" fill="#FF6B00"/>
<path d="M2.61825 106.93C1.55435 104.382 2.75765 101.453 5.3059 100.389C7.85415 99.3256 10.7824 100.529 11.8463 103.077C12.9102 105.625 11.7069 108.554 9.15864 109.618C6.61039 110.681 3.68216 109.478 2.61825 106.93Z" fill="#FF6B00"/>
<path d="M9.38738 128.778C8.11069 125.72 9.55465 122.206 12.6125 120.929C15.6704 119.652 19.1843 121.096 20.461 124.154C21.7377 127.212 20.2937 130.726 17.2358 132.003C14.1779 133.279 10.6641 131.836 9.38738 128.778Z" fill="#FF6B00"/>
<path d="M168.311 134.387C167.885 133.367 168.367 132.196 169.386 131.77C170.405 131.345 171.577 131.826 172.002 132.846C172.428 133.865 171.946 135.036 170.927 135.462C169.908 135.887 168.736 135.406 168.311 134.387Z" fill="#FF6B00"/>
<path d="M20.3874 147.778C19.1107 144.72 20.5547 141.206 23.6125 139.929C26.6704 138.652 30.1843 140.096 31.461 143.154C32.7377 146.212 31.2937 149.726 28.2358 151.003C25.1779 152.279 21.6641 150.836 20.3874 147.778Z" fill="#FF6B00"/>
<path d="M156.08 153.234C155.442 151.705 156.164 149.948 157.693 149.31C159.222 148.672 160.978 149.394 161.617 150.923C162.255 152.452 161.533 154.209 160.004 154.847C158.475 155.485 156.718 154.763 156.08 153.234Z" fill="#FF6B00"/>
<path d="M36.3874 162.778C35.1107 159.72 36.5547 156.206 39.6125 154.929C42.6704 153.652 46.1843 155.096 47.461 158.154C48.7377 161.212 47.2937 164.726 44.2358 166.003C41.1779 167.279 37.6641 165.836 36.3874 162.778Z" fill="#FF6B00"/>
<path d="M138.849 168.082C137.998 166.044 138.961 163.701 140.999 162.85C143.038 161.999 145.38 162.961 146.232 165C147.083 167.039 146.12 169.381 144.081 170.232C142.043 171.083 139.7 170.121 138.849 168.082Z" fill="#FF6B00"/>
<path d="M54.3874 174.778C53.1107 171.72 54.5547 168.206 57.6125 166.929C60.6704 165.652 64.1843 167.096 65.461 170.154C66.7377 173.212 65.2937 176.726 62.2358 178.003C59.1779 179.279 55.6641 177.836 54.3874 174.778Z" fill="#FF6B00"/>
<path d="M118.618 176.93C117.554 174.382 118.758 171.453 121.306 170.389C123.854 169.326 126.782 170.529 127.846 173.077C128.91 175.625 127.707 178.554 125.159 179.618C122.61 180.681 119.682 179.478 118.618 176.93Z" fill="#FF6B00"/>
<path d="M75.3874 180.778C74.1107 177.72 75.5547 174.206 78.6125 172.929C81.6704 171.652 85.1843 173.096 86.461 176.154C87.7377 179.212 86.2937 182.726 83.2358 184.003C80.1779 185.279 76.6641 183.836 75.3874 180.778Z" fill="#FF6B00"/>
<path d="M97.5028 181.854C96.3325 179.051 97.6561 175.83 100.459 174.659C103.262 173.489 106.483 174.813 107.654 177.616C108.824 180.419 107.5 183.64 104.697 184.81C101.894 185.98 98.6731 184.657 97.5028 181.854Z" fill="#FF6B00"/>
</svg>
