<svg width="783" height="186" viewBox="0 0 783 186" fill="none" xmlns="http://www.w3.org/2000/svg">
<path d="M92.6874 119V46.2727H112.432V103.091H141.835V119H92.6874Z" fill="#FF6B00"/>
<path d="M176.237 119.994C170.413 119.994 165.394 118.882 161.18 116.656C156.99 114.407 153.758 111.187 151.485 106.997C149.236 102.783 148.112 97.7405 148.112 91.8693C148.112 86.2348 149.248 81.3106 151.521 77.0966C153.794 72.8825 157.001 69.6037 161.144 67.2599C165.287 64.9162 170.176 63.7443 175.811 63.7443C179.93 63.7443 183.659 64.3835 186.997 65.6619C190.335 66.9403 193.188 68.7987 195.555 71.2372C197.922 73.652 199.745 76.5876 201.024 80.044C202.302 83.5004 202.941 87.3949 202.941 91.7272V96.2727H154.22V85.4772H184.902C184.878 83.9147 184.475 82.5416 183.694 81.3579C182.937 80.1505 181.907 79.2154 180.605 78.5525C179.326 77.866 177.87 77.5227 176.237 77.5227C174.651 77.5227 173.195 77.866 171.869 78.5525C170.543 79.2154 169.478 80.1387 168.673 81.3224C167.892 82.5061 167.477 83.8911 167.43 85.4772V97.125C167.43 98.8769 167.797 100.439 168.531 101.812C169.265 103.186 170.318 104.263 171.691 105.044C173.064 105.825 174.722 106.216 176.663 106.216C178.012 106.216 179.243 106.026 180.356 105.648C181.492 105.269 182.463 104.724 183.268 104.014C184.073 103.28 184.665 102.404 185.044 101.386H202.941C202.326 105.174 200.87 108.465 198.573 111.258C196.277 114.028 193.235 116.183 189.447 117.722C185.683 119.237 181.279 119.994 176.237 119.994Z" fill="#FF6B00"/>
<path d="M226.139 119.852C222.659 119.852 219.581 119.284 216.906 118.148C214.255 116.988 212.171 115.236 210.656 112.892C209.141 110.548 208.383 107.565 208.383 103.943C208.383 100.96 208.892 98.4152 209.91 96.3082C210.928 94.1775 212.349 92.4375 214.172 91.088C215.995 89.7386 218.114 88.7088 220.528 87.9986C222.967 87.2883 225.595 86.8267 228.412 86.6136C231.466 86.3769 233.916 86.0928 235.763 85.7613C237.633 85.4062 238.982 84.9209 239.811 84.3054C240.64 83.6662 241.054 82.8257 241.054 81.7841V81.642C241.054 80.2216 240.509 79.1325 239.42 78.375C238.331 77.6174 236.935 77.2386 235.23 77.2386C233.36 77.2386 231.833 77.6529 230.649 78.4815C229.489 79.2864 228.791 80.5293 228.554 82.2102H210.514C210.751 78.8958 211.804 75.8418 213.675 73.0483C215.569 70.231 218.327 67.982 221.949 66.3011C225.571 64.5966 230.093 63.7443 235.514 63.7443C239.42 63.7443 242.924 64.2059 246.026 65.1292C249.127 66.0289 251.767 67.2954 253.945 68.9289C256.123 70.5388 257.78 72.4327 258.916 74.6108C260.076 76.7651 260.656 79.1089 260.656 81.642V119H242.332V111.33H241.906C240.817 113.365 239.491 115.011 237.929 116.266C236.39 117.52 234.626 118.432 232.638 119C230.673 119.568 228.507 119.852 226.139 119.852ZM232.531 107.494C234.023 107.494 235.419 107.187 236.722 106.571C238.047 105.955 239.124 105.068 239.953 103.908C240.782 102.748 241.196 101.339 241.196 99.6818V95.1363C240.675 95.3494 240.119 95.5506 239.527 95.74C238.959 95.9294 238.343 96.107 237.68 96.2727C237.041 96.4384 236.355 96.5923 235.621 96.7343C234.91 96.8764 234.165 97.0066 233.383 97.125C231.868 97.3617 230.625 97.7523 229.655 98.2968C228.708 98.8177 227.998 99.4687 227.524 100.25C227.074 101.008 226.849 101.86 226.849 102.807C226.849 104.322 227.382 105.482 228.447 106.287C229.513 107.092 230.874 107.494 232.531 107.494Z" fill="#FF6B00"/>
<path d="M289.767 119.71C285.884 119.71 282.309 118.692 279.042 116.656C275.799 114.62 273.195 111.531 271.23 107.388C269.288 103.245 268.318 98.0246 268.318 91.7272C268.318 85.1458 269.336 79.7954 271.372 75.6761C273.431 71.5568 276.083 68.5383 279.326 66.6207C282.593 64.7031 286.026 63.7443 289.625 63.7443C292.323 63.7443 294.691 64.2178 296.727 65.1647C298.763 66.088 300.467 67.3309 301.84 68.8934C303.214 70.4323 304.255 72.125 304.965 73.9716H305.25V46.2727H324.852V119H305.392V110.051H304.965C304.208 111.898 303.119 113.555 301.698 115.023C300.302 116.467 298.597 117.615 296.585 118.467C294.596 119.296 292.323 119.71 289.767 119.71ZM297.011 104.653C298.81 104.653 300.349 104.133 301.627 103.091C302.93 102.026 303.924 100.534 304.61 98.6164C305.321 96.6752 305.676 94.3788 305.676 91.7272C305.676 89.0284 305.321 86.7201 304.61 84.8025C303.924 82.8612 302.93 81.3816 301.627 80.3636C300.349 79.3219 298.81 78.8011 297.011 78.8011C295.212 78.8011 293.673 79.3219 292.394 80.3636C291.14 81.3816 290.169 82.8612 289.483 84.8025C288.82 86.7201 288.488 89.0284 288.488 91.7272C288.488 94.4261 288.82 96.7462 289.483 98.6875C290.169 100.605 291.14 102.085 292.394 103.126C293.673 104.144 295.212 104.653 297.011 104.653Z" fill="#FF6B00"/>
<path d="M393.318 69C393.128 66.6325 392.241 64.786 390.654 63.4602C389.092 62.1344 386.713 61.4716 383.517 61.4716C381.481 61.4716 379.812 61.7201 378.51 62.2173C377.231 62.6908 376.284 63.3418 375.669 64.1704C375.053 64.999 374.733 65.946 374.71 67.0113C374.662 67.8873 374.816 68.6804 375.171 69.3906C375.55 70.0771 376.142 70.7045 376.947 71.2727C377.752 71.8172 378.782 72.3144 380.037 72.7642C381.291 73.214 382.783 73.6164 384.511 73.9716L390.477 75.25C394.501 76.1022 397.946 77.2268 400.811 78.6236C403.675 80.0203 406.019 81.6657 407.842 83.5596C409.665 85.4299 411.002 87.5369 411.855 89.8807C412.731 92.2244 413.18 94.7812 413.204 97.5511C413.18 102.333 411.985 106.382 409.617 109.696C407.25 113.01 403.865 115.532 399.461 117.26C395.082 118.988 389.814 119.852 383.659 119.852C377.338 119.852 371.822 118.917 367.11 117.047C362.423 115.177 358.777 112.3 356.173 108.418C353.592 104.511 352.29 99.5161 352.267 93.4318H371.017C371.135 95.6572 371.691 97.5274 372.686 99.0426C373.68 100.558 375.077 101.706 376.876 102.487C378.699 103.268 380.865 103.659 383.375 103.659C385.482 103.659 387.245 103.399 388.666 102.878C390.086 102.357 391.163 101.635 391.897 100.712C392.631 99.7883 393.01 98.7348 393.034 97.5511C393.01 96.4384 392.643 95.4678 391.933 94.6392C391.246 93.7869 390.11 93.0293 388.524 92.3664C386.938 91.6799 384.795 91.0407 382.096 90.4488L374.852 88.8863C368.412 87.4895 363.334 85.1576 359.617 81.8906C355.924 78.5999 354.09 74.1136 354.113 68.4318C354.09 63.8153 355.321 59.7789 357.806 56.3224C360.316 52.8423 363.784 50.1316 368.211 48.1903C372.662 46.249 377.764 45.2784 383.517 45.2784C389.388 45.2784 394.466 46.2609 398.751 48.2258C403.036 50.1908 406.339 52.9607 408.659 56.5355C411.002 60.0866 412.186 64.2414 412.21 69H393.318Z" fill="#FF8B38"/>
<path d="M453.527 64.4545V78.6591H417.59V64.4545H453.527ZM424.55 51.3863H444.152V101.457C444.152 102.215 444.282 102.854 444.543 103.375C444.803 103.872 445.206 104.251 445.75 104.511C446.295 104.748 446.993 104.866 447.845 104.866C448.437 104.866 449.124 104.795 449.905 104.653C450.71 104.511 451.302 104.393 451.681 104.298L454.522 118.077C453.646 118.337 452.391 118.657 450.757 119.035C449.148 119.414 447.23 119.663 445.005 119.781C440.506 120.018 436.73 119.556 433.676 118.396C430.622 117.213 428.326 115.354 426.787 112.821C425.248 110.288 424.503 107.116 424.55 103.304V51.3863Z" fill="#FF8B38"/>
<path d="M461.526 119V64.4545H480.56V74.8238H481.128C482.123 70.9886 483.697 68.1832 485.852 66.4076C488.03 64.6321 490.575 63.7443 493.486 63.7443C494.339 63.7443 495.179 63.8153 496.008 63.9574C496.86 64.0757 497.677 64.2533 498.458 64.49V81.2159C497.487 80.8844 496.292 80.6359 494.871 80.4701C493.451 80.3044 492.232 80.2216 491.214 80.2216C489.296 80.2216 487.568 80.6595 486.029 81.5355C484.514 82.3877 483.318 83.5951 482.442 85.1576C481.566 86.6965 481.128 88.5075 481.128 90.5909V119H461.526Z" fill="#FF8B38"/>
<path d="M517.545 119.852C514.065 119.852 510.988 119.284 508.312 118.148C505.661 116.988 503.578 115.236 502.062 112.892C500.547 110.548 499.79 107.565 499.79 103.943C499.79 100.96 500.299 98.4152 501.317 96.3082C502.335 94.1775 503.755 92.4375 505.578 91.088C507.401 89.7386 509.52 88.7088 511.935 87.9986C514.373 87.2883 517.001 86.8267 519.818 86.6136C522.872 86.3769 525.322 86.0928 527.169 85.7613C529.039 85.4062 530.389 84.9209 531.217 84.3054C532.046 83.6662 532.46 82.8257 532.46 81.7841V81.642C532.46 80.2216 531.916 79.1325 530.827 78.375C529.738 77.6174 528.341 77.2386 526.636 77.2386C524.766 77.2386 523.239 77.6529 522.055 78.4815C520.895 79.2864 520.197 80.5293 519.96 82.2102H501.92C502.157 78.8958 503.211 75.8418 505.081 73.0483C506.975 70.231 509.733 67.982 513.355 66.3011C516.977 64.5966 521.499 63.7443 526.92 63.7443C530.827 63.7443 534.33 64.2059 537.432 65.1292C540.533 66.0289 543.173 67.2954 545.351 68.9289C547.529 70.5388 549.186 72.4327 550.322 74.6108C551.482 76.7651 552.062 79.1089 552.062 81.642V119H533.739V111.33H533.312C532.223 113.365 530.898 115.011 529.335 116.266C527.796 117.52 526.033 118.432 524.044 119C522.079 119.568 519.913 119.852 517.545 119.852ZM523.937 107.494C525.429 107.494 526.826 107.187 528.128 106.571C529.454 105.955 530.531 105.068 531.359 103.908C532.188 102.748 532.602 101.339 532.602 99.6818V95.1363C532.081 95.3494 531.525 95.5506 530.933 95.74C530.365 95.9294 529.749 96.107 529.087 96.2727C528.447 96.4384 527.761 96.5923 527.027 96.7343C526.317 96.8764 525.571 97.0066 524.79 97.125C523.275 97.3617 522.032 97.7523 521.061 98.2968C520.114 98.8177 519.404 99.4687 518.93 100.25C518.481 101.008 518.256 101.86 518.256 102.807C518.256 104.322 518.788 105.482 519.854 106.287C520.919 107.092 522.28 107.494 523.937 107.494Z" fill="#FF8B38"/>
<path d="M593.957 64.4545V78.6591H558.019V64.4545H593.957ZM564.98 51.3863H584.582V101.457C584.582 102.215 584.712 102.854 584.973 103.375C585.233 103.872 585.635 104.251 586.18 104.511C586.725 104.748 587.423 104.866 588.275 104.866C588.867 104.866 589.554 104.795 590.335 104.653C591.14 104.511 591.732 104.393 592.11 104.298L594.951 118.077C594.075 118.337 592.821 118.657 591.187 119.035C589.577 119.414 587.66 119.663 585.434 119.781C580.936 120.018 577.16 119.556 574.106 118.396C571.052 117.213 568.756 115.354 567.217 112.821C565.678 110.288 564.932 107.116 564.98 103.304V51.3863Z" fill="#FF8B38"/>
<path d="M627.506 119.994C621.682 119.994 616.664 118.882 612.45 116.656C608.259 114.407 605.028 111.187 602.755 106.997C600.506 102.783 599.381 97.7405 599.381 91.8693C599.381 86.2348 600.518 81.3106 602.79 77.0966C605.063 72.8825 608.271 69.6037 612.414 67.2599C616.557 64.9162 621.446 63.7443 627.08 63.7443C631.2 63.7443 634.928 64.3835 638.266 65.6619C641.604 66.9403 644.457 68.7987 646.825 71.2372C649.192 73.652 651.015 76.5876 652.293 80.044C653.572 83.5004 654.211 87.3949 654.211 91.7272V96.2727H605.489V85.4772H636.171C636.147 83.9147 635.745 82.5416 634.964 81.3579C634.206 80.1505 633.176 79.2154 631.874 78.5525C630.596 77.866 629.14 77.5227 627.506 77.5227C625.92 77.5227 624.464 77.866 623.138 78.5525C621.813 79.2154 620.747 80.1387 619.942 81.3224C619.161 82.5061 618.747 83.8911 618.7 85.4772V97.125C618.7 98.8769 619.066 100.439 619.8 101.812C620.534 103.186 621.588 104.263 622.961 105.044C624.334 105.825 625.991 106.216 627.932 106.216C629.282 106.216 630.513 106.026 631.626 105.648C632.762 105.269 633.733 104.724 634.538 104.014C635.343 103.28 635.934 102.404 636.313 101.386H654.211C653.595 105.174 652.139 108.465 649.843 111.258C647.547 114.028 644.504 116.183 640.717 117.722C636.952 119.237 632.549 119.994 627.506 119.994Z" fill="#FF8B38"/>
<path d="M688.488 140.591C683.019 140.591 678.332 139.81 674.426 138.247C670.543 136.708 667.525 134.578 665.37 131.855C663.24 129.156 662.044 126.055 661.784 122.551H680.676C680.865 123.711 681.339 124.646 682.096 125.357C682.854 126.067 683.824 126.576 685.008 126.883C686.216 127.215 687.565 127.381 689.056 127.381C691.59 127.381 693.685 126.765 695.342 125.534C697.023 124.303 697.863 122.078 697.863 118.858V109.625H697.295C696.585 111.472 695.496 113.046 694.028 114.348C692.56 115.626 690.796 116.609 688.737 117.295C686.677 117.958 684.416 118.29 681.954 118.29C678.072 118.29 674.497 117.39 671.23 115.591C667.986 113.792 665.382 110.939 663.417 107.033C661.476 103.126 660.505 98.0246 660.505 91.7272C660.505 85.1458 661.523 79.7954 663.559 75.6761C665.619 71.5568 668.27 68.5383 671.514 66.6207C674.781 64.7031 678.214 63.7443 681.812 63.7443C684.511 63.7443 686.878 64.2178 688.914 65.1647C690.95 66.088 692.655 67.3309 694.028 68.8934C695.401 70.4323 696.443 72.125 697.153 73.9716H697.579V64.4545H717.181V118.858C717.181 123.474 715.986 127.392 713.595 130.612C711.227 133.856 707.889 136.33 703.581 138.034C699.272 139.739 694.241 140.591 688.488 140.591ZM689.198 104.369C690.998 104.369 692.537 103.872 693.815 102.878C695.117 101.86 696.111 100.416 696.798 98.5454C697.508 96.6515 697.863 94.3788 697.863 91.7272C697.863 89.0284 697.508 86.7201 696.798 84.8025C696.111 82.8612 695.117 81.3816 693.815 80.3636C692.537 79.3219 690.998 78.8011 689.198 78.8011C687.399 78.8011 685.86 79.3219 684.582 80.3636C683.327 81.3816 682.357 82.8612 681.67 84.8025C681.007 86.7201 680.676 89.0284 680.676 91.7272C680.676 94.4261 681.007 96.7225 681.67 98.6164C682.357 100.487 683.327 101.919 684.582 102.913C685.86 103.884 687.399 104.369 689.198 104.369Z" fill="#FF8B38"/>
<path d="M739.083 139.455C736.834 139.455 734.691 139.277 732.655 138.922C730.619 138.59 728.832 138.129 727.293 137.537L731.555 123.616C733.164 124.185 734.632 124.552 735.958 124.717C737.308 124.883 738.456 124.788 739.403 124.433C740.373 124.078 741.072 123.403 741.498 122.409L741.924 121.415L722.748 64.4545H743.202L752.009 102.239H752.577L761.526 64.4545H782.123L762.236 123.545C761.242 126.552 759.798 129.251 757.904 131.642C756.034 134.057 753.572 135.963 750.518 137.359C747.464 138.756 743.652 139.455 739.083 139.455Z" fill="#FF8B38"/>
<path d="M117.195 147.311C116.663 146.036 117.265 144.572 118.539 144.04C119.813 143.508 121.277 144.11 121.809 145.384C122.341 146.658 121.74 148.122 120.466 148.654C119.191 149.186 117.727 148.585 117.195 147.311Z" fill="#FF8B38"/>
<path d="M99.08 150.234C98.4416 148.705 99.1636 146.949 100.693 146.31C102.221 145.672 103.978 146.394 104.617 147.923C105.255 149.452 104.533 151.209 103.004 151.847C101.475 152.485 99.7183 151.763 99.08 150.234Z" fill="#FF8B38"/>
<path d="M81.9645 148.158C81.2198 146.375 82.0621 144.325 83.8459 143.58C85.6296 142.835 87.6794 143.678 88.4241 145.461C89.1689 147.245 88.3266 149.295 86.5428 150.04C84.759 150.784 82.7093 149.942 81.9645 148.158Z" fill="#FF8B38"/>
<path d="M65.8491 141.082C64.998 139.044 65.9606 136.701 67.9992 135.85C70.0378 134.999 72.3804 135.961 73.2315 138C74.0826 140.039 73.12 142.381 71.0814 143.232C69.0428 144.083 66.7002 143.121 65.8491 141.082Z" fill="#FF8B38"/>
<path d="M51.7336 130.006C50.7761 127.713 51.8591 125.077 54.1525 124.12C56.4459 123.162 59.0814 124.245 60.0389 126.539C60.9964 128.832 59.9134 131.467 57.62 132.425C55.3266 133.382 52.6912 132.299 51.7336 130.006Z" fill="#FF8B38"/>
<path d="M40.6182 116.93C39.5543 114.382 40.7576 111.453 43.3058 110.39C45.8541 109.326 48.7823 110.529 49.8462 113.077C50.9101 115.625 49.7068 118.554 47.1586 119.618C44.6103 120.681 41.6821 119.478 40.6182 116.93Z" fill="#FF8B38"/>
<path d="M34.0779 101.316C33.014 98.7676 34.2173 95.8394 36.7656 94.7755C39.3138 93.7116 42.242 94.9149 43.3059 97.4632C44.3699 100.011 43.1665 102.94 40.6183 104.004C38.0701 105.067 35.1418 103.864 34.0779 101.316Z" fill="#FF8B38"/>
<path d="M31.6182 83.9299C30.5543 81.3817 31.7576 78.4534 34.3058 77.3895C36.8541 76.3256 39.7823 77.5289 40.8462 80.0772C41.9101 82.6254 40.7068 85.5536 38.1586 86.6175C35.6103 87.6815 32.6821 86.4781 31.6182 83.9299Z" fill="#FF8B38"/>
<path d="M32.6182 65.9299C31.5543 63.3817 32.7576 60.4534 35.3058 59.3895C37.8541 58.3256 40.7823 59.5289 41.8462 62.0772C42.9101 64.6254 41.7068 67.5536 39.1586 68.6175C36.6103 69.6815 33.6821 68.4781 32.6182 65.9299Z" fill="#FF8B38"/>
<path d="M38.7336 49.006C37.7761 46.7126 38.8591 44.0772 41.1525 43.1197C43.4459 42.1622 46.0814 43.2451 47.0389 45.5386C47.9964 47.832 46.9134 50.4674 44.62 51.4249C42.3266 52.3824 39.6912 51.2995 38.7336 49.006Z" fill="#FF8B38"/>
<path d="M48.8491 33.0822C47.998 31.0436 48.9606 28.701 50.9992 27.8499C53.0378 26.9987 55.3804 27.9614 56.2315 30C57.0826 32.0386 56.12 34.3811 54.0814 35.2323C52.0428 36.0834 49.7002 35.1208 48.8491 33.0822Z" fill="#FF8B38"/>
<path d="M61.9645 20.1583C61.2198 18.3745 62.0621 16.3248 63.8459 15.58C65.6296 14.8353 67.6794 15.6776 68.4241 17.4614C69.1689 19.2451 68.3266 21.2949 66.5428 22.0396C64.759 22.7844 62.7093 21.9421 61.9645 20.1583Z" fill="#FF8B38"/>
<path d="M77.08 10.2344C76.4416 8.70547 77.1636 6.94853 78.6926 6.31019C80.2215 5.67184 81.9784 6.39382 82.6168 7.92277C83.2551 9.45172 82.5331 11.2087 81.0042 11.847C79.4752 12.4853 77.7183 11.7634 77.08 10.2344Z" fill="#FF8B38"/>
<path d="M95.3108 3.38667C94.8853 2.36737 95.3666 1.19608 96.3859 0.770517C97.4052 0.344955 98.5765 0.826275 99.002 1.84557C99.4276 2.86487 98.9463 4.03616 97.927 4.46173C96.9077 4.88729 95.7364 4.40597 95.3108 3.38667Z" fill="#FF8B38"/>
<path d="M134.311 12.3866C133.885 11.3673 134.367 10.196 135.386 9.77047C136.405 9.34491 137.577 9.82623 138.002 10.8455C138.428 11.8648 137.946 13.0361 136.927 13.4617C135.908 13.8872 134.736 13.4059 134.311 12.3866Z" fill="#FF9E58"/>
<path d="M118.731 11.9282C118.199 10.654 118.801 9.18993 120.075 8.65798C121.349 8.12603 122.813 8.72768 123.345 10.0018C123.877 11.2759 123.275 12.74 122.001 13.272C120.727 13.8039 119.263 13.2023 118.731 11.9282Z" fill="#FF9E58"/>
<path d="M101.08 13.2344C100.442 11.7054 101.164 9.94848 102.693 9.31014C104.222 8.67179 105.978 9.39377 106.617 10.9227C107.255 12.4517 106.533 14.2086 105.004 14.847C103.475 15.4853 101.718 14.7633 101.08 13.2344Z" fill="#FF9E58"/>
<path d="M86.1162 19.6215C85.3714 17.8377 86.2137 15.788 87.9975 15.0432C89.7813 14.2985 91.831 15.1408 92.5758 16.9246C93.3205 18.7084 92.4782 20.7581 90.6944 21.5028C88.9107 22.2476 86.8609 21.4053 86.1162 19.6215Z" fill="#FF9E58"/>
<path d="M71.8491 29.0821C70.998 27.0435 71.9606 24.7009 73.9992 23.8498C76.0378 22.9987 78.3804 23.9613 79.2315 25.9999C80.0827 28.0385 79.12 30.3811 77.0814 31.2322C75.0428 32.0833 72.7002 31.1207 71.8491 29.0821Z" fill="#FF9E58"/>
<path d="M59.8491 41.0821C58.998 39.0435 59.9606 36.7009 61.9992 35.8498C64.0378 34.9987 66.3804 35.9613 67.2315 37.9999C68.0827 40.0385 67.12 42.3811 65.0814 43.2322C63.0428 44.0833 60.7002 43.1207 59.8491 41.0821Z" fill="#FF9E58"/>
<path d="M51.8491 55.0821C50.998 53.0435 51.9606 50.7009 53.9992 49.8498C56.0378 48.9987 58.3804 49.9613 59.2315 51.9999C60.0827 54.0385 59.12 56.3811 57.0814 57.2322C55.0428 58.0833 52.7002 57.1207 51.8491 55.0821Z" fill="#FF9E58"/>
<path d="M46.7337 70.006C45.7762 67.7126 46.8591 65.0772 49.1526 64.1196C51.446 63.1621 54.0814 64.2451 55.0389 66.5385C55.9964 68.8319 54.9134 71.4673 52.62 72.4249C50.3266 73.3824 47.6912 72.2994 46.7337 70.006Z" fill="#FF9E58"/>
<path d="M46.8491 86.0821C45.998 84.0435 46.9606 81.7009 48.9992 80.8498C51.0378 79.9987 53.3804 80.9613 54.2315 82.9999C55.0827 85.0385 54.12 87.3811 52.0814 88.2322C50.0428 89.0833 47.7002 88.1207 46.8491 86.0821Z" fill="#FF9E58"/>
<path d="M50.8491 101.082C49.998 99.0435 50.9606 96.7009 52.9992 95.8498C55.0378 94.9987 57.3804 95.9613 58.2315 97.9999C59.0827 100.039 58.12 102.381 56.0814 103.232C54.0428 104.083 51.7002 103.121 50.8491 101.082Z" fill="#FF9E58"/>
<path d="M57.9646 115.158C57.2198 113.374 58.0621 111.325 59.8459 110.58C61.6297 109.835 63.6794 110.678 64.4242 112.461C65.1689 114.245 64.3266 116.295 62.5428 117.04C60.759 117.784 58.7093 116.942 57.9646 115.158Z" fill="#FF9E58"/>
<path d="M69.08 126.234C68.4417 124.705 69.1636 122.948 70.6926 122.31C72.2215 121.672 73.9785 122.394 74.6168 123.923C75.2551 125.452 74.5332 127.209 73.0042 127.847C71.4753 128.485 69.7183 127.763 69.08 126.234Z" fill="#FF9E58"/>
<path d="M82.1954 135.311C81.6635 134.036 82.2651 132.572 83.5393 132.04C84.8134 131.508 86.2775 132.11 86.8094 133.384C87.3414 134.658 86.7397 136.122 85.4656 136.654C84.1915 137.186 82.7274 136.585 82.1954 135.311Z" fill="#FF9E58"/>
<path d="M98.3109 140.387C97.8853 139.367 98.3666 138.196 99.3859 137.77C100.405 137.345 101.577 137.826 102.002 138.846C102.428 139.865 101.946 141.036 100.927 141.462C99.9077 141.887 98.7364 141.406 98.3109 140.387Z" fill="#FF9E58"/>
<path d="M53.1954 12.3105C52.6634 11.0364 53.2651 9.57225 54.5392 9.0403C55.8133 8.50835 57.2775 9.11 57.8094 10.3841C58.3414 11.6582 57.7397 13.1224 56.4656 13.6543C55.1915 14.1863 53.7274 13.5846 53.1954 12.3105Z" fill="#FF8025"/>
<path d="M38.08 26.2344C37.4416 24.7054 38.1636 22.9485 39.6925 22.3101C41.2215 21.6718 42.9784 22.3938 43.6168 23.9227C44.2551 25.4517 43.5331 27.2086 42.0042 27.847C40.4752 28.4853 38.7183 27.7633 38.08 26.2344Z" fill="#FF8025"/>
<path d="M25.8491 43.0821C24.998 41.0435 25.9606 38.7009 27.9992 37.8498C30.0378 36.9987 32.3804 37.9613 33.2315 39.9999C34.0826 42.0385 33.12 44.3811 31.0814 45.2322C29.0428 46.0833 26.7002 45.1207 25.8491 43.0821Z" fill="#FF8025"/>
<path d="M18.6182 62.9299C17.5543 60.3816 18.7576 57.4534 21.3058 56.3895C23.8541 55.3256 26.7823 56.5289 27.8462 59.0771C28.9101 61.6254 27.7068 64.5536 25.1586 65.6175C22.6103 66.6814 19.6821 65.4781 18.6182 62.9299Z" fill="#FF8025"/>
<path d="M16.6182 82.9299C15.5543 80.3816 16.7576 77.4534 19.3058 76.3895C21.8541 75.3256 24.7823 76.5289 25.8462 79.0771C26.9101 81.6254 25.7068 84.5536 23.1586 85.6175C20.6103 86.6814 17.6821 85.4781 16.6182 82.9299Z" fill="#FF8025"/>
<path d="M18.6182 102.93C17.5543 100.382 18.7576 97.4534 21.3058 96.3895C23.8541 95.3256 26.7823 96.5289 27.8462 99.0771C28.9101 101.625 27.7068 104.554 25.1586 105.618C22.6103 106.681 19.6821 105.478 18.6182 102.93Z" fill="#FF8025"/>
<path d="M24.5028 121.854C23.3325 119.051 24.6561 115.83 27.4592 114.659C30.2622 113.489 33.4833 114.813 34.6536 117.616C35.8239 120.419 34.5003 123.64 31.6972 124.81C28.8941 125.98 25.6731 124.657 24.5028 121.854Z" fill="#FF8025"/>
<path d="M35.5028 137.854C34.3325 135.051 35.6561 131.83 38.4592 130.659C41.2622 129.489 44.4833 130.813 45.6536 133.616C46.8239 136.419 45.5003 139.64 42.6972 140.81C39.8941 141.98 36.6731 140.657 35.5028 137.854Z" fill="#FF8025"/>
<path d="M50.6182 150.93C49.5543 148.382 50.7576 145.453 53.3058 144.389C55.8541 143.326 58.7823 144.529 59.8462 147.077C60.9101 149.625 59.7068 152.554 57.1586 153.618C54.6103 154.681 51.6821 153.478 50.6182 150.93Z" fill="#FF8025"/>
<path d="M67.6182 159.93C66.5543 157.382 67.7576 154.453 70.3058 153.389C72.8541 152.326 75.7823 153.529 76.8462 156.077C77.9101 158.625 76.7068 161.554 74.1586 162.618C71.6103 163.681 68.6821 162.478 67.6182 159.93Z" fill="#FF8025"/>
<path d="M86.7336 164.006C85.7761 161.713 86.8591 159.077 89.1525 158.12C91.4459 157.162 94.0814 158.245 95.0389 160.539C95.9964 162.832 94.9134 165.467 92.62 166.425C90.3266 167.382 87.6912 166.299 86.7336 164.006Z" fill="#FF8025"/>
<path d="M106.849 164.082C105.998 162.044 106.961 159.701 108.999 158.85C111.038 157.999 113.38 158.961 114.231 161C115.083 163.039 114.12 165.381 112.081 166.232C110.043 167.083 107.7 166.121 106.849 164.082Z" fill="#FF8025"/>
<path d="M126.08 158.234C125.442 156.705 126.164 154.948 127.693 154.31C129.221 153.672 130.978 154.394 131.617 155.923C132.255 157.452 131.533 159.209 130.004 159.847C128.475 160.485 126.718 159.763 126.08 158.234Z" fill="#FF8025"/>
<path d="M144.311 147.387C143.885 146.367 144.367 145.196 145.386 144.77C146.405 144.345 147.576 144.826 148.002 145.846C148.428 146.865 147.946 148.036 146.927 148.462C145.908 148.887 144.736 148.406 144.311 147.387Z" fill="#FF8025"/>
<path d="M13.3109 41.3866C12.8853 40.3673 13.3666 39.196 14.3859 38.7705C15.4052 38.3449 16.5765 38.8262 17.0021 39.8455C17.4277 40.8648 16.9463 42.0361 15.927 42.4617C14.9077 42.8872 13.7365 42.4059 13.3109 41.3866Z" fill="#FF6B00"/>
<path d="M5.08001 62.2344C4.44167 60.7054 5.16365 58.9485 6.6926 58.3101C8.22155 57.6718 9.97848 58.3938 10.6168 59.9227C11.2552 61.4517 10.5332 63.2086 9.00424 63.847C7.47529 64.4853 5.71835 63.7633 5.08001 62.2344Z" fill="#FF6B00"/>
<path d="M0.733694 84.006C-0.22382 81.7126 0.859149 79.0772 3.15257 78.1196C5.446 77.1621 8.0814 78.2451 9.03891 80.5385C9.99643 82.8319 8.91346 85.4674 6.62004 86.4249C4.32661 87.3824 1.69121 86.2994 0.733694 84.006Z" fill="#FF6B00"/>
<path d="M2.61825 106.93C1.55435 104.382 2.75765 101.453 5.3059 100.389C7.85415 99.3256 10.7824 100.529 11.8463 103.077C12.9102 105.625 11.7069 108.554 9.15864 109.618C6.61039 110.681 3.68216 109.478 2.61825 106.93Z" fill="#FF6B00"/>
<path d="M9.38738 128.778C8.11069 125.72 9.55465 122.206 12.6125 120.929C15.6704 119.652 19.1843 121.096 20.461 124.154C21.7377 127.212 20.2937 130.726 17.2358 132.003C14.1779 133.279 10.6641 131.836 9.38738 128.778Z" fill="#FF6B00"/>
<path d="M168.311 134.387C167.885 133.367 168.367 132.196 169.386 131.77C170.405 131.345 171.577 131.826 172.002 132.846C172.428 133.865 171.946 135.036 170.927 135.462C169.908 135.887 168.736 135.406 168.311 134.387Z" fill="#FF6B00"/>
<path d="M20.3874 147.778C19.1107 144.72 20.5547 141.206 23.6125 139.929C26.6704 138.652 30.1843 140.096 31.461 143.154C32.7377 146.212 31.2937 149.726 28.2358 151.003C25.1779 152.279 21.6641 150.836 20.3874 147.778Z" fill="#FF6B00"/>
<path d="M156.08 153.234C155.442 151.705 156.164 149.948 157.693 149.31C159.222 148.672 160.978 149.394 161.617 150.923C162.255 152.452 161.533 154.209 160.004 154.847C158.475 155.485 156.718 154.763 156.08 153.234Z" fill="#FF6B00"/>
<path d="M36.3874 162.778C35.1107 159.72 36.5547 156.206 39.6125 154.929C42.6704 153.652 46.1843 155.096 47.461 158.154C48.7377 161.212 47.2937 164.726 44.2358 166.003C41.1779 167.279 37.6641 165.836 36.3874 162.778Z" fill="#FF6B00"/>
<path d="M138.849 168.082C137.998 166.044 138.961 163.701 140.999 162.85C143.038 161.999 145.38 162.961 146.232 165C147.083 167.039 146.12 169.381 144.081 170.232C142.043 171.083 139.7 170.121 138.849 168.082Z" fill="#FF6B00"/>
<path d="M54.3874 174.778C53.1107 171.72 54.5547 168.206 57.6125 166.929C60.6704 165.652 64.1843 167.096 65.461 170.154C66.7377 173.212 65.2937 176.726 62.2358 178.003C59.1779 179.279 55.6641 177.836 54.3874 174.778Z" fill="#FF6B00"/>
<path d="M118.618 176.93C117.554 174.382 118.758 171.453 121.306 170.389C123.854 169.326 126.782 170.529 127.846 173.077C128.91 175.625 127.707 178.554 125.159 179.618C122.61 180.681 119.682 179.478 118.618 176.93Z" fill="#FF6B00"/>
<path d="M75.3874 180.778C74.1107 177.72 75.5547 174.206 78.6125 172.929C81.6704 171.652 85.1843 173.096 86.461 176.154C87.7377 179.212 86.2937 182.726 83.2358 184.003C80.1779 185.279 76.6641 183.836 75.3874 180.778Z" fill="#FF6B00"/>
<path d="M97.5028 181.854C96.3325 179.051 97.6561 175.83 100.459 174.659C103.262 173.489 106.483 174.813 107.654 177.616C108.824 180.419 107.5 183.64 104.697 184.81C101.894 185.98 98.6731 184.657 97.5028 181.854Z" fill="#FF6B00"/>
</svg>
