 <svg  version="1.0" xmlns="http://www.w3.org/2000/svg"  width="285.000000pt" height="72.000000pt" viewBox="0 0 285.000000 72.000000"  preserveAspectRatio="xMidYMid meet">  <g transform="translate(0.000000,72.000000) scale(0.050000,-0.050000)" fill="#fa5a15" stroke="none"> <path d="M1309 1359 c-91 -101 -58 -894 45 -1083 161 -296 668 -355 917 -106 140 140 159 227 159 723 0 474 -9 507 -138 507 -137 -1 -152 -47 -152 -471 0 -522 -59 -643 -302 -625 -233 17 -264 87 -278 623 -9 382 -13 419 -49 445 -57 41 -158 35 -202 -13z"/> <path d="M4788 1371 c-69 -30 -95 -91 -68 -161 20 -53 65 -71 220 -88 l110 -12 10 -517 c11 -569 12 -573 142 -573 127 0 138 48 138 600 l0 495 131 10 c177 14 260 104 193 209 -44 69 -734 99 -876 37z"/> <path d="M80 1340 c-64 -64 -62 -1214 2 -1272 53 -48 555 -56 684 -11 302 106 370 519 107 650 l-75 37 75 65 c163 141 109 425 -98 522 -147 68 -630 74 -695 9z m509 -220 c68 -25 96 -100 68 -179 -23 -68 -71 -88 -217 -90 l-90 -1 -6 145 -6 145 100 0 c55 0 123 -9 151 -20z m82 -549 c131 -131 41 -277 -179 -288 l-152 -7 0 172 0 172 141 0 c123 0 147 -6 190 -49z"/> <path d="M2768 1365 c-61 -41 -68 -111 -68 -665 0 -653 6 -679 152 -680 113 0 137 53 145 320 l7 236 176 7 c199 8 260 41 260 140 0 84 -65 115 -261 125 -93 5 -171 9 -174 10 -3 1 -5 61 -5 132 l0 130 187 0 c262 0 375 98 253 220 -41 41 -615 63 -672 25z"/> <path d="M3760 1340 c-38 -38 -40 -67 -40 -637 0 -739 -37 -673 378 -673 334 0 402 21 402 127 0 104 -59 132 -292 140 l-208 7 0 138 0 138 159 0 c234 0 322 52 292 171 -17 69 -71 90 -256 98 -91 5 -172 9 -181 10 -9 0 -13 57 -10 126 l6 125 202 10 c228 11 268 31 268 131 0 114 -45 129 -384 129 -269 0 -300 -4 -336 -40z"/> </g> </svg> 