<svg width="100" height="100" viewBox="0 0 100 100" fill="none" xmlns="http://www.w3.org/2000/svg">
<g clip-path="url(#clip0_34_147)">
<path d="M49.0444 3.45556C48.5444 3.6 48.3222 3.87778 47.7778 5C47.6444 5.27778 47.4889 5.57778 47.4333 5.66667C47.3778 5.75556 47.3 5.91111 47.2667 6C47.1667 6.24445 46.7778 7.03334 46.6667 7.22222C46.6111 7.31111 46.0556 8.43334 45.4222 9.72223C44.3333 11.9333 44.2556 12.0556 43.9444 12.0889C43.7667 12.1 43.3111 12.1889 42.9333 12.2778C42.5667 12.3667 42.0111 12.4444 41.7111 12.4444C41.4111 12.4444 40.8667 12.5222 40.5222 12.6111C40.1667 12.7 39.6889 12.7778 39.4556 12.7778C39.2222 12.7778 38.7556 12.8333 38.4333 12.9C38.1 12.9667 37.4889 13.0667 37.0556 13.1111C35.5222 13.2889 34.9444 13.5556 34.4778 14.3111C34.1111 14.9111 34.1333 15.6222 34.5444 16.1778C34.8444 16.5889 37.8889 19.6556 39.9222 21.5778C40.9889 22.6 41.0222 22.6778 40.7333 23.7111C40.6444 24.0222 40.5111 24.6556 40.4444 25.1111C40.3778 25.5667 40.2889 26.1889 40.2333 26.5C40.1778 26.8 40.0778 27.4333 40.0111 27.8889C39.9333 28.3444 39.8222 28.9222 39.7556 29.1667C39.6889 29.4111 39.6111 30.1667 39.5889 30.8444L39.5333 32.0778L40.0556 32.5889C40.5667 33.1111 40.5778 33.1111 41.3333 33.1111C41.9111 33.1111 42.2 33.0556 42.5 32.8778C42.8778 32.6556 43.7444 32.2 45.8889 31.0778C48.4778 29.7444 49.2889 29.3111 49.3889 29.2111C49.5222 29.0778 50.1889 29.0778 50.2778 29.2222C50.3111 29.2778 50.7556 29.5333 51.2556 29.7778C51.7556 30.0333 52.7667 30.5556 53.5 30.9444C54.2333 31.3333 55.2333 31.8556 55.7222 32.1111C56.2111 32.3667 56.8111 32.6889 57.0556 32.8333C57.7111 33.2333 58.8667 33.2222 59.3889 32.8222C60.1111 32.2778 60.3889 31.3556 60.1 30.4444C60.0333 30.2333 59.9444 29.7333 59.8889 29.3333C59.7889 28.5667 59.6444 27.7556 59.3778 26.5444C59.2889 26.1333 59.2222 25.6333 59.2222 25.4222C59.2222 25.2111 59.1556 24.7889 59.0667 24.4889C58.9778 24.1889 58.8889 23.6222 58.8444 23.2222L58.7889 22.5L60.3667 20.9556C65.2111 16.2111 65.0889 16.3333 65.2778 15.7778C65.5 15.0889 65.3333 14.3556 64.8222 13.8556C64.4222 13.4667 63.3667 13.1222 62.5556 13.1111C62.2778 13.1111 61.7556 13.0333 61.3889 12.9444C61.0222 12.8556 60.4444 12.7778 60.1111 12.7778C59.7778 12.7778 59.3 12.7 59.0556 12.6111C58.8111 12.5222 58.3333 12.4556 58 12.4444C57.6556 12.4444 57.0889 12.3667 56.7444 12.2778C56.3889 12.1889 55.9333 12.1111 55.7222 12.1111C55.3667 12.1111 55.3333 12.0778 54.9444 11.2444C54.7111 10.7778 54.4889 10.3111 54.4333 10.2222C54.3889 10.1333 54.2333 9.83334 54.1 9.55556C52.4111 6.05556 51.3778 4.06667 51.1 3.8C50.6556 3.36667 49.8333 3.22222 49.0444 3.45556ZM50.3222 10.6C50.4333 10.8444 50.5556 11.1333 50.6 11.2222C50.6667 11.3889 50.7333 11.5111 50.9778 11.9444C51.0556 12.0667 51.1444 12.2444 51.1778 12.3333C51.4111 12.8778 52.0444 14.1222 52.1222 14.1778C52.1778 14.2111 52.2222 14.3222 52.2222 14.4222C52.2222 14.6667 52.8778 15.3778 53.3111 15.6C53.5 15.7 53.9 15.7778 54.1889 15.7778C54.4778 15.7778 54.9222 15.8556 55.1667 15.9444C55.4111 16.0333 55.9111 16.1 56.2889 16.1111C56.6556 16.1111 57.2111 16.1889 57.5111 16.2778C57.8111 16.3667 58.2556 16.4444 58.5111 16.4444C58.7556 16.4444 59 16.4778 59.0333 16.5111C59.1111 16.5889 58.9111 17.0222 58.7556 17.1222C58.6889 17.1667 57.8 18.0333 56.7778 19.0556C54.4667 21.3444 54.5778 21 55.1111 24.3889C55.1778 24.8111 55.2889 25.3889 55.3556 25.6667C55.5333 26.3556 55.6 27.3333 55.4778 27.4556C55.4333 27.5 54.9667 27.3333 54.4444 27.0667C53.9222 26.8 53.1222 26.3889 52.6667 26.1556C52.2111 25.9222 51.6444 25.6222 51.4222 25.4778C51.1889 25.3333 50.7667 25.1444 50.4778 25.0444C50.0222 24.8889 49.8667 24.8889 49.3333 25.0111C49 25.0889 48.6556 25.2 48.5667 25.2667C48.3778 25.4222 48.0556 25.5889 47.4444 25.8889C47.1667 26.0222 46.8667 26.1667 46.7778 26.2222C46.6889 26.2778 46.3889 26.4333 46.1111 26.5778C45.8333 26.7111 45.3778 26.9667 45.1 27.1333C44.8222 27.3111 44.4444 27.4444 44.2778 27.4444C44 27.4444 43.9778 27.4222 44.0556 27.1333C44.1 26.9667 44.1778 26.4778 44.2222 26.0556C44.2778 25.6222 44.3667 25.0556 44.4222 24.7778C44.6111 23.9667 44.8 22.7667 44.8556 22.1C44.9444 21.0556 44.7333 20.7889 41.2333 17.4778C40.4222 16.7111 40.3778 16.4444 41.0778 16.4444C41.3111 16.4444 41.7778 16.3667 42.1111 16.2778C42.4444 16.1889 42.9778 16.1111 43.2778 16.1111C43.5889 16.1111 44.1333 16.0333 44.4778 15.9444C44.8333 15.8556 45.3111 15.7778 45.5333 15.7778C46.0111 15.7778 46.7556 15.4556 47.0111 15.1556C47.1111 15.0444 47.2667 14.7889 47.3667 14.6111C47.7333 13.9222 49.4333 10.3778 49.5556 10.0667C49.6667 9.75556 49.6778 9.75556 49.8889 9.94445C50.0111 10.0556 50.2 10.3444 50.3222 10.6Z" fill="url(#paint0_linear_34_147)"/>
<path d="M15.9222 20.9778C15.4111 21.1889 15.0222 21.5 14.8778 21.8333C14.7778 22.0556 14.7111 22.1889 14.4667 22.6111C14.3889 22.7333 14.3 22.9111 14.2667 23C14.1667 23.2333 13.7889 24.0222 13.6667 24.2222C13.6222 24.3111 13.2778 24.9889 12.9222 25.7222L12.2667 27.0556L11.7667 27.1333C11.5 27.1667 11.1333 27.2556 10.9667 27.3222C10.7889 27.3889 10.3444 27.4444 9.95556 27.4444C9.57778 27.4444 8.97778 27.5222 8.63333 27.6111C8.27778 27.7 7.81111 27.7778 7.58889 27.7778C6.98889 27.7778 5.86667 28.1111 5.57778 28.3778C4.87778 29 4.7 30.0444 5.15556 30.7556C5.3 30.9778 6.35556 32.0889 7.5 33.2222C9.52222 35.2111 9.57778 35.2778 9.52222 35.6667C9.43333 36.4444 9.21111 37.7333 9.08889 38.2222C9.02222 38.5 8.93333 39.0444 8.88889 39.4444C8.84445 39.8444 8.74445 40.4556 8.65556 40.8C8.53333 41.3667 8.53333 41.4778 8.72222 41.9111C8.83333 42.1778 9.1 42.5556 9.32222 42.7444C9.68889 43.0778 9.78889 43.1111 10.4778 43.1111C11.1222 43.1111 11.3333 43.0556 11.8667 42.7667C12.2111 42.5667 12.6556 42.3444 12.8333 42.2444C13.0222 42.1556 13.2444 42.0444 13.3333 41.9889C13.4222 41.9444 14.0556 41.6222 14.7222 41.2778C15.4 40.9333 15.9889 40.6 16.0556 40.5444C16.2444 40.3667 16.8444 40.4444 17.3444 40.7111C18.1 41.1222 19.1556 41.6778 20.6 42.4333C21.8111 43.0556 21.9667 43.1111 22.6222 43.1111C23.2778 43.1111 23.3667 43.0778 23.7667 42.7111C24.4889 42.0667 24.5556 41.5889 24.2222 39.5556C24.1667 39.2222 24.0667 38.6222 24 38.2222C23.9333 37.8222 23.8222 37.2444 23.7667 36.9444C23.7 36.6333 23.6222 36.1222 23.5889 35.8L23.5333 35.2L25.6667 33.1444C26.8333 32.0111 27.8889 30.8889 28 30.6556C28.4 29.8778 28.1778 28.8889 27.4778 28.3778C27.0333 28.0444 26.1556 27.7778 25.5444 27.7778C25.2556 27.7778 24.8778 27.7222 24.7 27.6556C24.5333 27.5889 23.9111 27.4889 23.3333 27.4444C22.7556 27.3889 21.9556 27.2778 21.5556 27.2L20.8333 27.0444L19.5 24.3667C18.7556 22.8889 18.0667 21.5778 17.9444 21.4444C17.4778 20.9222 16.5667 20.7111 15.9222 20.9778ZM16.8444 27.6333C16.8889 27.7444 17.1444 28.3111 17.4222 28.8889C18.1333 30.3778 18.5111 30.7 19.6111 30.8111C20.5 30.9111 21.7444 31.1444 21.8444 31.2444C21.8889 31.3 21.4222 31.8556 20.8 32.4889C20.1778 33.1222 19.6444 33.7667 19.6111 33.9222C19.5111 34.3 19.5889 35.5556 19.7778 36.5222C19.9778 37.5778 19.9 37.6778 19.1 37.2778C18.7667 37.1222 18.3556 36.8889 18.1667 36.7778C17.9889 36.6556 17.7889 36.5444 17.7222 36.5222C16.6333 36.1222 16.5667 36.1111 15.9667 36.3C15.6556 36.4 15.3333 36.5222 15.2667 36.5667C14.8111 36.9111 13.4 37.5556 13.3111 37.4667C13.1889 37.3444 13.2444 36.6222 13.4333 35.9444C13.5 35.7 13.5556 35.1444 13.5556 34.7111C13.5556 33.7667 13.3889 33.4889 12.0778 32.2556C11.1222 31.3778 11.0111 31.1111 11.5889 31.1111C11.8 31.1111 12.2111 31.0333 12.5111 30.9444C12.8111 30.8556 13.3111 30.7778 13.6222 30.7778C14.4444 30.7778 15.0222 30.2444 15.6889 28.8667C15.9667 28.3 16.2222 27.7444 16.2556 27.6333C16.3 27.5333 16.4333 27.4444 16.5556 27.4444C16.6778 27.4444 16.8111 27.5333 16.8444 27.6333Z" fill="url(#paint1_linear_34_147)"/>
<path d="M82.6667 20.8556C81.8333 21.1333 81.4 21.5222 81.0111 22.3333C80.8778 22.6111 80.7222 22.9111 80.6667 23C80.6222 23.0889 80.1556 24.0333 79.6445 25.0889C78.8667 26.6889 78.6778 27.0111 78.4445 27.0667C78.2889 27.1 77.8889 27.2 77.5445 27.2889C77.2111 27.3778 76.6556 27.4444 76.3222 27.4444C75.9889 27.4444 75.4222 27.5222 75.0778 27.6111C74.7222 27.7 74.2333 27.7778 73.9889 27.7778C73.4 27.7778 72.3667 28.0778 71.9778 28.3667C71.8 28.5 71.5778 28.8556 71.4333 29.2444C71.0333 30.3222 71.1667 30.5333 73.7333 33.0444L75.8889 35.1444V35.7778C75.8889 36.1222 75.8111 36.6556 75.7222 36.9556C75.6333 37.2556 75.5556 37.6778 75.5556 37.8889C75.5556 38.1 75.5 38.4556 75.4445 38.6667C75.3778 38.8778 75.2778 39.4 75.2111 39.8333C75.1556 40.2556 75.0778 40.8 75.0445 41.0222C74.9445 41.6111 75.2667 42.3778 75.7778 42.7778C76.1445 43.0667 76.2889 43.1111 76.9111 43.1111C77.4667 43.1111 77.7445 43.0444 78.1222 42.8444C78.3889 42.6889 79.0111 42.3667 79.5 42.1111C79.9889 41.8667 80.9111 41.3889 81.5445 41.0556C82.1778 40.7222 82.8111 40.4444 82.9556 40.4444C83.1 40.4444 83.7111 40.7 84.3 41.0111C84.9 41.3333 85.9667 41.8889 86.6667 42.2444C87.3667 42.6111 87.9889 42.9556 88.0556 43.0111C88.1111 43.0667 88.5 43.1111 88.9222 43.1111C89.5667 43.1111 89.7333 43.0667 90.0667 42.8222C90.2667 42.6667 90.5445 42.3556 90.6778 42.1444C90.8889 41.8111 90.9111 41.6556 90.8556 40.9111C90.8222 40.4333 90.7445 39.9 90.6778 39.7222C90.5667 39.3778 90.3778 38.3333 90.2222 37.1667C90.1667 36.8 90.0667 36.2333 89.9889 35.9L89.8556 35.3L92.0222 33.1778C93.2111 32.0111 94.2667 30.9222 94.3667 30.7556C94.7889 30.0667 94.5333 28.8222 93.8778 28.3556C93.4778 28.0778 92.4556 27.7778 91.8667 27.7778C91.5778 27.7778 91.2111 27.7222 91.0333 27.6556C90.8667 27.5889 90.2778 27.4889 89.7222 27.4444C88.6889 27.3444 87.4778 27.1111 87.2667 26.9778C87.2 26.9333 86.9333 26.4556 86.6667 25.9222C86.4111 25.3778 86.1556 24.8667 86.1111 24.7778C86.0556 24.6889 85.8333 24.2333 85.6111 23.7778C85.3889 23.3222 85.1556 22.8667 85.1 22.7778C85.0445 22.6889 84.9667 22.5333 84.9333 22.4444C84.8 22.0889 84.5111 21.6 84.3333 21.4333C83.9333 21.0333 83.0333 20.7222 82.6667 20.8556ZM83.3778 27.9222C84.1778 29.7444 84.4333 30.1444 85 30.5C85.2889 30.6778 85.6 30.7778 85.9111 30.7778C86.1778 30.7778 86.6333 30.8556 86.9333 30.9444C87.2333 31.0333 87.6445 31.1111 87.8445 31.1111C88.0445 31.1111 88.2445 31.1667 88.2889 31.2333C88.3333 31.3111 87.9445 31.7556 87.3667 32.3222C86.8222 32.8444 86.2667 33.4556 86.1333 33.6778C85.8445 34.1667 85.8111 34.9667 86.0556 35.6667C86.2333 36.1778 86.2778 37.3889 86.1222 37.4889C86.0778 37.5222 85.7667 37.4 85.4333 37.2333C84.4778 36.7222 83.9778 36.4889 83.4556 36.2889C83 36.1111 82.9333 36.1111 82.4 36.3C82.0889 36.4 81.7556 36.5444 81.6667 36.6111C81.2556 36.9111 79.7778 37.5667 79.6778 37.5C79.5111 37.4 79.5222 37 79.7 36.4889C79.9222 35.8556 80.0222 34.5 79.8889 33.9889C79.7889 33.6444 79.5 33.2778 78.6556 32.4444C78.0445 31.8333 77.5667 31.2889 77.6111 31.2222C77.6445 31.1667 77.8445 31.1111 78.0333 31.1111C78.2333 31.1111 78.6333 31.0333 78.9333 30.9444C79.2333 30.8556 79.7222 30.7778 80.0111 30.7778C80.8556 30.7778 81.3667 30.3111 82.0778 28.9C82.9333 27.2222 83.0333 27.1444 83.3778 27.9222Z" fill="url(#paint2_linear_34_147)"/>
<path d="M47.6111 38.6111C47.3667 38.7 46.9778 38.7778 46.7333 38.7778C46.2444 38.7778 45 39.1556 43.9444 39.6111C41.6889 40.5889 40.3333 41.5222 38.6444 43.2667C38.0444 43.8778 37.5555 44.4111 37.5555 44.4556C37.5555 44.5 37.4889 44.6111 37.4111 44.6889C37.2667 44.8222 36.8222 45.4778 36.4778 46.0556C36.1555 46.6 35.2222 48.5778 35.2222 48.7222C35.2222 48.8111 35.1555 49.0445 35.0667 49.2445C34.5444 50.5 34.1778 53.3778 34.3444 55.0222C34.5111 56.6778 34.6222 57.3667 34.7555 57.7C34.8333 57.8778 34.8889 58.1445 34.8889 58.3111C34.8889 58.4778 34.9667 58.7111 35.0555 58.8222C35.1444 58.9445 35.2222 59.1333 35.2222 59.2445C35.2222 59.5 36.2 61.5556 36.6 62.1445C36.7555 62.3778 36.8889 62.5889 36.8889 62.6222C36.8889 62.7889 38.0667 64.1778 38.9667 65.0778C40.2778 66.3889 41.3222 67.1667 42.5222 67.7222C42.7111 67.8111 42.9 67.9333 42.9444 68C42.9778 68.0556 43.1 68.1111 43.2111 68.1111C43.3222 68.1111 43.4778 68.1778 43.5444 68.2667C43.6111 68.3556 43.8111 68.4445 43.9778 68.4778C44.1444 68.5111 44.6555 68.6667 45.1111 68.8222C46.3889 69.2556 47.1111 69.4445 47.4444 69.4445C47.8555 69.4445 48.1222 69.5556 48.0444 69.6778C48.0111 69.7333 47.8333 69.7778 47.6333 69.7778C47.3111 69.7778 46.6889 69.8778 45 70.2222C43.7555 70.4667 43.4 70.5556 43.2889 70.6667C43.2222 70.7333 43.0555 70.7778 42.9111 70.7778C42.6889 70.7778 41.8111 71.0889 40.6111 71.6C40.2667 71.7445 38.7 72.5222 38.3555 72.7222C37.3889 73.2778 36.9333 73.5778 36.1667 74.1445C34.4 75.4778 33.0222 76.7667 31.9444 78.0889C31.6444 78.4667 31.3111 78.7778 31.2222 78.7778C31.1333 78.7778 30.8111 78.5445 30.5 78.2667C30.2 77.9889 29.8222 77.6778 29.6667 77.5778C29.5111 77.4778 29.1111 77.2 28.7778 76.9445C28.0667 76.4333 27.9333 76.3556 26.6667 75.6889C25.7778 75.2333 25.2444 75 24.5 74.7778C24.3222 74.7111 24.0667 74.6222 23.9444 74.5778C23.4444 74.3556 22.5889 74.1111 22.3222 74.1111C22.1555 74.1111 21.8444 74.0333 21.6333 73.9445C21.4111 73.8556 20.9889 73.7778 20.7 73.7667C20.4111 73.7667 20.0666 73.7222 19.9444 73.6778C19.7444 73.6 19.7444 73.5778 20.0555 73.4111C20.2444 73.3222 20.6444 73.1889 20.9444 73.1333C21.7444 72.9778 23.1222 72.4111 24.0555 71.8556C25.4 71.0556 27.0444 69.4667 27.9111 68.1222C28.3555 67.4333 29.2222 65.5111 29.2222 65.2C29.2222 65.0889 29.3111 64.8333 29.4111 64.6333C29.5778 64.3333 29.6 63.9333 29.6 61.8333C29.6 59.7333 29.5778 59.3333 29.4111 59.0333C29.3111 58.8333 29.2222 58.5778 29.2222 58.4556C29.2222 58.2222 29.0889 57.8778 28.5 56.6556C27.4 54.3556 25.3555 52.3556 22.9444 51.2222C22.1889 50.8667 22.0444 50.8111 21 50.5445C20.7222 50.4778 20.3 50.3667 20.0555 50.2889C19.4778 50.1333 16.6333 50.1333 16.0555 50.2889C15.8111 50.3667 15.3889 50.4778 15.1111 50.5445C14.0666 50.8111 13.9222 50.8667 13.1666 51.2222C11.5222 51.9889 9.75554 53.4111 8.73332 54.7778C8.16665 55.5333 8.09998 55.6445 7.63332 56.6111C7.03332 57.8445 6.88887 58.2111 6.88887 58.4556C6.88887 58.5778 6.79998 58.8333 6.69998 59.0333C6.53332 59.3333 6.51109 59.7333 6.51109 61.8333C6.51109 63.9333 6.53332 64.3333 6.69998 64.6333C6.79998 64.8333 6.88887 65.0889 6.88887 65.2111C6.88887 65.6 8.06665 68.0556 8.53332 68.6556C9.13332 69.4111 10.2889 70.6 10.8666 71.0445C12.1333 72.0111 13.9222 72.8889 15.1666 73.1333C15.4666 73.1889 15.8666 73.3222 16.0555 73.4111C16.3666 73.5778 16.3666 73.6 16.1666 73.6778C16.0444 73.7222 15.7222 73.7667 15.4444 73.7667C15.1666 73.7778 14.7222 73.8445 14.4444 73.9333C14.1666 74.0222 13.7222 74.1445 13.4444 74.2222C11.7889 74.6333 10.1 75.3333 8.83332 76.1111C8.65554 76.2333 8.38887 76.3889 8.25554 76.4667C7.61109 76.8445 6.67776 77.5333 6.23332 77.9333C5.05554 79.0222 3.22221 80.9778 3.22221 81.1556C3.22221 81.1778 2.99998 81.5333 2.72221 81.9333C2.44443 82.3445 2.22221 82.7111 2.22221 82.7667C2.22221 82.8222 2.14443 82.9222 2.05554 83C1.96665 83.0778 1.88887 83.2 1.88887 83.2889C1.88887 83.3667 1.74443 83.6889 1.55554 84C1.37776 84.3111 1.22221 84.6333 1.22221 84.7222C1.22221 84.8 1.15554 85.0111 1.06665 85.1889C0.855538 85.6222 0.66665 86.2 0.544427 86.7556C0.488872 87.0111 0.399983 87.3222 0.333316 87.4333C0.277761 87.5556 0.222205 87.9 0.222205 88.2111C0.222205 88.5111 0.16665 88.8 0.111094 88.8333C0.0444273 88.8778 -1.71661e-05 90.1667 -1.71661e-05 92.3333V95.7556L0.488872 96.3L0.977761 96.8333H49.8889H98.8L99.3111 96.2778C99.5889 95.9667 99.8555 95.7333 99.9111 95.7556C99.9555 95.7667 100 94.2667 100 92.4111C100 89.1778 99.9889 89.0445 99.7778 88.9111C99.6 88.8111 99.5555 88.6556 99.5555 88.2111C99.5555 87.9 99.5 87.5556 99.4444 87.4333C99.3778 87.3222 99.2889 87.0111 99.2333 86.7556C99.1111 86.2 98.9222 85.6222 98.7111 85.1889C98.6222 85.0111 98.5555 84.8 98.5555 84.7222C98.5555 84.6333 98.4111 84.3111 98.2222 84C98.0444 83.6889 97.8889 83.3667 97.8889 83.2889C97.8889 83.2 97.8111 83.0778 97.7222 83C97.6333 82.9222 97.5555 82.8222 97.5555 82.7667C97.5555 82.7111 97.3333 82.3445 97.0555 81.9333C96.7778 81.5333 96.5555 81.1778 96.5555 81.1556C96.5555 80.9778 94.7222 79.0222 93.5444 77.9333C93.1 77.5333 92.1667 76.8445 91.5222 76.4667C91.3889 76.3889 91.1333 76.2333 90.9444 76.1111C89.6778 75.3333 87.9889 74.6333 86.3333 74.2222C86.0555 74.1445 85.6111 74.0222 85.3333 73.9333C85.0555 73.8445 84.6111 73.7778 84.3333 73.7667C84.0555 73.7667 83.7333 73.7222 83.6111 73.6778C83.4111 73.6 83.4111 73.5778 83.7222 73.4111C83.9111 73.3222 84.3111 73.1889 84.6111 73.1333C85.8555 72.8889 87.6444 72.0111 88.9111 71.0445C89.4889 70.6 90.6444 69.4111 91.2444 68.6556C91.7111 68.0556 92.8889 65.6 92.8889 65.2111C92.8889 65.0889 92.9778 64.8333 93.0778 64.6333C93.2444 64.3333 93.2667 63.9333 93.2667 61.8333C93.2667 59.7333 93.2444 59.3333 93.0778 59.0333C92.9778 58.8333 92.8889 58.5778 92.8889 58.4556C92.8889 58.2111 92.7444 57.8445 92.1444 56.6111C91.6778 55.6445 91.6111 55.5333 91.0444 54.7778C90.0222 53.4111 88.2333 51.9778 86.6111 51.2222C85.8555 50.8667 85.7111 50.8111 84.6667 50.5445C84.3889 50.4778 83.9667 50.3667 83.7222 50.2889C83.1444 50.1333 80.3 50.1333 79.7222 50.2889C79.4778 50.3667 79.0555 50.4778 78.7778 50.5445C77.7333 50.8111 77.5889 50.8667 76.8333 51.2222C74.4222 52.3556 72.3778 54.3556 71.2778 56.6556C70.6889 57.8778 70.5555 58.2222 70.5555 58.4556C70.5555 58.5778 70.4667 58.8333 70.3667 59.0333C70.2 59.3333 70.1778 59.7333 70.1778 61.8333C70.1778 63.9333 70.2 64.3333 70.3667 64.6333C70.4667 64.8333 70.5555 65.0889 70.5555 65.2111C70.5555 65.6556 71.5889 67.7778 72.2778 68.7222C72.9778 69.7 74.6555 71.2222 75.7222 71.8556C76.6667 72.4111 78.0555 72.9889 78.8 73.1111C79.0778 73.1667 79.4778 73.2889 79.6778 73.4C80.0222 73.5667 80.0333 73.6 79.8333 73.6778C79.7111 73.7222 79.3667 73.7667 79.0778 73.7667C78.7889 73.7778 78.3667 73.8556 78.1444 73.9445C77.9333 74.0333 77.6222 74.1111 77.4555 74.1111C77.1889 74.1111 76.3889 74.3333 75.8333 74.5667C75.6 74.6667 74.8222 74.9445 74.3333 75.1C74.0778 75.1889 72.5555 75.9556 71.8889 76.3445C71.7333 76.4333 71.3333 76.7 71 76.9445C70.6667 77.2 70.2667 77.4778 70.1111 77.5778C69.9555 77.6778 69.5889 77.9889 69.2778 78.2667C68.9778 78.5445 68.6444 78.7778 68.5555 78.7778C68.4667 78.7778 68.1444 78.4667 67.8333 78.0778C66.5555 76.4889 63.9444 74.2222 62.1667 73.1556C61.8667 72.9778 61.5111 72.7667 61.3889 72.7C61.0667 72.5 59.5555 71.7667 59.1444 71.5889C58.9444 71.5111 58.6111 71.3778 58.4222 71.2889C57.6555 70.9556 57.1 70.7778 56.8555 70.7778C56.7111 70.7778 56.5444 70.7222 56.4667 70.6445C56.4 70.5778 56.1333 70.4778 55.8667 70.4333C55.2778 70.3222 54.4 70.1445 53.3889 69.9333C52.9667 69.8445 52.4222 69.7778 52.2 69.7778C51.7667 69.7778 51.5555 69.6222 51.8444 69.5111C51.9444 69.4778 52.1555 69.4445 52.3333 69.4445C52.6667 69.4445 53.3889 69.2556 54.6667 68.8222C55.1222 68.6667 55.6333 68.5111 55.8 68.4778C55.9667 68.4445 56.1667 68.3556 56.2333 68.2667C56.3 68.1778 56.4555 68.1111 56.5667 68.1111C56.6778 68.1111 56.8 68.0556 56.8333 68C56.8778 67.9333 57.0667 67.8111 57.2555 67.7222C58.4555 67.1667 59.4555 66.4111 60.8 65.0889C61.7111 64.1778 62.8889 62.7889 62.8889 62.6222C62.8889 62.5889 63.0222 62.3778 63.1778 62.1445C63.5778 61.5556 64.5555 59.5 64.5555 59.2445C64.5555 59.1333 64.6333 58.9445 64.7222 58.8222C64.8111 58.7111 64.8889 58.4778 64.8889 58.3111C64.8889 58.1445 64.9444 57.8778 65.0222 57.7C65.1555 57.3667 65.2667 56.6778 65.4333 55.0222C65.6 53.3778 65.2333 50.5 64.7111 49.2445C64.6222 49.0445 64.5555 48.8111 64.5555 48.7222C64.5555 48.5778 63.6222 46.6 63.3 46.0556C62.9555 45.4778 62.5111 44.8222 62.3667 44.6889C62.2889 44.6111 62.2222 44.5 62.2222 44.4556C62.2222 44.4111 61.7333 43.8778 61.1444 43.2667C59.4444 41.5222 58.0889 40.5889 55.8333 39.6111C54.7778 39.1556 53.5333 38.7778 53.0444 38.7778C52.8 38.7778 52.4111 38.7 52.1667 38.6111C51.8444 38.5 51.2 38.4556 49.8889 38.4556C48.5778 38.4556 47.9333 38.5 47.6111 38.6111ZM52.7555 42.6222C53.5333 42.8445 54.1778 43.0889 54.5778 43.2889C54.7333 43.3778 54.9222 43.4445 54.9889 43.4445C55.0444 43.4445 55.3222 43.5889 55.5889 43.7778C55.8667 43.9556 56.1222 44.1111 56.1667 44.1111C56.3444 44.1111 57.5667 45.1556 58.3333 45.9556C59.3111 46.9778 59.6444 47.4111 60.0444 48.1667C60.2111 48.4667 60.3889 48.8 60.4333 48.8889C60.8 49.5667 60.8889 49.7778 60.8889 49.9667C60.8889 50.0889 60.9667 50.2778 61.0555 50.4C61.1444 50.5111 61.2222 50.7667 61.2222 50.9556C61.2222 51.1445 61.3 51.5222 61.3889 51.7778C61.5778 52.3222 61.6333 55.7667 61.4444 56.1C61.3889 56.2111 61.2889 56.5778 61.2333 56.9C61.1333 57.5 60.8444 58.3556 60.5444 58.9111C60.4555 59.0778 60.2667 59.4445 60.1222 59.7445C59.9667 60.0333 59.6222 60.5778 59.3555 60.9445C58.7667 61.7333 57.0778 63.4 56.7778 63.5C56.6555 63.5445 56.5555 63.6111 56.5555 63.6667C56.5555 63.7111 56.4667 63.7778 56.3667 63.8222C56.2555 63.8556 56.0222 63.9889 55.8333 64.1C54.9778 64.6667 53.4667 65.2556 52.4444 65.4445C52.1667 65.5 51.7444 65.5889 51.5 65.6556C50.9222 65.8111 48.8555 65.8111 48.2778 65.6556C48.0333 65.5889 47.6111 65.5 47.3333 65.4445C46.3111 65.2556 44.8 64.6667 43.9444 64.1C43.7667 63.9889 43.5222 63.8556 43.4222 63.8222C43.3111 63.7778 43.2222 63.7111 43.2222 63.6667C43.2222 63.6111 43.1222 63.5445 43 63.5C42.7 63.4 41.0111 61.7333 40.4222 60.9445C40.1555 60.5778 39.8111 60.0333 39.6555 59.7445C39.5111 59.4445 39.3222 59.0778 39.2333 58.9111C38.9333 58.3556 38.6444 57.5 38.5444 56.9C38.4889 56.5778 38.3889 56.2111 38.3333 56.1C38.1444 55.7667 38.2 52.3222 38.3889 51.7778C38.4778 51.5222 38.5555 51.1445 38.5555 50.9556C38.5555 50.7667 38.6333 50.5111 38.7222 50.4C38.8111 50.2778 38.8889 50.0889 38.8889 49.9667C38.8889 49.7778 38.9778 49.5667 39.3444 48.8889C39.3889 48.8 39.5667 48.4667 39.7333 48.1667C40.1333 47.4111 40.4667 46.9778 41.4444 45.9556C42.2111 45.1556 43.4333 44.1111 43.6111 44.1111C43.6555 44.1111 43.9111 43.9556 44.1889 43.7778C44.4555 43.5889 44.7333 43.4445 44.7889 43.4445C44.8555 43.4445 45.0111 43.3889 45.1444 43.3111C45.7667 42.9667 47.1333 42.5556 48.0555 42.4333C49.1555 42.3 52.0222 42.4111 52.7555 42.6222ZM20 54.2778C20.1555 54.3667 20.3889 54.4333 20.5333 54.4445C20.8 54.4445 22.0333 55.0667 22.5889 55.4889C23.5555 56.1889 24.8889 57.7556 24.8889 58.1556C24.8889 58.2445 24.9555 58.3667 25.0333 58.4333C25.1222 58.5 25.2778 58.8445 25.3889 59.1889C25.4889 59.5445 25.6333 59.9556 25.7 60.1111C25.8667 60.5333 25.9222 62.5445 25.7889 63.0778C25.7222 63.3445 25.6111 63.7556 25.5555 64C25.3 65 24.5667 66.2667 23.7 67.1778C21.9444 69.0333 19.7 69.8222 17.0555 69.5333C14.8 69.2778 12.7555 68 11.5 66.0556C11.1555 65.5333 10.5555 64.2333 10.5555 64.0222C10.5555 63.9222 10.4778 63.6333 10.3889 63.3889C10.1778 62.8 10.1778 60.8667 10.3889 60.2778C10.4778 60.0333 10.5555 59.7445 10.5555 59.6445C10.5555 59.4 11.1666 58.1222 11.6444 57.3889C12.4555 56.1111 14.1333 54.8889 15.8889 54.3C16.5889 54.0667 19.6 54.0556 20 54.2778ZM83.8222 54.2889C85.6 54.8556 87.3 56.0778 88.1333 57.3889C88.6111 58.1222 89.2222 59.4 89.2222 59.6445C89.2222 59.7445 89.3 60.0333 89.3889 60.2778C89.6 60.8667 89.6 62.8 89.3889 63.3889C89.3 63.6333 89.2222 63.9222 89.2222 64.0222C89.2222 64.2333 88.6222 65.5333 88.2778 66.0556C87.6778 66.9778 86.6555 67.9778 85.7667 68.5C84.7 69.1222 83.8667 69.4 82.7222 69.5333C80.0778 69.8222 77.8222 69.0333 76.0778 67.1778C75.2111 66.2667 74.4778 65 74.2222 64C74.1667 63.7556 74.0555 63.3445 73.9889 63.0778C73.8555 62.5445 73.9111 60.5333 74.0778 60.1111C74.1444 59.9556 74.2889 59.5445 74.3889 59.1889C74.5 58.8445 74.6555 58.5 74.7444 58.4333C74.8222 58.3667 74.8889 58.2445 74.8889 58.1556C74.8889 57.7556 76.2222 56.1889 77.1889 55.4889C77.7444 55.0667 78.9778 54.4445 79.2444 54.4445C79.3889 54.4333 79.6222 54.3667 79.7778 54.2778C80.2 54.0445 83.0555 54.0445 83.8222 54.2889ZM52.8889 73.7556C53.3444 73.8 53.8333 73.9 53.9667 73.9778C54.1 74.0445 54.3444 74.1111 54.5222 74.1111C55.1 74.1111 56.9555 74.8111 58.7111 75.6778C59.6778 76.1667 60.1667 76.4556 61.7667 77.5445C62.4667 78.0222 64.8333 80.4667 65.6444 81.5556C66.4444 82.6445 66.8222 83.2667 67.4778 84.6111C68.0555 85.8 68.2222 86.2111 68.2222 86.4222C68.2222 86.5222 68.3 86.7111 68.3889 86.8222C68.4778 86.9445 68.5555 87.1667 68.5555 87.3222C68.5667 87.4778 68.6333 87.7333 68.7222 87.8889C68.8111 88.0445 68.8778 88.2889 68.8889 88.4445C68.8889 88.5889 68.9555 88.9111 69.0444 89.1667C69.2667 89.7889 69.4667 92.9111 69.3 93.0222C69.1222 93.1333 30.6444 93.1333 30.4778 93.0222C30.3222 92.9222 30.5667 89.3889 30.7667 89.0222C30.8333 88.9 30.8889 88.6556 30.8889 88.4778C30.9 88.3111 30.9667 88.0445 31.0555 87.8889C31.1444 87.7333 31.2111 87.5 31.2222 87.3667C31.2222 87.2333 31.2889 86.9556 31.3778 86.7556C31.4667 86.5556 31.6222 86.1667 31.7333 85.8889C31.9222 85.3778 32.5778 84.0111 32.8111 83.6111C33.8555 81.8111 34.6778 80.7556 36.1555 79.2778C36.8333 78.6 37.5444 77.9445 37.7222 77.8C37.9111 77.6667 38.2889 77.3889 38.5667 77.1778C39.5555 76.4333 41.3667 75.4556 42.6667 74.9445C44.0333 74.4111 45 74.1111 45.3333 74.1111C45.4889 74.1 45.7333 74.0333 45.8889 73.9445C46.0444 73.8556 46.4444 73.7778 46.7778 73.7778C47.1111 73.7667 47.6111 73.7222 47.8889 73.6667C48.4222 73.5667 51.5222 73.6222 52.8889 73.7556ZM20.0778 77.5667C20.2444 77.6333 20.6667 77.7333 21 77.7778C21.7889 77.9 22.5333 78.1 22.9111 78.2889C23.0667 78.3778 23.2889 78.4445 23.3889 78.4445C23.4889 78.4445 23.7111 78.5111 23.8667 78.5889C24.0333 78.6778 24.3667 78.8333 24.6111 78.9556C25.0222 79.1445 26.0111 79.7222 26.6 80.1111C27.1444 80.4667 28.0444 81.2445 28.5222 81.7778C29.0778 82.4 29.0778 82.3889 28.5667 83.5C28.1444 84.4 27.7222 85.5222 27.5667 86.1667C27.5222 86.3556 27.4222 86.6111 27.3555 86.7445C27.2778 86.8778 27.2222 87.1445 27.2222 87.3333C27.2222 87.5222 27.1444 87.8556 27.0555 88.0778C26.9667 88.2889 26.8889 88.6556 26.8889 88.8778C26.8889 89.1 26.8222 89.4778 26.7555 89.7222C26.6889 89.9667 26.6 90.8111 26.5667 91.6111L26.5 93.0556H15.1666H3.83332L3.86665 91.0111C3.89998 89.6333 3.95554 88.8222 4.06665 88.5222C4.15554 88.2778 4.22221 87.9445 4.22221 87.7667C4.22221 87.6 4.26665 87.4333 4.32221 87.3889C4.37776 87.3556 4.46665 87.1667 4.49998 86.9667C4.54443 86.7778 4.64443 86.4889 4.72221 86.3333C4.79998 86.1778 5.03332 85.7 5.24443 85.2778C5.69998 84.3333 6.33332 83.3556 6.65554 83.0667C6.77776 82.9445 6.88887 82.8 6.88887 82.7445C6.88887 82.6333 8.44443 81.1111 9.19998 80.4778C9.63332 80.1111 11.8333 78.7778 12 78.7778C12.0555 78.7778 12.2333 78.7111 12.4111 78.6222C12.9222 78.3667 14.1333 78 15.6111 77.6333C16.4333 77.4333 19.6111 77.3889 20.0778 77.5667ZM84.0555 77.6222C85.5222 77.9556 86.8111 78.3556 87.3667 78.6222C87.5444 78.7111 87.7222 78.7778 87.7778 78.7778C87.9444 78.7778 90.1444 80.1111 90.5778 80.4778C91.3333 81.1111 92.8889 82.6333 92.8889 82.7445C92.8889 82.8 93 82.9445 93.1222 83.0667C93.4444 83.3556 94.0778 84.3333 94.5333 85.2778C94.7444 85.7 94.9889 86.1889 95.0667 86.3556C95.1555 86.5111 95.2222 86.7445 95.2222 86.8556C95.2222 86.9778 95.3 87.1667 95.3889 87.2889C95.4778 87.4 95.5555 87.6333 95.5555 87.7889C95.5555 87.9556 95.6222 88.2778 95.7111 88.5222C95.8222 88.8222 95.8778 89.6333 95.9111 91.0111L95.9444 93.0556H84.6111H73.2778L73.2111 91.6111C73.1778 90.8111 73.0889 89.9667 73.0222 89.7222C72.9555 89.4778 72.8889 89.1 72.8889 88.8778C72.8889 88.6556 72.8111 88.2889 72.7222 88.0778C72.6333 87.8556 72.5555 87.5222 72.5555 87.3333C72.5555 87.1445 72.5 86.8778 72.4222 86.7445C72.3555 86.6111 72.2555 86.3556 72.2111 86.1667C72.0555 85.5222 71.6333 84.4 71.2111 83.5C70.7 82.3889 70.7 82.4 71.2555 81.7778C71.7333 81.2445 72.6333 80.4667 73.1778 80.1111C73.7667 79.7222 74.7555 79.1445 75.1667 78.9556C75.4111 78.8333 75.7444 78.6778 75.9111 78.5889C76.0667 78.5111 76.2889 78.4445 76.3889 78.4445C76.4889 78.4445 76.7111 78.3778 76.8667 78.2889C77.2333 78.1 77.9667 77.9111 78.7889 77.7778C79.1222 77.7222 79.5222 77.6222 79.6778 77.5667C80.1333 77.3778 83.1778 77.4222 84.0555 77.6222Z" fill="url(#paint3_linear_34_147)"/>
<path d="M49.1556 77.6556C47.9444 78.2 47.6333 79.6889 48.5111 80.6667C49.2444 81.4778 50.5333 81.4778 51.2667 80.6667C51.9 79.9667 51.9444 79 51.3778 78.2556C51.0556 77.8333 50.3444 77.4444 49.8889 77.4444C49.7333 77.4444 49.4 77.5444 49.1556 77.6556Z" fill="url(#paint4_linear_34_147)"/>
<path d="M56.1111 80.3111L55.5556 80.8445V81.6333C55.5556 82.5556 55.6889 82.7778 56.7889 83.6222C58.1 84.6333 59.5444 86.2445 60.0556 87.2778C60.7111 88.6 61.4444 89.1667 62.4111 89.0889C63.2222 89.0222 63.7444 88.5889 64.0222 87.7778C64.2222 87.2 64.2222 87.1445 64.0444 86.6667C63.3333 84.7778 61.3444 82.2222 59.4444 80.7778C58.3111 79.9222 58.0111 79.7778 57.2778 79.7778C56.7 79.7778 56.6333 79.8 56.1111 80.3111Z" fill="url(#paint5_linear_34_147)"/>
</g>
<defs>
<linearGradient id="paint0_linear_34_147" x1="49.7963" y1="33.1278" x2="49.7963" y2="3.3447" gradientUnits="userSpaceOnUse">
<stop stop-color="#FF8B38"/>
<stop offset="1" stop-color="#FF6B00"/>
</linearGradient>
<linearGradient id="paint1_linear_34_147" x1="16.5512" y1="43.1111" x2="16.5512" y2="20.8622" gradientUnits="userSpaceOnUse">
<stop stop-color="#FF8B38"/>
<stop offset="1" stop-color="#FF6B00"/>
</linearGradient>
<linearGradient id="paint2_linear_34_147" x1="82.9181" y1="43.1111" x2="82.9181" y2="20.8242" gradientUnits="userSpaceOnUse">
<stop stop-color="#FF8B38"/>
<stop offset="1" stop-color="#FF6B00"/>
</linearGradient>
<linearGradient id="paint3_linear_34_147" x1="50" y1="96.8333" x2="50" y2="38.4556" gradientUnits="userSpaceOnUse">
<stop stop-color="#FF8B38"/>
<stop offset="1" stop-color="#FF6B00"/>
</linearGradient>
<linearGradient id="paint4_linear_34_147" x1="49.8918" y1="81.275" x2="49.8918" y2="77.4444" gradientUnits="userSpaceOnUse">
<stop stop-color="#FF8B38"/>
<stop offset="1" stop-color="#FF6B00"/>
</linearGradient>
<linearGradient id="paint5_linear_34_147" x1="59.8653" y1="89.0959" x2="59.8653" y2="79.7778" gradientUnits="userSpaceOnUse">
<stop stop-color="#FF8B38"/>
<stop offset="1" stop-color="#FF6B00"/>
</linearGradient>
<clipPath id="clip0_34_147">
<rect width="100" height="100" fill="white"/>
</clipPath>
</defs>
</svg>
