<svg width="100" height="100" viewBox="0 0 100 100" fill="none" xmlns="http://www.w3.org/2000/svg">
<g clip-path="url(#clip0_51_6)">
<path d="M49.6094 0.244141L52.1973 0.292969L54.3945 0.439453L56.2988 0.634766L58.3008 0.927734L60.4004 1.31836L62.5 1.80664L64.5996 2.39258L66.2109 2.92969L67.334 3.32031L69.1895 4.05273L70.6543 4.6875L71.8262 5.22461L72.7539 5.71289L74.0723 6.39648L75.2441 7.08008L76.0742 7.56836L77.002 8.1543L78.3203 9.0332L79.1504 9.61914L80.0781 10.3027L80.957 10.9863L81.7383 11.6211L82.2754 12.0605L82.7637 12.5L83.3008 12.9395L84.1309 13.7207L84.7656 14.3066L86.2305 15.7715V15.8691H86.3281L86.6699 16.2598L87.0117 16.6016L87.3535 16.9922L88.5254 18.3594L89.1602 19.1406L89.7949 19.9707L90.2832 20.6055L90.8691 21.4355L91.5527 22.4121L91.9434 22.998L92.627 24.0723L93.0664 24.8047L93.6523 25.8301L93.9453 26.3184L94.2871 27.002L94.7754 27.9297L95.4102 29.248L96.1914 31.0059L96.9238 32.8613L97.4609 34.375L98.0957 36.4258L98.6328 38.4766L99.0234 40.1855L99.4141 42.334L99.707 44.4824L99.9023 46.3379H100V54.0527H99.9023L99.707 56.0059L99.4141 58.2031L99.0723 60.1074L98.6816 61.9141L98.1445 63.9648L97.5586 65.918L96.8262 67.9688L96.2402 69.4336L95.8008 70.459L94.9219 72.3633L94.3848 73.3887L94.043 74.0723L93.4082 75.1953L92.9199 76.0254L92.5293 76.6602L91.8457 77.7344L91.3574 78.4668L90.3809 79.834L89.5996 80.8594L89.1602 81.4453L88.5742 82.1289L88.1836 82.6172L87.5977 83.3008L86.9629 83.9844L86.6211 84.375L85.8887 85.1562L84.5215 86.5234L84.1309 86.8652L83.3496 87.5977L82.666 88.1836L81.9336 88.8184L81.1523 89.4531L80.3223 90.0879L79.3945 90.7715L78.5156 91.4062L77.6367 91.9922L76.6602 92.627L75.7812 93.1641L74.707 93.7988L73.291 94.5801L71.2402 95.6055L69.8242 96.2402L67.7734 97.0703L66.0156 97.7051L64.1602 98.291L62.1582 98.8281L60.2539 99.2676L58.0078 99.707L57.7637 99.6582V64.8438L57.8125 64.7949H69.3848L69.4336 64.3066L70.0195 60.5469L70.6543 56.3477L71.1914 52.9297L71.5332 50.6836L71.582 50.4395H57.8125L57.7637 50.3906V40.2344L57.9102 39.1113L58.1543 38.1348L58.4473 37.3535L58.8379 36.5723L59.2285 36.0352L59.5703 35.5957L60.2051 34.9609L60.8887 34.4727L61.9141 33.9355L62.9395 33.5938L64.1602 33.3496L65.4297 33.252H72.1191V27.1484L72.168 21.0449L69.6777 20.7031L67.5781 20.459L65.332 20.2637L62.7441 20.1172H59.668L57.959 20.2637L56.3477 20.5078L54.6875 20.8984L53.0762 21.4355L51.8066 21.9727L50.6836 22.5586L49.7559 23.1445L49.0723 23.6328L48.3887 24.1699L47.9004 24.6094L47.168 25.293L47.1191 25.3906H47.0215L46.9238 25.5859L46.3867 26.1719L45.9473 26.7578L45.459 27.4414L44.8242 28.4668L44.2383 29.5898L43.7012 30.8594L43.2129 32.3242L42.7734 34.082L42.5781 35.1562L42.4316 36.1816L42.2852 38.1836L42.2363 50.3906L42.1875 50.4395H29.5898V63.9648L29.541 64.7949H42.1387L42.2363 64.8926V99.707L41.7969 99.6582L39.7461 99.2676L37.5977 98.7793L35.2051 98.0957L33.3984 97.5098L31.3477 96.7285L29.9805 96.1426L29.1016 95.752L27.8809 95.166L27.0996 94.7754L25.9766 94.1895L24.8535 93.5547L23.877 92.9688L22.9492 92.3828L22.2168 91.8945L21.4355 91.3574L20.6055 90.7715L19.8242 90.1855L19.1406 89.6484L18.5059 89.1602L17.1387 87.9883L16.6504 87.5488L16.2598 87.207L15.5273 86.5234L14.8926 85.9375L14.4043 85.4492V85.3516H14.3066L13.9648 84.9609L13.1836 84.1797L12.7441 83.6426L12.4023 83.3008L12.0605 82.9102L11.377 82.0801L10.8398 81.4453L10.2539 80.6641L9.57031 79.7852L8.93555 78.8574L8.44727 78.1738L7.8125 77.1973L7.08008 76.0254L6.39648 74.8535L5.76172 73.6816L5.17578 72.5586L4.49219 71.1426L3.80859 69.5801L3.22266 68.1152L2.58789 66.3574L1.95312 64.3555L1.36719 62.1582L0.976562 60.4004L0.683594 58.8379L0.341797 56.543L0.0488281 53.7598L0 53.5156V46.8262L0.0976562 46.2402L0.341797 43.9453L0.683594 41.6992L1.02539 39.8926L1.51367 37.793L2.09961 35.7422L2.58789 34.2285L3.17383 32.5684L3.75977 31.1035L4.39453 29.6387L5.07812 28.2227L5.46875 27.4414L6.15234 26.123L6.83594 24.9512L7.42188 23.9746L7.91016 23.2422L8.39844 22.4609L8.98438 21.6309L9.61914 20.752L10.1562 20.0195L10.5469 19.5312L11.0352 18.8965L11.4746 18.3594L12.1094 17.627L12.5 17.1387H12.5977L12.6953 16.9434L13.1348 16.4551L13.3789 16.1621H13.4766L13.5742 15.9668L15.918 13.623L16.3086 13.2812L16.7969 12.8418L17.334 12.4023L17.9199 11.8652L18.6035 11.3281L19.3359 10.7422L20.166 10.1074L21.0449 9.47266L22.168 8.69141L23.2422 8.00781L24.0723 7.4707L25.1465 6.83594L26.4648 6.10352L28.0762 5.27344L29.6387 4.54102L30.9082 4.00391L32.0312 3.56445L33.2031 3.125L34.9609 2.53906L36.6211 2.05078L38.1348 1.66016L40.0879 1.2207L42.2852 0.830078L44.0918 0.585938L46.1426 0.390625L47.8516 0.292969L49.6094 0.244141Z" fill="white"/>
</g>
<defs>
<clipPath id="clip0_51_6">
<rect width="100" height="100" fill="white"/>
</clipPath>
</defs>
</svg>
