<svg width="100" height="100" viewBox="0 0 100 100" fill="none" xmlns="http://www.w3.org/2000/svg">
<path d="M48.8281 6.25H50.7324L51.8555 6.34766L53.2227 6.5918L54.3457 6.88477L55.3711 7.22656L56.6406 7.76367L57.666 8.30078L58.7891 9.0332L59.5703 9.61914L60.2539 10.2051L60.4004 10.3027V10.4004L60.5957 10.498L61.377 11.2793L61.7188 11.6699L62.3047 12.4023L62.8906 13.2324L63.623 14.4531L64.4043 15.8691L65.0391 16.9922L65.6738 18.1641L66.3086 19.2871L67.0898 20.7031L70.2637 26.416L70.8984 27.5391L71.5332 28.7109L72.168 29.834L72.9492 31.25L74.1699 33.4473L74.8047 34.5703L75.4395 35.7422L76.0742 36.8652L76.8555 38.2812L78.0762 40.4785L78.7109 41.6016L79.3457 42.7734L79.9805 43.8965L80.7617 45.3125L81.9824 47.5098L82.6172 48.6328L83.252 49.8047L83.8867 50.9277L84.668 52.3438L85.8887 54.541L86.5234 55.6641L87.1582 56.8359L87.793 57.959L88.5742 59.375L89.7949 61.5723L90.4297 62.6953L91.0645 63.8672L91.6992 64.9902L92.4805 66.4062L93.7012 68.6035L94.3359 69.7266L95.0195 70.9961L95.5566 72.1191L96.0449 73.4863L96.3379 74.6094L96.5332 75.5859L96.6797 76.7578L96.7285 77.6855V78.418L96.6309 79.9316L96.4355 81.1523L96.0938 82.5684L95.6543 83.8379L95.2148 84.8145L94.8242 85.5957L94.3848 86.377L93.9941 86.9629L93.3594 87.8418L92.9199 88.3301L92.5781 88.7207L92.1387 89.209L91.7969 89.5508L91.4062 89.8926L90.5762 90.5762L89.9414 91.0156L89.2578 91.4551L88.2324 92.041L87.0605 92.5781L85.6934 93.0664L84.3262 93.4082L83.2031 93.6035L82.3242 93.7012L81.543 93.75H80.6641L79.248 93.6523L77.832 93.4082L76.6602 93.1152L75.6348 92.7734L74.3652 92.2363L73.2422 91.6504L72.3145 91.0645L71.3867 90.3809L70.7031 89.7949L70.0684 89.209L69.6777 88.8184L69.3359 88.4277L68.7988 87.793L68.1641 86.9141L67.5781 85.9863L66.8945 84.7656L66.2598 83.6426L65.625 82.4707L64.9902 81.3477L64.209 79.9316L53.7109 61.0352L52.9297 59.6191L52.2949 58.4961L51.5137 57.0801L50.7812 55.7617L50 54.3457L49.9023 54.1504L49.8047 54.1016L49.707 54.3457L49.0723 55.5176L48.4375 56.6406L47.6562 58.0566L47.0703 59.1797L46.4355 60.3027L45.6543 61.7188L39.0625 73.584L38.7207 74.1699L38.4277 74.707L37.793 75.8789L37.1582 77.002L36.377 78.418L33.4473 83.6914L32.8125 84.8633L32.2266 85.8887L31.7383 86.6699L31.1523 87.5L30.5176 88.2812L30.1758 88.6719L30.0293 88.8672H29.9316L29.834 89.0625L29.5898 89.3066H29.4922L29.4434 89.4531L29.0527 89.7949L28.418 90.332L27.6367 90.918L26.9043 91.4062L25.8789 91.9922L24.7559 92.5293L23.584 92.9688L22.4121 93.3105L21.2402 93.5547L20.2637 93.7012L19.5312 93.75H17.5781L16.4551 93.6523L15.332 93.457L13.8672 93.0664L12.793 92.6758L11.5723 92.1387L10.5957 91.6016L9.76562 91.0645L9.0332 90.5273L8.49609 90.0879L7.8125 89.502L7.08008 88.7695L6.64062 88.2324L6.10352 87.5977L5.41992 86.6211L4.6875 85.3516L4.19922 84.3262L3.75977 83.2031L3.36914 81.8359L3.125 80.6152L2.97852 79.541V76.6113L3.17383 75.2441L3.51562 73.8281L4.00391 72.3633L4.54102 71.1914L5.22461 69.873L5.81055 68.8477L6.5918 67.4316L7.22656 66.3086L7.86133 65.1367L8.49609 64.0137L9.27734 62.5977L10.498 60.4004L11.1328 59.2773L11.9141 57.8613L12.6465 56.543L13.4277 55.127L13.916 54.248L14.5996 53.0273L15.3809 51.6113L16.0156 50.4883L16.7969 49.0723L17.5293 47.7539L18.3105 46.3379L18.9453 45.2148L19.6777 43.8965L20.2637 42.8223L20.7031 42.041L21.4355 40.7227L22.0703 39.5996L22.7051 38.4277L23.3398 37.3047L23.9746 36.1328L24.5605 35.1074L25.1465 34.0332L25.5859 33.252L26.3184 31.9336L26.9531 30.8105L27.5879 29.6387L28.0273 28.8574L28.6621 27.7344L29.0527 27.1973L29.3945 26.9043L29.8828 26.709H30.4688L31.0059 26.9043L31.3965 27.2461L31.6406 27.5879L31.7871 28.125L31.7383 28.6621L31.4453 29.3945L30.8105 30.5176L30.1758 31.6895L29.7363 32.4707L29.0039 33.7891L28.3691 34.9121L27.7344 36.084L27.0996 37.207L26.3184 38.623L25.0977 40.8203L24.4629 41.9434L23.8281 43.1152L23.1934 44.2383L22.4121 45.6543L21.1914 47.8516L20.5566 48.9746L19.9219 50.1465L19.2871 51.2695L18.5059 52.6855L18.0176 53.5645L17.334 54.7852L16.5527 56.2012L15.332 58.3984L14.6973 59.5215L14.0625 60.6934L13.4277 61.8164L12.6465 63.2324L12.3535 63.7695L13.3301 63.3789L14.209 63.0859L15.4297 62.793L16.6504 62.5977L17.6758 62.5H19.4336L20.9473 62.6465L22.168 62.8906L23.291 63.1836L24.5117 63.623L25.7812 64.209L26.6602 64.6973L27.3926 65.1855L28.3203 65.8691L29.0039 66.4551L29.7363 67.1387L30.4688 67.9199L31.0059 68.6035L31.543 69.3359L32.1777 70.3613L32.8613 71.6797L33.3984 73.0469L33.7891 74.3652L34.082 75.8301L34.1797 75.7812L34.5703 75L35.3027 73.6816L35.9375 72.5586L36.5723 71.3867L37.207 70.2637L37.8418 69.0918L38.4277 68.0664L39.0137 66.9922L39.6484 65.8691L40.4297 64.4531L41.1621 63.1348L41.9434 61.7188L42.5781 60.5957L43.3594 59.1797L44.0918 57.8613L44.6777 56.8359L45.166 56.0059L45.5078 55.4199L45.8008 54.834L46.4844 53.6621L46.7773 53.0762L47.4121 51.9531L47.998 50.9277L47.9492 50.6836L47.3145 49.5117L46.6797 48.3887L46.0938 47.3145L45.459 46.1914L44.6777 44.7754L38.0859 32.9102L37.3047 31.4941L36.6699 30.3711L36.0352 29.1992L35.6445 28.418L35.1562 27.2461L34.8145 26.2207L34.5215 25.0488L34.3262 23.877L34.2285 22.8516V20.8984L34.375 19.5801L34.6191 18.3105L34.9609 17.0898L35.3027 16.1133L35.6934 15.2344L36.084 14.4531L36.5234 13.6719L37.1094 12.793L37.5488 12.207L38.0859 11.5723L38.4277 11.1816L38.623 10.9375L39.0137 10.5957L39.502 10.1074L40.1855 9.57031L40.8203 9.08203L41.7969 8.44727L42.8711 7.86133L43.7012 7.4707L44.7266 7.08008L45.8496 6.73828L46.9238 6.49414L48.2422 6.29883L48.8281 6.25ZM48.7793 9.375L47.4121 9.57031L46.4355 9.81445L45.2637 10.2051L44.0918 10.7422L43.1641 11.2793L42.3828 11.8164L41.8945 12.207L41.4062 12.6465L41.0156 12.9883L40.2832 13.7695L39.5508 14.7461L39.1602 15.3809L38.6719 16.2598L38.1836 17.334L37.7441 18.7012L37.5 19.8242L37.3535 21.1914V22.8027L37.5488 24.2676L37.8418 25.4395L38.2324 26.5625L38.8184 27.7832L39.502 29.0527L40.0879 30.0781L40.6738 31.1523L41.1621 32.0312L41.8457 33.252L42.627 34.668L43.1152 35.5469L43.7988 36.7676L44.5801 38.1836L45.0684 39.0625L45.752 40.2832L46.5332 41.6992L47.0215 42.5781L47.7051 43.7988L48.4863 45.2148L48.9746 46.0938L49.6582 47.3145L50.4395 48.7305L50.9277 49.6094L51.6113 50.8301L52.3926 52.2461L52.8809 53.125L53.5645 54.3457L54.3457 55.7617L54.834 56.6406L55.5176 57.8613L56.2988 59.2773L56.7871 60.1562L57.4707 61.377L58.252 62.793L58.7402 63.6719L59.4238 64.8926L60.2051 66.3086L60.6934 67.1875L61.377 68.4082L62.1582 69.8242L62.6465 70.7031L63.3301 71.9238L64.1113 73.3398L64.5996 74.2188L65.2832 75.4395L66.0645 76.8555L66.5527 77.7344L67.2363 78.9551L68.0176 80.3711L68.5059 81.25L69.1895 82.4707L69.7754 83.5449L70.459 84.7168L70.8496 85.3027L71.2891 85.8887L71.875 86.5723L72.8516 87.5488L73.5352 88.0859L74.2188 88.5742L74.9512 89.0137L75.8789 89.502L77.002 89.9414L77.9297 90.2344L79.1504 90.4785L79.8828 90.5762L80.5664 90.625H81.6895L82.7637 90.5273L84.0332 90.2832L85.2051 89.9414L86.377 89.4531L87.5977 88.8184L88.5254 88.1836L89.0137 87.793L89.6973 87.207L90.4297 86.4746L90.8691 85.9375L91.3574 85.3027L91.8457 84.5215L92.2363 83.8379L92.8223 82.4707L93.1641 81.3965L93.4082 80.3223L93.5547 79.1992L93.6035 78.5645V77.6367L93.5059 76.4648L93.2129 74.9512L92.7246 73.4863L92.1875 72.3145L91.5527 71.1426L90.918 70.0195L90.2832 68.8477L89.6484 67.7246L88.8672 66.3086L88.3789 65.4297L87.6953 64.209L86.9629 62.8906L86.1816 61.4746L85.5469 60.3516L84.7656 58.9355L84.0332 57.6172L83.252 56.2012L82.6172 55.0781L81.8359 53.6621L81.1035 52.3438L80.3223 50.9277L79.6875 49.8047L78.9062 48.3887L78.1738 47.0703L77.3926 45.6543L76.7578 44.5312L75.9766 43.1152L75.2441 41.7969L74.4629 40.3809L73.8281 39.2578L73.0469 37.8418L72.3145 36.5234L71.5332 35.1074L70.8984 33.9844L70.1172 32.5684L69.3848 31.25L68.6035 29.834L67.9688 28.7109L67.1875 27.2949L66.4551 25.9766L65.6738 24.5605L65.0391 23.4375L64.2578 22.0215L63.5254 20.7031L62.7441 19.2871L62.1094 18.1641L61.3281 16.748L60.6445 15.5273L60.1074 14.6973L59.4727 13.8672L59.0332 13.3789L58.7402 13.0371H58.6426V12.9395L58.252 12.5977L57.7637 12.1582L56.8359 11.4746L55.8594 10.8887L55.0781 10.498L54.1504 10.1074L52.8809 9.7168L51.709 9.47266L50.7812 9.375H48.7793ZM17.5781 65.625L16.4062 65.7715L15.1855 66.0645L14.0137 66.4551L12.8418 66.9922L11.7676 67.627L10.8887 68.2617L10.2051 68.8477L9.81445 69.1895L9.47266 69.5801L9.08203 69.9707L8.39844 70.8984L7.8125 71.875L7.32422 72.7539L6.83594 73.9258L6.49414 75.0488L6.25 76.2695L6.10352 77.5879V78.5645L6.29883 80.2734L6.5918 81.543L6.93359 82.5684L7.4707 83.7891L8.05664 84.8145L8.64258 85.6445L9.08203 86.1816L9.61914 86.7676L10.3027 87.4512L10.8398 87.8906L11.7676 88.5742L12.793 89.1602L13.916 89.6973L15.3809 90.1855L16.5039 90.4297L18.2617 90.625H18.8965L20.3613 90.4785L21.6309 90.2344L22.7539 89.8926L23.9258 89.4043L24.9512 88.8672L25.8301 88.2812L26.4648 87.793L26.9531 87.3535L27.3438 87.0117L27.8809 86.4746L28.3203 85.9375L28.8086 85.3027L29.2969 84.5703L29.9316 83.3984L30.3711 82.373L30.6641 81.4453L30.9082 80.4199L31.0547 79.2969L31.1035 78.6621V77.4902L30.957 76.123L30.7129 74.9512L30.3711 73.877L29.9805 72.9004L29.3457 71.6797L28.7109 70.752L28.1738 70.0684L27.5879 69.4336L26.9043 68.75L26.2207 68.2129L25.5859 67.7246L24.5117 67.0898L23.291 66.5039L21.8262 66.0156L20.459 65.7227L19.4824 65.625H17.5781Z" fill="url(#paint0_linear_45_172)"/>
<defs>
<linearGradient id="paint0_linear_45_172" x1="49.8535" y1="6.25" x2="49.8535" y2="93.75" gradientUnits="userSpaceOnUse">
<stop stop-color="#FF8B38"/>
<stop offset="1" stop-color="#FF6B00"/>
</linearGradient>
</defs>
</svg>
