<svg width="100" height="100" viewBox="0 0 100 100" fill="none" xmlns="http://www.w3.org/2000/svg">
<g clip-path="url(#clip0_34_136)">
<path d="M42.5667 0.399999C42.2667 0.633333 41.5333 2.26667 40.9 4L39.8 7.16667L37.9667 8.06667C36.9667 8.56667 35.9333 8.96667 35.6333 8.96667C35.3333 9 33.8 8.4 32.2 7.66667C30.6333 6.93333 29 6.33333 28.5667 6.33333C27.4333 6.33333 21 12.9 21 14.0333C21 14.5333 21.6 16.2333 22.3667 17.8667L23.7333 20.8L22.9667 22.6667C22.5667 23.6667 22.1 24.6667 21.9333 24.8667C21.8 25.0667 20.3333 25.7333 18.7333 26.3C17.1333 26.8667 15.6 27.4667 15.3333 27.6667C15.0333 27.8333 14.7667 28.7 14.6667 29.8333L14.5 31.7L8.66666 27.3667C5.33333 24.8667 2.49999 23 2.06666 23C1.16666 23 -7.62939e-06 24.1 -7.62939e-06 24.9667C-7.62939e-06 25.3 0.266659 25.9 0.599992 26.2667C1.53333 27.3333 11.8 34.8667 14.6 36.5333C22.1667 41 31.0333 44.1333 38.9333 45.1333C40.6333 45.3333 42.0667 45.6 42.1 45.7333C42.1333 45.8333 40.2667 47.6 37.9333 49.6333C33.0667 53.8667 32.2667 55.0667 32.2667 58.0333C32.2667 62.5 35.4 65.6667 39.8333 65.6667C42.4667 65.6667 43.5333 65.1 47.8333 61.5L51.6333 58.3333H58.7667C68.6 58.3333 67.9667 58.1 79.2 65.8333C84.1333 69.2333 88.5 72.4 88.9333 72.8667C90.2333 74.3333 89.6333 77.1 87.8333 77.9333C86.1 78.7333 85.3 78.4 79.3333 74.5667C64.4 64.9333 63.7667 64.6 62.5 65.6667C61.8 66.2333 61.8667 68.1 62.6 68.7333C62.9 69 66.3333 71.2333 70.1667 73.6667C74.0333 76.0667 77.4333 78.3667 77.7667 78.7333C78.6667 79.8 78.5 81.8 77.4 83.0333C76.0667 84.5333 74.6 84.4333 71.9 82.7667C61.3 76.0333 58.5 74.3333 57.9667 74.3333C57.1 74.3333 56 75.5 56 76.4333C56 77.4667 56.7333 78.1 62.0333 81.4667C66.8667 84.5333 67.6 85.3333 67.1667 87.2667C66.8667 88.6333 65.6333 89.7 64.1 89.8667C62.9333 90.0333 62.4 89.7667 57.9333 86.8667C55.2 85.1 52.6333 83.6667 52.2333 83.6667C50.6333 83.6667 49.7 86 50.8333 87.1333C51.1333 87.4 52.2333 88.1667 53.3 88.8333C55.5333 90.2 56.2 91.3667 55.8667 93.1333C55.4667 95.3333 52.8 96.3667 50.6667 95.1667C49.9 94.7667 49.8333 94.5333 49.8333 92.4333C49.8 88.7333 47.9333 86.1 44.8 85.2667C43.6667 84.9667 43.3667 84.7333 43.5333 84.3333C45 80.7667 43.5333 76.6333 40.1667 75C38.4667 74.2 35.5667 74 34.4 74.6333C33.8333 74.9333 33.6333 74.8333 33.2 74.1667C31.0667 70.9 26.8667 69.7333 23.5667 71.4667L22.0333 72.3L21.5333 71.5C20.8 70.3667 18.8333 69.3 16.7 68.8333C15.1333 68.5 14.1333 67.9333 10.9667 65.5667C6.96666 62.5667 5.89999 62.1667 4.83333 63.2C4.49999 63.5333 4.33333 64.1667 4.39999 64.8C4.49999 65.6667 4.96666 66.1667 7.39999 68C8.99999 69.2 10.3667 70.2667 10.5 70.3667C10.6 70.4667 10.2333 71.4333 9.66666 72.5C6.99999 77.6 10.1 83 15.7667 83.1667C17.7 83.2333 17.7333 83.2333 18.3333 84.5667C19.4667 87.1 22.5333 88.8667 25.4 88.6C26.5667 88.5 26.7 88.5667 27 89.5C27.4333 90.8333 29.4667 92.8333 31.0667 93.5C31.7667 93.7667 33.0667 94 34 94C34.9 94 35.6667 94.1333 35.6667 94.2667C35.6667 94.4333 36.1333 95.2333 36.7 96.1C38.6333 99 42.4333 100.1 45.6667 98.6333L47.1333 97.9667L49 98.9C53.2667 101.067 58.4 99.0333 59.7 94.6333C60.0667 93.5 60.2333 93.3333 60.8 93.5C65.3333 94.9333 69.9 92.7667 71 88.6667L71.3333 87.4L72.9333 87.9C76.9 89.1 81.4333 86.5667 82.2 82.7333C82.4 81.7 82.5 81.6333 83.3 81.9C83.7667 82.0333 85.2333 82.1667 86.5333 82.1667C88.5333 82.1667 89.1 82.0333 90.2667 81.2333C91.0333 80.7333 92.0667 79.7 92.5667 78.9667C94.2667 76.3667 93.9 71.7333 91.8667 70.0333C91.5667 69.7667 91.3333 69.4 91.3667 69.2C91.3667 69 93.2 67.2667 95.4 65.3333C100.033 61.3 100.433 60.7333 99.4333 59.4C99.0667 58.9 98.4333 58.4667 98.0333 58.4C97.2333 58.2667 96.8667 58.5333 91.5667 63.2667L87.7 66.7333L80.4333 61.7333C69.1667 54 69.6333 54.1667 58.3333 54.1667H50.1667L45.7333 57.9333C41.9667 61.1 41.1333 61.6667 40.1667 61.6667C37.7667 61.6667 36.3333 60.2333 36.3333 57.8667C36.3333 56.3667 36.6333 56.0667 43.3 50.4L48.7333 45.7333L55.4667 45.5667C66.1 45.3 73.2 43.6 82.1667 39.2C86.4667 37.1 92.4333 33.4333 93.2667 32.4C94.2333 31.1333 93.2667 29.3333 91.6333 29.3333C91.2 29.3333 89.6333 30.1333 88.1667 31.1C85.4 32.9333 81.9 35 81.5333 35C81.4333 35 81.3333 33.6 81.3333 31.8667C81.3333 29.3667 81.2 28.6 80.7667 28.0333C80.4333 27.6667 78.7667 26.8667 77.0333 26.2333L73.8667 25.1333L73 22.9667L72.1 20.8L73.5333 17.6667C74.3333 15.9667 75 14.2667 75 13.9C75 13.5333 73.6 11.8333 71.5333 9.8C68.9333 7.16667 67.8667 6.33333 67.2 6.33333C66.7333 6.33333 65.0667 6.96667 63.5 7.73333C60.7667 9.1 60.6333 9.13333 59.4333 8.7C56.0667 7.46667 56.2 7.6 55.0333 4.26667C54.4333 2.56667 53.6333 0.899999 53.2667 0.566666C52.7 0.0999994 51.9 -6.25918e-07 47.8667 -6.25918e-07C44.6 -6.25918e-07 42.9667 0.133333 42.5667 0.399999ZM51.6333 6.96667C52.2333 8.6 52.9333 10.1333 53.2667 10.4C54.0667 11.0667 59.7 13.3333 60.6 13.3333C61 13.3333 62.4 12.8 63.6667 12.1667C64.9333 11.5333 66.1667 11 66.4333 11C66.6667 11 67.6667 11.8333 68.6667 12.8333L70.4667 14.6333L69.0333 17.6L67.6333 20.5667L69 24.0333C69.7667 25.9333 70.6333 27.7667 70.9333 28.0667C71.2333 28.3667 72.7 29.0667 74.1667 29.5667L76.8333 30.5L76.9333 33.8667L77.0333 37.2333L73.4333 38.4333C69.9 39.6 63.4333 41.2 63.1667 40.9333C63.1 40.8667 63.3333 39.7667 63.7 38.5C66.1333 29.7 61.2 20.8333 52.4333 18.1667C50.1 17.4333 45.5333 17.5333 42.9667 18.3333C37.0333 20.1667 32.6667 25.3333 31.6667 31.7C31.3333 33.8667 31.3333 34.6667 31.8 36.8667C32.0667 38.3 32.2667 39.5 32.2 39.5667C31.9667 39.8 25.5 37.4333 22.2333 35.9L18.6333 34.2L18.7333 32.4L18.8333 30.6L21.7333 29.5333C23.3333 28.9667 24.7667 28.3333 24.9667 28.1667C25.4667 27.6667 28 21.3333 28 20.6333C28 20.2667 27.4 18.7667 26.6333 17.2667L25.2667 14.5667L27.0333 12.8C28 11.8 29 11 29.2 11C29.4 11 30.7333 11.5333 32.1333 12.1667C33.5667 12.8 35 13.3333 35.3667 13.3333C36.3333 13.3333 42.4333 10.7333 42.9 10.1C43.1333 9.8 43.5667 8.8 43.8667 7.86667C44.2 6.93333 44.6333 5.66667 44.9 5.06667L45.3333 4H47.9667H50.5667L51.6333 6.96667ZM52.7667 22.6C56.3667 24.2 58.9 27.2333 59.8667 31.0667C60.6 33.9333 60.3 36.5667 58.9333 39.3333L57.8333 41.5L51.5 41.6C48.0333 41.6667 43.4667 41.5333 41.4 41.3L37.6333 40.9333L36.7333 39.2C35.9333 37.6667 35.8333 37.1667 35.8333 34C35.8333 30.8333 35.9333 30.3333 36.7667 28.6667C38.4333 25.4333 40.9667 23.3 44.5 22.1C46.4667 21.4667 50.8 21.7 52.7667 22.6ZM18.1333 74.0333C20.8 77.1667 16.3333 81.1 13.6 78C12.3333 76.6333 12.3667 75.2333 13.6333 73.9667C15.0333 72.5667 16.9333 72.6 18.1333 74.0333ZM29.0333 75.6333C30.3667 76.9667 30.3 78.3 28.8 80.8333C26.6667 84.4 25.3667 85.2 23.3667 84.2C22.1667 83.5667 21.6667 82.7333 21.6667 81.4333C21.6667 80.3 24.5 75.5333 25.4667 75.0667C26.7667 74.4 28 74.6333 29.0333 75.6333ZM39.0667 79.2333C40.5333 80.6333 40.3333 81.8667 38.1333 85.5333C37.1333 87.2667 35.9 88.9667 35.4 89.3667C33.6 90.7667 30.6667 89.2667 30.6667 86.9333C30.6667 85.8 33.9 79.9 35.0667 78.9C36.1 78.0333 37.9667 78.1667 39.0667 79.2333ZM44.8 89.8333C45.9667 90.9 46 92.9 44.8667 94.2333C44.2333 94.9667 43.8 95.1667 42.7 95.1667C39.8333 95.1667 38.5 91.9 40.5333 89.8667C41.7333 88.7 43.5667 88.6667 44.8 89.8333Z" fill="url(#paint0_radial_34_136)"/>
<path d="M47.1667 27.1667C47 27.2333 46.4333 27.3667 45.9333 27.4667C43.8667 27.9333 41.7 30.8667 41.6667 33.2667C41.6667 34.6 42.4667 36.5667 43.4333 37.6C46.1333 40.5 51.2 39.9 53.2 36.4667C54.8667 33.6333 53.9 29.6667 51.1 28.1C49.8667 27.4 47.8333 26.9 47.1667 27.1667ZM49.4 31.9C50.6667 33.0333 49.7667 35.3333 48 35.3333C46.6667 35.3333 45.9 34.6 45.9 33.3333C45.9 31.5333 48 30.6333 49.4 31.9Z" fill="url(#paint1_radial_34_136)"/>
<path d="M96.7333 25.5333C95.8667 26.1333 95.7333 27.7 96.5333 28.4667C97.3 29.2667 98.8667 29.1333 99.4667 28.2667C100.167 27.2667 100.133 26.4667 99.3333 25.6667C98.5333 24.8667 97.7333 24.8333 96.7333 25.5333Z" fill="url(#paint2_radial_34_136)"/>
<path d="M0.666662 59C-0.133338 59.8 -0.166671 60.6 0.533329 61.6C1.13333 62.4667 2.7 62.6 3.46666 61.8C4.26666 61.0333 4.13333 59.4667 3.26666 58.8667C2.26666 58.1667 1.46666 58.2 0.666662 59Z" fill="url(#paint3_radial_34_136)"/>
</g>
<defs>
<radialGradient id="paint0_radial_34_136" cx="0" cy="0" r="1" gradientUnits="userSpaceOnUse" gradientTransform="translate(49.9409 49.8864) rotate(-90) scale(49.8864 49.9409)">
<stop stop-color="#FF8B38"/>
<stop offset="1" stop-color="#FF6B00"/>
</radialGradient>
<radialGradient id="paint1_radial_34_136" cx="0" cy="0" r="1" gradientUnits="userSpaceOnUse" gradientTransform="translate(47.8426 33.2732) rotate(-90) scale(6.1794 6.17593)">
<stop stop-color="#FF8B38"/>
<stop offset="1" stop-color="#FF6B00"/>
</radialGradient>
<radialGradient id="paint2_radial_34_136" cx="0" cy="0" r="1" gradientUnits="userSpaceOnUse" gradientTransform="translate(97.9832 27.0168) rotate(-90) scale(1.98106)">
<stop stop-color="#FF8B38"/>
<stop offset="1" stop-color="#FF6B00"/>
</radialGradient>
<radialGradient id="paint3_radial_34_136" cx="0" cy="0" r="1" gradientUnits="userSpaceOnUse" gradientTransform="translate(2.01682 60.3502) rotate(-90) scale(1.98106)">
<stop stop-color="#FF8B38"/>
<stop offset="1" stop-color="#FF6B00"/>
</radialGradient>
<clipPath id="clip0_34_136">
<rect width="100" height="100" fill="white"/>
</clipPath>
</defs>
</svg>
