<svg width="100" height="100" viewBox="0 0 100 100" fill="none" xmlns="http://www.w3.org/2000/svg">
<g clip-path="url(#clip0_51_2)">
<path d="M33.3008 0H66.5527V0.0488281L70.5566 0.244141L72.7539 0.390625L74.9023 0.634766L76.709 0.927734L78.5156 1.31836L80.0293 1.70898L81.9824 2.34375L83.3496 2.88086L84.5703 3.41797L85.9375 4.10156L87.2559 4.88281L88.4277 5.66406L89.1602 6.20117L89.6484 6.5918L90.1855 7.03125L90.918 7.66602L91.3086 8.05664L91.6016 8.30078L91.9434 8.69141L92.4316 9.17969L92.7734 9.57031L93.457 10.4004L93.9453 11.0352L94.5312 11.8652L95.166 12.8418L95.752 13.8672L96.0938 14.4531L96.6309 15.5762L97.0703 16.5527L97.7051 18.2129L98.2422 19.873L98.6816 21.582L98.9746 22.9004L99.3164 24.8535L99.5605 26.8555L99.707 28.7109L99.9023 32.959L100 32.8125V66.9922L99.9023 66.9434L99.707 71.1914L99.5117 73.584L99.2676 75.4395L98.9746 77.1484L98.6328 78.6621L98.2422 80.127L97.8027 81.4941L97.4609 82.4707L96.875 83.8867L96.3379 85.0586L95.752 86.1816L95.2637 87.0117L94.7266 87.8418L94.3359 88.4277L93.5547 89.4531L93.2129 89.8926L92.5781 90.625L92.4316 90.8203H92.334L92.2363 91.0156L90.8691 92.3828L90.4785 92.7246L89.8438 93.2617L89.0137 93.8965L88.1348 94.5312L87.207 95.1172L86.377 95.6055L85.2051 96.2402L83.9844 96.8262L82.4219 97.4609L80.5664 98.0957L78.7598 98.584L77.002 98.9746L75 99.3164L72.9492 99.5605L70.9473 99.707L67.1387 99.9023L65.7715 99.9512L65.2344 100H33.5938V99.9512L32.0312 99.8535L28.9551 99.707L26.5137 99.5117L24.6094 99.2676L22.7539 98.9258L20.9961 98.5352L19.2871 98.0469L17.6758 97.5098L16.3574 96.9727L15.0879 96.3867L14.0137 95.8496L12.6953 95.0684L11.5234 94.2871L10.9375 93.8477L10.498 93.5059L9.66797 92.8223L8.49609 91.748L7.91016 91.1621L7.56836 90.7715L6.98242 90.1367L6.44531 89.4531L5.95703 88.8184L5.37109 87.9883L4.83398 87.1582L4.10156 85.8887L3.61328 84.9609L2.88086 83.3496L2.34375 81.9336L1.80664 80.3223L1.31836 78.5156L0.927734 76.6602L0.634766 74.8535L0.390625 72.7051L0.195312 69.6289L0.0976562 67.4805H0.0488281L0 66.8457V33.5938L0.0488281 32.6172H0.0976562L0.341797 27.7344L0.585938 25.4395L0.927734 23.291L1.36719 21.2891L1.75781 19.8242L2.34375 18.0176L2.97852 16.4062L3.56445 15.1367L4.05273 14.209L4.3457 13.6719L4.78516 12.8906L5.76172 11.4258L6.20117 10.8398L6.73828 10.1562L7.32422 9.47266L7.76367 8.98438L8.30078 8.39844L8.74023 7.95898L9.13086 7.61719L9.66797 7.12891L10.2051 6.68945L10.8887 6.15234L11.8164 5.46875L13.3789 4.49219L14.4531 3.90625L15.2832 3.4668L16.8457 2.7832L18.5547 2.14844L20.166 1.66016L21.6797 1.26953L23.291 0.927734L25.0488 0.634766L27.2461 0.390625L29.3457 0.244141L33.3008 0.0488281V0ZM38.2324 9.0332L35.4004 9.08203L31.1523 9.22852L28.5156 9.375L26.4648 9.57031L24.6582 9.86328L22.9492 10.2539L21.3379 10.7422L19.9707 11.2793L18.75 11.8652L17.7734 12.4023L16.8945 12.9883L16.1133 13.5742L15.4785 14.1113L14.8438 14.6973L14.502 15.0391L14.1602 15.4297L13.7207 15.918L13.0371 16.8457L12.5488 17.5781L12.1094 18.3594L11.5234 19.4824L10.8887 21.0449L10.498 22.2168L10.1074 23.6816L9.76562 25.3418L9.52148 27.0508L9.375 28.6133L9.17969 32.373L9.08203 35.9863L9.0332 39.6973V60.2051L9.08203 64.209L9.17969 67.5781L9.32617 70.7031L9.47266 72.5098L9.61914 73.7793L9.91211 75.4883L10.2539 76.9531L10.5957 78.125L10.9375 79.1504L11.4746 80.4199L11.9141 81.3477L12.5977 82.5195L13.1348 83.3008L13.5742 83.8867L14.1602 84.5703L14.8926 85.3516L15.5762 85.9863L16.2598 86.5234L17.1387 87.1582L18.1152 87.7441L19.2383 88.3301L20.2148 88.7695L21.0938 89.1113L22.6074 89.5996L24.6582 90.0879L26.4648 90.3809L28.2715 90.5762L30.7129 90.7227L34.0332 90.8691L35.791 90.918L39.8926 90.9668H60.4004L63.6719 90.918L66.9434 90.8203L70.3125 90.6738L72.8027 90.4785L74.6094 90.2344L76.3184 89.8926L77.7832 89.502L79.248 89.0137L80.6152 88.4277L81.5918 87.9395L82.5684 87.3535L83.3496 86.8164L83.9844 86.3281L84.668 85.7422L84.9609 85.498V85.4004L85.1562 85.3027L85.2539 85.1074H85.3516L85.6934 84.7168L86.2305 84.1309L86.9629 83.1543L87.5 82.3242L87.9395 81.543L88.4277 80.6152L89.0137 79.1992L89.5508 77.5879L89.9414 76.0742L90.2832 74.2676L90.4785 72.7539L90.625 70.9961L90.7715 68.2129L90.8691 65.2344L90.918 60.4004L90.9668 51.416V47.9004L90.918 37.0117L90.8203 33.1543L90.6738 29.6875L90.5273 27.6367L90.2832 25.6836L89.9902 24.0723L89.5996 22.5098L89.0137 20.752L88.5254 19.5801L88.0371 18.5547L87.2559 17.2363L86.6211 16.3574L86.2305 15.8691L85.6445 15.1855L84.6191 14.1602L84.082 13.7207L83.252 13.0859L82.5195 12.5977L81.6895 12.1094L80.4688 11.4746L78.9062 10.8398L77.5391 10.4004L75.9766 10.0098L74.1211 9.66797L72.5098 9.47266L70.7031 9.32617L66.2109 9.13086L64.3555 9.08203L61.4258 9.0332H38.2324Z" fill="white"/>
<path d="M49.5117 24.2676H50.5859L52.1973 24.3652L53.9062 24.5605L55.5176 24.8535L57.0801 25.2441L58.8379 25.8301L60.2051 26.3672L60.9863 26.709L62.8418 27.6855L64.0137 28.418L64.7949 28.9551L65.7227 29.6387L66.5527 30.3223L67.5781 31.2012V31.2988L67.7734 31.3965L68.5547 32.1777L68.8965 32.5684L69.5312 33.252L69.9707 33.7891L70.6543 34.668L71.2402 35.498L71.6309 36.084L72.168 36.9629L72.6562 37.8418L73.2422 38.9648L73.9258 40.5273L74.5117 42.1875L74.9023 43.5547L75.2441 45.0684L75.4883 46.582L75.6348 47.998L75.6836 48.7305V51.3672L75.5371 53.0762L75.293 54.6387L75 56.0547L74.6582 57.3242L74.1211 58.9355L73.7305 59.9121L73.0957 61.3281L72.7051 62.0605L72.4121 62.5977L71.9727 63.3789L71.4355 64.209L71.0449 64.7949L70.2637 65.8203L69.7266 66.5039L69.1895 67.0898L68.8477 67.4805L68.6035 67.7734L67.8223 68.5547L67.4316 68.8965L66.8457 69.4336L66.3086 69.873L65.5273 70.5078L64.6973 71.0938L63.9648 71.582L62.9395 72.2168L61.7676 72.8516L60.5957 73.4375L59.0332 74.0723L57.2754 74.6582L55.7617 75.0488L54.2969 75.3418L52.3926 75.5859L51.1719 75.6836H48.7305L46.6309 75.4883L44.873 75.1953L43.4082 74.8535L42.0898 74.4629L40.8203 74.0234L39.5508 73.4863L38.7695 73.1445L37.8418 72.6562L36.9629 72.168L35.791 71.4355L34.9609 70.8496L34.375 70.4102L33.5938 69.7754L33.0566 69.3359L32.2754 68.6035L30.957 67.2852L30.6152 66.8945L30.0293 66.2109L29.3945 65.3809L28.7598 64.502L28.125 63.5254L27.6367 62.6953L27.1484 61.8164L26.6113 60.7422L25.9766 59.2285L25.5371 58.0078L25.0488 56.2988L24.7559 54.9805L24.5117 53.4668L24.3652 52.1973L24.2676 50.3906V49.5117L24.3652 47.7051L24.6094 45.8008L24.8535 44.5312L25.293 42.7734L25.8789 41.0156L26.416 39.6973L27.002 38.4277L27.5879 37.3535L28.0762 36.5234L29.0527 35.0586L29.6387 34.2773L30.1758 33.5938L30.6641 33.0566L31.0547 32.5684H31.1523L31.25 32.373L32.6172 31.0059L33.1543 30.5664L33.6914 30.0781L34.2773 29.6387L34.9121 29.1504L35.6934 28.6133L36.5234 28.0762L37.3535 27.5879L38.623 26.9043L39.9902 26.2695L41.4062 25.7324L42.9199 25.2441L44.4824 24.8535L45.8008 24.6094L47.2168 24.4141L48.4375 24.3164L49.5117 24.2676ZM49.0234 33.3496L47.6074 33.4961L46.4844 33.6914L45.3125 33.9844L44.1406 34.375L43.1152 34.8145L42.1875 35.2539L41.1133 35.8887L40.332 36.4258L39.5508 37.0117L39.0625 37.4512L38.6719 37.793L37.5488 38.916L37.1094 39.4531L36.5723 40.1367L36.1328 40.7715L35.5469 41.6992L34.8633 43.0176L34.3262 44.3359L33.9355 45.5566L33.5938 47.0215L33.3984 48.5352L33.3496 49.3652V50.6836L33.4473 51.9043L33.6426 53.1738L33.9355 54.4434L34.2773 55.5176L34.7656 56.7383L35.3516 57.959L35.8398 58.7891L36.3281 59.5215L36.9141 60.3027L37.4512 60.9375L37.8906 61.4258L38.8672 62.4023L39.4043 62.8418L40.1367 63.4277L41.1621 64.1113L41.9922 64.5996L42.7246 64.9902L43.8477 65.4785L44.9219 65.8691L46.2402 66.2109L47.5098 66.4551L48.7305 66.6016L49.5605 66.6504H50.4395L51.7578 66.5527L53.0762 66.3574L54.3945 66.0645L56.1523 65.4785L57.3242 64.9414L58.3496 64.4043L59.1309 63.916L60.0586 63.2812L60.7422 62.6953L61.2793 62.2559L62.3047 61.2305L62.6465 60.8398L63.2812 60.0586L63.9648 59.082L64.4531 58.3008L65.1855 56.8359L65.6738 55.6152L65.9668 54.7363L66.2109 53.8086L66.4551 52.5391L66.6016 51.2207V48.7793L66.4062 47.168L66.1621 45.9961L65.7715 44.6289L65.2344 43.2617L64.7461 42.2363L64.1602 41.2109L63.6719 40.4785L63.0859 39.6973L62.6953 39.209L62.2559 38.7207L61.5234 37.9395L61.0352 37.5L60.4004 36.9629L59.4727 36.2793L58.5449 35.6934L57.7637 35.2539L56.6895 34.7168L55.4199 34.2285L54.1016 33.8379L52.6855 33.5449L51.5137 33.3984L50.8789 33.3496H49.0234Z" fill="white"/>
<path d="M76.0742 17.2852H77.2949L77.9785 17.3828L78.8086 17.627L79.6387 18.0176L80.2246 18.4082L80.7617 18.8477L81.2988 19.3848L81.8359 20.1172L82.2266 20.8984L82.4707 21.5332L82.666 22.4121L82.7148 22.7539V23.8281L82.5684 24.707L82.2266 25.7324L81.7871 26.5625L81.3477 27.1484L80.8105 27.7344L80.127 28.2715L79.4434 28.6621L78.6621 29.0039L77.7344 29.248L77.3438 29.2969H75.8789L74.9512 29.1016L73.9746 28.7109L73.2422 28.2715L72.6074 27.7344L72.0215 27.1484L71.4844 26.3672L71.0938 25.5859L70.8008 24.707L70.6543 23.877V22.8027L70.8008 21.9238L71.0449 21.1426L71.4844 20.2148L71.9727 19.5312L72.4121 19.043L72.7539 18.7012L73.4863 18.1641L74.3164 17.7246L75.1953 17.4316L76.0742 17.2852Z" fill="white"/>
</g>
<defs>
<clipPath id="clip0_51_2">
<rect width="100" height="100" fill="white"/>
</clipPath>
</defs>
</svg>
