<svg width="509" height="169" viewBox="0 0 509 169" fill="none" xmlns="http://www.w3.org/2000/svg">
<g clip-path="url(#clip0_2001_696)">
<path d="M0 98.3902C5.32 99.5802 13.38 97.5802 19.92 97.7002V0.850221C12.95 2.24022 4.33 -1.75978 0 1.54022C6.14 4.42022 10.81 10.8302 11.68 20.0902C13.13 35.7002 14.36 76.7402 9.62 88.0902C7.57 93.0102 2 94.8002 0 98.3902Z" fill="#00A455"/>
<path d="M36.3998 89.4602C34.3298 72.1302 31.1398 36.3702 34.3398 16.6502C34.6498 14.7402 35.6498 11.2002 36.3998 9.78024C38.9998 4.83024 44.3598 5.08024 46.6998 0.850238C40.9598 -0.759762 33.4498 1.78024 26.0898 0.850238V97.7002C45.9598 97.7502 66.3898 97.2402 84.4798 99.0702C85.1998 90.8202 92.8798 82.3402 89.9798 75.0302C83.7298 90.6402 58.0098 93.7402 36.3998 89.4502V89.4602Z" fill="#00A455"/>
<path d="M99.6001 99.0802C106.6 98.7602 113.03 97.8602 120.21 97.7102V0.850156C112.67 1.29016 106.61 0.250156 99.6001 0.160156C101.93 4.32016 108.4 6.04016 110.59 13.2102C114.49 26.0102 113.63 69.9101 111.28 83.2701C109.7 92.2201 103.32 94.2502 99.6001 99.0702V99.0802Z" fill="#00A455"/>
<path d="M182.02 99.0799C182.95 90.3899 187 84.8299 188.2 76.4099C181.42 78.7099 180.76 85.6999 173.09 88.7699C162.99 92.8099 148.87 90.4899 135.31 90.1399C134.05 78.5799 133.01 63.1399 134.62 50.9899C146.96 52.6699 162.37 47.6599 169.65 53.7399C173.62 57.0599 171.3 61.4899 175.83 64.7299C176.21 55.8299 176.5 39.9399 175.14 32.4499C171.29 35.7999 172.07 40.6599 166.21 42.7499C157.84 45.7499 143.74 43.4999 133.93 43.4399C133.93 31.0799 133.7 18.4899 135.99 8.40992C147.35 8.78992 160.99 5.84992 170.33 9.09992C176.74 11.3299 176.06 17.6099 181.32 20.0899C182.98 14.5299 180.37 7.30992 181.32 0.169922C163.61 1.23992 144.37 0.769922 125.68 0.859922V97.6999C145.11 97.5099 164.12 97.7299 182 99.0699L182.02 99.0799Z" fill="#00A455"/>
<path d="M209.5 0.850024C203.17 -1.11998 196.67 0.850024 191.64 1.54002C214.49 12.12 225.94 34.1 241.1 52.37C229.64 64.1 220.52 78.95 208.13 88.78C203.76 92.25 198.11 93.68 194.39 98.4C203.34 97.82 220.78 99.81 228.73 97.71C210.77 87.93 242.5 65.82 246.59 57.87C248.74 66.29 271.38 81.05 269.26 92.21C268.64 95.48 265.38 94.95 264.45 98.39C270.78 99.45 280.24 97.7 288.49 98.39C271.06 75.9 249.66 49 230.1 24.89C226.59 20.57 214.21 2.32002 209.49 0.850024H209.5Z" fill="#00A455"/>
<path d="M313.91 97.6999C291.03 83.4899 276.54 60.8899 260.33 39.9999C271.72 28.3999 280.17 12.1999 294.67 4.96992C296.52 4.04992 300.15 4.07992 300.85 0.849922C291.77 1.17992 274.48 -0.330078 266.51 1.53992C284.12 8.88992 259.74 26.6899 254.83 34.5099C248.64 25.1299 239.74 18.4599 235.6 7.03992C235.28 3.28992 239.68 4.24992 239.03 0.169922C232.56 0.789922 225.7 1.03992 218.42 0.859922C235.47 23.6199 257.53 50.1999 276.81 74.3599C280.54 79.0399 292.18 96.8099 297.42 98.3999C303.34 100.19 309.29 98.4899 313.9 97.7099L313.91 97.6999Z" fill="#00A455"/>
<path d="M319.4 99.0802C326.4 98.7602 332.83 97.8602 340.01 97.7102V0.850156C332.47 1.29016 326.41 0.250156 319.4 0.160156C321.73 4.32016 328.2 6.04016 330.39 13.2102C334.29 26.0102 333.43 69.9101 331.08 83.2701C329.5 92.2201 323.12 94.2502 319.4 99.0702V99.0802Z" fill="#00A455"/>
<path d="M392.9 88.7699C382.8 92.8099 368.68 90.4899 355.12 90.1399C353.86 78.5799 352.82 63.1399 354.43 50.9899C366.77 52.6699 382.18 47.6599 389.46 53.7399C393.43 57.0599 391.11 61.4899 395.64 64.7299C396.02 55.8299 396.31 39.9399 394.95 32.4499C391.1 35.7999 391.88 40.6599 386.02 42.7499C377.65 45.7499 363.55 43.4999 353.74 43.4399C353.74 31.0799 353.51 18.4899 355.8 8.40992C367.17 8.78992 380.8 5.84992 390.14 9.09992C396.55 11.3299 395.87 17.6099 401.13 20.0899C402.79 14.5299 400.18 7.30992 401.13 0.169922C383.42 1.23992 364.18 0.769922 345.49 0.859922V97.6999C364.92 97.5099 383.93 97.7299 401.82 99.0699C402.75 90.3799 406.8 84.8199 408 76.3999C401.22 78.6999 400.56 85.6899 392.89 88.7599L392.9 88.7699Z" fill="#00A455"/>
<path d="M418.32 1.54022C424.46 4.42022 429.13 10.8302 430 20.0902C431.45 35.7002 432.68 76.7402 427.94 88.0902C425.89 93.0102 420.32 94.8002 418.32 98.3902C423.64 99.5802 431.7 97.5802 438.24 97.7002V0.850221C431.27 2.24022 422.65 -1.75978 418.32 1.54022Z" fill="#00A455"/>
<path d="M508.3 75.0402C502.05 90.6502 476.33 93.7502 454.72 89.4602C452.65 72.1302 449.46 36.3702 452.66 16.6502C452.97 14.7402 453.97 11.2002 454.72 9.78024C457.32 4.83024 462.68 5.08024 465.02 0.850238C459.28 -0.759762 451.77 1.78024 444.41 0.850238V97.7002C464.28 97.7502 484.71 97.2402 502.8 99.0702C503.52 90.8202 511.2 82.3402 508.3 75.0302V75.0402Z" fill="#00A455"/>
<path d="M133.26 114.19C137.64 114.91 139.48 113.08 138.76 108.69C135.07 104.51 128.85 110.41 133.26 114.19Z" fill="#00A455"/>
<path d="M270.63 149.22C266.18 149.82 262.5 146.7 261.01 143.04C266.28 137.78 268.12 129.09 275.44 125.87C272.22 124.28 266.06 125.63 261.7 125.18C266.89 130.02 262.72 137.97 258.27 140.98C255.94 136.44 252.15 133.36 250.71 127.93C254.97 125.86 259.96 124.17 261.01 120.38C265.14 105.56 242.79 105.22 240.4 116.94C239.63 120.73 241.2 123.56 242.46 129.3C235.92 133.22 227.26 138.46 229.41 147.85C231.82 158.38 249.75 156.29 255.51 149.22C260.3 157.82 278.44 156.41 276.8 145.1C274.16 145.18 274.32 148.72 270.62 149.22H270.63ZM246.59 116.94C247.67 110.38 255.62 109.49 256.89 115.57C257.96 120.67 253.49 123.23 248.65 125.87C248.65 121.56 246.01 120.45 246.59 116.94V116.94ZM243.84 150.6C235.68 149.72 234.17 136.33 243.15 132.05C243.51 132.43 253.45 145.77 253.45 145.79C253.15 148.65 247.19 150.96 243.83 150.6H243.84Z" fill="#00A455"/>
<path d="M305.66 118.31C305.62 114.22 309.16 111.61 313.21 111.44C323.36 111.03 322.71 120.02 326.95 124.49V108.69C323.92 107.95 325.35 111.67 322.83 111.44C309.84 104.3 297 111.86 300.16 124.49C302.94 135.58 324.06 135 323.51 145.78C323 155.9 307.87 152.57 304.28 147.15C302.37 144.26 303.71 142.44 300.85 139.59C299.26 143.49 300.61 150.34 300.16 155.39C303.54 156.48 301.19 151.84 304.28 152.64C314.59 158.15 327.81 154.68 329.7 146.46C333.8 128.54 305.77 129.7 305.66 118.3V118.31Z" fill="#00A455"/>
<path d="M58.39 110.07C55.4 108.48 49.47 109.83 45.34 109.38C39.85 120.37 35.19 132.2 29.54 143.04C24.4 131.92 18.98 121.09 14.43 109.38C10.22 110.21 2.64004 107.67 0.690043 110.75C2.77004 111.87 6.46004 111.4 6.87004 114.19C6.45004 126.59 7.74004 140.7 6.18004 151.97C4.99004 153.3 0.550043 151.38 0.680043 154.03H17.17C16.85 151.14 11.06 153.73 10.99 150.6C9.97004 141.32 9.76004 127.57 10.99 118.32C16.38 130.56 20.87 143.7 28.16 154.04C34.68 142.93 39.14 129.76 45.33 118.32C45.01 129.22 46.05 141.48 44.64 151.29C43.72 153.35 38.75 151.35 38.46 154.04H58.38C58.06 151.15 52.27 153.74 52.2 150.61C51.39 139.33 50.36 122.34 52.89 112.14C53.57 110.3 58.84 113.05 58.39 110.08V110.07Z" fill="#00A455"/>
<path d="M344.82 149.91C343.34 143.38 344.5 134.2 344.13 126.56C346.43 125.88 351.83 128.31 351 124.5C350.26 122.49 344.87 125.13 344.13 123.13V114.2H342.07C341.36 120.13 336.76 122.17 333.83 125.88C333.72 127.82 338.06 125.31 337.95 127.25C338.62 138.77 334.59 156.71 346.19 154.73C348.58 154.32 353.27 149.61 351 147.86C348.83 148.82 347.55 151.43 344.82 149.92V149.91Z" fill="#00A455"/>
<path d="M72.1202 123.81C57.8602 127.14 57.4002 151.22 71.4302 154.72C95.2502 160.67 96.8102 118.04 72.1202 123.81ZM76.9302 152.66C67.4002 152.99 63.3602 130.12 72.1202 126.56C84.6902 121.45 88.4502 152.26 76.9302 152.66Z" fill="#00A455"/>
<path d="M138.06 123.12C133.92 124.02 129.46 124.6 127.76 127.93C128.97 128.33 131.8 127.1 131.88 128.62C132.2 136.18 135.65 152.43 127.76 154.04H142.87C134.39 150.62 139.41 133.69 138.06 123.13V123.12Z" fill="#00A455"/>
<path d="M173.1 150.59C172.86 137.49 175.7 121.43 162.8 123.11C159.84 123.5 157.61 127.31 155.24 127.23C154.82 125.81 156.35 122.46 153.87 123.11C150.38 124.2 146.78 125.18 144.25 127.23C145.18 128.59 149.05 127.01 149.06 129.29V151.27C148.52 153.01 144.85 151.64 144.94 154.02H160.05C160.01 151.31 155.02 153.55 155.24 150.59V131.36C157.53 129.53 159.75 127.63 163.48 127.24C169.61 130.27 165.91 143.13 166.91 151.28C166.42 153.31 162.06 151.46 162.1 154.03H177.21C177.23 151.49 172.94 153.26 173.09 150.6L173.1 150.59Z" fill="#00A455"/>
<path d="M210.19 126.55C209.92 123.62 204.43 125.9 201.95 125.18C188.3 115.34 174.03 136.3 187.53 143.73C183.22 144.27 180.56 152.2 185.47 154.03C162.7 171.63 219.7 174.68 208.82 151.97C205 147.09 191.74 151.65 187.53 147.16C189.02 142.09 195.05 145.33 198.52 144.41C204.64 142.8 208.51 135.65 204.7 128.61C206.74 128.13 211.17 130.05 210.2 126.55H210.19ZM206.76 156.77C207.16 166.85 188.56 165.85 184.78 160.2C184.76 151.37 201.74 154.6 206.76 156.77ZM196.46 142.34C188.27 144.79 185.13 128.71 191.65 125.86C200.68 121.9 202.2 140.63 196.46 142.34Z" fill="#00A455"/>
<path d="M364.74 123.81C350.48 127.14 350.02 151.22 364.05 154.72C387.86 160.67 389.43 118.04 364.74 123.81ZM369.55 152.66C360.02 152.99 355.98 130.12 364.74 126.56C377.31 121.45 381.06 152.26 369.55 152.66Z" fill="#00A455"/>
<path d="M405.95 123.12C400.14 122.35 398.83 126.08 396.33 128.62C395.76 126.9 397.66 122.71 394.96 123.12C391.74 124.48 387.32 124.64 386.03 127.93C394.95 127.94 389.18 142.64 390.84 149.91C390.36 152.4 386.81 151.84 386.03 154.03H401.83C393.66 152.84 394.38 131.02 400.46 127.93C402.13 129.01 403.39 130.49 406.64 129.99C409.05 128.26 407.82 124.4 405.95 123.12Z" fill="#00A455"/>
<path d="M432.05 149.91C431.81 141.68 432.87 132.15 430.68 125.87C424.76 120.27 406.65 122.91 411.45 134.11H415.57C413.45 124.02 428.21 122.93 425.87 134.11C421.94 137.12 413.86 136.79 410.76 141.67C403.11 153.71 421.05 158.94 425.87 150.6C426.51 157.91 437.12 154.05 436.86 148.54C435.93 146.93 433.76 152.16 432.05 149.91V149.91ZM425.87 147.85C422.95 148.36 422.21 151.06 418.32 150.6C410.48 145.3 419.35 138.51 425.19 136.86C426.78 139.17 425.43 144.4 425.88 147.85H425.87Z" fill="#00A455"/>
<path d="M469.14 126.55C468.87 123.62 463.38 125.9 460.9 125.18C447.24 115.34 432.98 136.3 446.47 143.73C442.16 144.27 439.5 152.2 444.41 154.03C421.64 171.63 478.64 174.68 467.76 151.97C463.94 147.09 450.68 151.65 446.47 147.16C447.97 142.09 453.99 145.33 457.46 144.41C463.58 142.8 467.45 135.65 463.64 128.61C465.68 128.13 470.11 130.05 469.14 126.55V126.55ZM465.7 156.77C466.1 166.85 447.5 165.85 443.72 160.2C443.7 151.37 460.68 154.6 465.7 156.77ZM455.4 142.34C447.21 144.79 444.07 128.71 450.59 125.86C459.62 121.9 461.14 140.63 455.4 142.34Z" fill="#00A455"/>
<path d="M497.99 135.48C496.82 128.14 494.62 124.24 489.75 123.12C468.58 118.24 464.89 155.88 485.63 155.4C492.72 155.24 497.65 149 497.31 142.35C493.25 153.32 475.21 149.63 477.39 135.48H498H497.99ZM490.43 133.42H477.38C476.52 124.25 491.66 123.17 490.43 133.42Z" fill="#00A455"/>
<path d="M118.83 127.24C116.21 133.09 114.39 139.75 111.27 145.1C108.54 139.35 106 133.42 103.71 127.24C104.16 125.17 107.67 126.16 107.83 123.81H92.7202C101.87 130.92 102.52 146.52 109.89 155.41C116.17 145.89 117.36 131.28 125.69 123.81H115.39C114.94 126.55 119.44 124.34 118.82 127.24H118.83Z" fill="#00A455"/>
</g>
<defs>
<clipPath id="clip0_2001_696">
<rect width="508.95" height="168.12" fill="white"/>
</clipPath>
</defs>
</svg>
