<svg width="172" height="185" viewBox="0 0 172 185" fill="none" xmlns="http://www.w3.org/2000/svg">
    <path d="M167.926 133.771C167.5 132.752 167.982 131.58 169.001 131.155C170.02 130.729 171.191 131.211 171.617 132.23C172.043 133.249 171.561 134.421 170.542 134.846C169.523 135.272 168.351 134.79 167.926 133.771Z" fill="#FF6B00"/>
    <path d="M155.695 152.619C155.057 151.09 155.779 149.333 157.308 148.695C158.836 148.056 160.593 148.778 161.232 150.307C161.87 151.836 161.148 153.593 159.619 154.231C158.09 154.87 156.333 154.148 155.695 152.619Z" fill="#FF6B00"/>
    <path d="M138.464 167.467C137.613 165.428 138.576 163.085 140.614 162.234C142.653 161.383 144.995 162.346 145.846 164.384C146.698 166.423 145.735 168.765 143.696 169.617C141.658 170.468 139.315 169.505 138.464 167.467Z" fill="#FF6B00"/>
    <path d="M118.233 176.314C117.169 173.766 118.373 170.838 120.921 169.774C123.469 168.71 126.397 169.913 127.461 172.462C128.525 175.01 127.322 177.938 124.774 179.002C122.225 180.066 119.297 178.863 118.233 176.314Z" fill="#FF6B00"/>
    <path d="M97.1177 181.238C95.9475 178.435 97.2711 175.214 100.074 174.044C102.877 172.873 106.098 174.197 107.269 177C108.439 179.803 107.115 183.024 104.312 184.195C101.509 185.365 98.288 184.041 97.1177 181.238Z" fill="#FF6B00"/>
    <path d="M75.0023 180.162C73.7256 177.104 75.1696 173.59 78.2275 172.314C81.2854 171.037 84.7993 172.481 86.0759 175.539C87.3526 178.597 85.9087 182.11 82.8508 183.387C79.7929 184.664 76.279 183.22 75.0023 180.162Z" fill="#FF6B00"/>
    <path d="M54.0022 174.162C52.7256 171.104 54.1695 167.59 57.2274 166.314C60.2853 165.037 63.7992 166.481 65.0759 169.539C66.3526 172.597 64.9086 176.11 61.8507 177.387C58.7928 178.664 55.2789 177.22 54.0022 174.162Z" fill="#FF6B00"/>
    <path d="M36.0022 162.162C34.7256 159.104 36.1695 155.59 39.2274 154.314C42.2853 153.037 45.7992 154.481 47.0759 157.539C48.3526 160.597 46.9086 164.11 43.8507 165.387C40.7928 166.664 37.2789 165.22 36.0022 162.162Z" fill="#FF6B00"/>
    <path d="M20.0022 147.162C18.7256 144.104 20.1695 140.59 23.2274 139.314C26.2853 138.037 29.7992 139.481 31.0759 142.539C32.3526 145.597 30.9086 149.11 27.8507 150.387C24.7928 151.664 21.2789 150.22 20.0022 147.162Z" fill="#FF6B00"/>
    <path d="M9.00224 128.162C7.72556 125.104 9.16952 121.59 12.2274 120.314C15.2853 119.037 18.7992 120.481 20.0759 123.539C21.3526 126.597 19.9086 130.11 16.8507 131.387C13.7928 132.664 10.2789 131.22 9.00224 128.162Z" fill="#FF6B00"/>
    <path d="M2.23312 106.314C1.16922 103.766 2.37252 100.838 4.92077 99.7739C7.46901 98.71 10.3972 99.9133 11.4611 102.462C12.5251 105.01 11.3218 107.938 8.7735 109.002C6.22526 110.066 3.29703 108.863 2.23312 106.314Z" fill="#FF6B00"/>
    <path d="M0.348562 83.3904C-0.608952 81.097 0.474017 78.4616 2.76744 77.504C5.06086 76.5465 7.69627 77.6295 8.65378 79.9229C9.6113 82.2163 8.52833 84.8518 6.2349 85.8093C3.94148 86.7668 1.30608 85.6838 0.348562 83.3904Z" fill="#FF6B00"/>
    <path d="M4.69488 61.6188C4.05654 60.0898 4.77852 58.3329 6.30747 57.6945C7.83641 57.0562 9.59335 57.7782 10.2317 59.3071C10.87 60.8361 10.1481 62.593 8.61911 63.2314C7.09016 63.8697 5.33322 63.1477 4.69488 61.6188Z" fill="#FF6B00"/>
    <path d="M12.9258 40.771C12.5002 39.7517 12.9815 38.5804 14.0008 38.1549C15.0201 37.7293 16.1914 38.2106 16.617 39.2299C17.0425 40.2492 16.5612 41.4205 15.5419 41.8461C14.5226 42.2716 13.3513 41.7903 12.9258 40.771Z" fill="#FF6B00"/>
    <path d="M52.8103 11.6949C52.2783 10.4208 52.88 8.95665 54.1541 8.4247C55.4282 7.89275 56.8923 8.4944 57.4243 9.76852C57.9562 11.0426 57.3546 12.5068 56.0805 13.0387C54.8063 13.5707 53.3422 12.969 52.8103 11.6949Z" fill="#FF8025"/>
    <path d="M37.6948 25.6188C37.0565 24.0898 37.7785 22.3329 39.3074 21.6945C40.8364 21.0562 42.5933 21.7782 43.2316 23.3071C43.87 24.8361 43.148 26.593 41.6191 27.2313C40.0901 27.8697 38.3332 27.1477 37.6948 25.6188Z" fill="#FF8025"/>
    <path d="M25.464 42.4665C24.6128 40.4279 25.5755 38.0853 27.6141 37.2342C29.6527 36.3831 31.9952 37.3457 32.8464 39.3843C33.6975 41.4229 32.7349 43.7655 30.6963 44.6166C28.6577 45.4677 26.3151 44.5051 25.464 42.4665Z" fill="#FF8025"/>
    <path d="M18.2331 62.3143C17.1692 59.766 18.3725 56.8378 20.9207 55.7739C23.469 54.71 26.3972 55.9133 27.4611 58.4615C28.525 61.0098 27.3217 63.938 24.7735 65.0019C22.2252 66.0658 19.297 64.8625 18.2331 62.3143Z" fill="#FF8025"/>
    <path d="M16.2331 82.3143C15.1692 79.766 16.3725 76.8378 18.9207 75.7739C21.469 74.71 24.3972 75.9133 25.4611 78.4615C26.525 81.0098 25.3217 83.938 22.7735 85.0019C20.2252 86.0658 17.297 84.8625 16.2331 82.3143Z" fill="#FF8025"/>
    <path d="M18.2331 102.314C17.1692 99.766 18.3725 96.8378 20.9207 95.7739C23.469 94.71 26.3972 95.9133 27.4611 98.4615C28.525 101.01 27.3217 103.938 24.7735 105.002C22.2252 106.066 19.297 104.863 18.2331 102.314Z" fill="#FF8025"/>
    <path d="M24.1176 121.238C22.9473 118.435 24.271 115.214 27.074 114.044C29.8771 112.873 33.0982 114.197 34.2685 117C35.4388 119.803 34.1151 123.024 31.3121 124.195C28.509 125.365 25.2879 124.041 24.1176 121.238Z" fill="#FF8025"/>
    <path d="M35.1176 137.238C33.9473 134.435 35.271 131.214 38.074 130.044C40.8771 128.873 44.0982 130.197 45.2685 133C46.4388 135.803 45.1151 139.024 42.3121 140.195C39.509 141.365 36.2879 140.041 35.1176 137.238Z" fill="#FF8025"/>
    <path d="M50.2331 150.314C49.1692 147.766 50.3725 144.838 52.9207 143.774C55.469 142.71 58.3972 143.913 59.4611 146.462C60.525 149.01 59.3217 151.938 56.7735 153.002C54.2252 154.066 51.297 152.863 50.2331 150.314Z" fill="#FF8025"/>
    <path d="M67.2331 159.314C66.1692 156.766 67.3725 153.838 69.9207 152.774C72.469 151.71 75.3972 152.913 76.4611 155.462C77.525 158.01 76.3217 160.938 73.7735 162.002C71.2252 163.066 68.297 161.863 67.2331 159.314Z" fill="#FF8025"/>
    <path d="M86.3485 163.39C85.391 161.097 86.474 158.462 88.7674 157.504C91.0608 156.547 93.6962 157.63 94.6537 159.923C95.6112 162.216 94.5283 164.852 92.2348 165.809C89.9414 166.767 87.306 165.684 86.3485 163.39Z" fill="#FF8025"/>
    <path d="M106.464 163.467C105.613 161.428 106.575 159.085 108.614 158.234C110.653 157.383 112.995 158.346 113.846 160.384C114.697 162.423 113.735 164.765 111.696 165.617C109.658 166.468 107.315 165.505 106.464 163.467Z" fill="#FF8025"/>
    <path d="M125.695 157.619C125.056 156.09 125.778 154.333 127.307 153.695C128.836 153.056 130.593 153.778 131.232 155.307C131.87 156.836 131.148 158.593 129.619 159.231C128.09 159.87 126.333 159.148 125.695 157.619Z" fill="#FF8025"/>
    <path d="M143.926 146.771C143.5 145.752 143.981 144.58 145.001 144.155C146.02 143.729 147.191 144.211 147.617 145.23C148.042 146.249 147.561 147.421 146.542 147.846C145.523 148.272 144.351 147.79 143.926 146.771Z" fill="#FF8025"/>
    <path d="M116.81 146.695C116.278 145.421 116.88 143.957 118.154 143.425C119.428 142.893 120.892 143.494 121.424 144.769C121.956 146.043 121.355 147.507 120.08 148.039C118.806 148.571 117.342 147.969 116.81 146.695Z" fill="#FF8B38"/>
    <path d="M98.6948 149.619C98.0565 148.09 98.7785 146.333 100.307 145.695C101.836 145.056 103.593 145.778 104.232 147.307C104.87 148.836 104.148 150.593 102.619 151.231C101.09 151.87 99.3332 151.148 98.6948 149.619Z" fill="#FF8B38"/>
    <path d="M81.5794 147.543C80.8347 145.759 81.677 143.709 83.4607 142.964C85.2445 142.22 87.2943 143.062 88.039 144.846C88.7837 146.63 87.9414 148.679 86.1577 149.424C84.3739 150.169 82.3241 149.326 81.5794 147.543Z" fill="#FF8B38"/>
    <path d="M65.464 140.467C64.6128 138.428 65.5755 136.085 67.6141 135.234C69.6527 134.383 71.9952 135.346 72.8464 137.384C73.6975 139.423 72.7349 141.766 70.6963 142.617C68.6577 143.468 66.3151 142.505 65.464 140.467Z" fill="#FF8B38"/>
    <path d="M51.3485 129.39C50.391 127.097 51.474 124.462 53.7674 123.504C56.0608 122.547 58.6962 123.63 59.6537 125.923C60.6112 128.216 59.5283 130.852 57.2349 131.809C54.9414 132.767 52.306 131.684 51.3485 129.39Z" fill="#FF8B38"/>
    <path d="M40.2331 116.314C39.1692 113.766 40.3725 110.838 42.9207 109.774C45.469 108.71 48.3972 109.913 49.4611 112.462C50.525 115.01 49.3217 117.938 46.7735 119.002C44.2252 120.066 41.297 118.863 40.2331 116.314Z" fill="#FF8B38"/>
    <path d="M33.6928 100.7C32.6289 98.152 33.8322 95.2238 36.3804 94.1599C38.9287 93.096 41.8569 94.2993 42.9208 96.8475C43.9847 99.3958 42.7814 102.324 40.2332 103.388C37.6849 104.452 34.7567 103.249 33.6928 100.7Z" fill="#FF8B38"/>
    <path d="M31.2331 83.3143C30.1692 80.7661 31.3725 77.8378 33.9207 76.7739C36.469 75.71 39.3972 76.9133 40.4611 79.4616C41.525 82.0098 40.3217 84.938 37.7735 86.0019C35.2252 87.0658 32.297 85.8625 31.2331 83.3143Z" fill="#FF8B38"/>
    <path d="M32.2331 65.3143C31.1692 62.7661 32.3725 59.8378 34.9207 58.7739C37.469 57.71 40.3972 58.9133 41.4611 61.4616C42.525 64.0098 41.3217 66.938 38.7735 68.0019C36.2252 69.0658 33.297 67.8625 32.2331 65.3143Z" fill="#FF8B38"/>
    <path d="M38.3485 48.3904C37.391 46.097 38.474 43.4616 40.7674 42.5041C43.0608 41.5466 45.6962 42.6295 46.6537 44.923C47.6112 47.2164 46.5283 49.8518 44.2349 50.8093C41.9414 51.7668 39.306 50.6839 38.3485 48.3904Z" fill="#FF8B38"/>
    <path d="M48.464 32.4666C47.6128 30.428 48.5755 28.0854 50.6141 27.2343C52.6527 26.3831 54.9952 27.3458 55.8464 29.3844C56.6975 31.423 55.7349 33.7655 53.6963 34.6167C51.6577 35.4678 49.3151 34.5052 48.464 32.4666Z" fill="#FF8B38"/>
    <path d="M61.5794 19.5427C60.8347 17.7589 61.677 15.7092 63.4607 14.9644C65.2445 14.2197 67.2943 15.062 68.039 16.8458C68.7837 18.6295 67.9414 20.6793 66.1577 21.424C64.3739 22.1688 62.3241 21.3265 61.5794 19.5427Z" fill="#FF8B38"/>
    <path d="M76.6948 9.61881C76.0565 8.08987 76.7785 6.33293 78.3074 5.69459C79.8364 5.05624 81.5933 5.77822 82.2316 7.30717C82.87 8.83612 82.148 10.5931 80.6191 11.2314C79.0901 11.8697 77.3332 11.1478 76.6948 9.61881Z" fill="#FF8B38"/>
    <path d="M94.9257 2.77107C94.5001 1.75177 94.9815 0.580478 96.0008 0.154916C97.0201 -0.270645 98.1914 0.210674 98.6169 1.22997C99.0425 2.24927 98.5612 3.42056 97.5419 3.84613C96.5226 4.27169 95.3513 3.79037 94.9257 2.77107Z" fill="#FF8B38"/>
    <path d="M133.926 11.771C133.5 10.7517 133.981 9.58043 135.001 9.15487C136.02 8.72931 137.191 9.21062 137.617 10.2299C138.043 11.2492 137.561 12.4205 136.542 12.8461C135.523 13.2716 134.351 12.7903 133.926 11.771Z" fill="#FF9E58"/>
    <path d="M118.346 11.3126C117.814 10.0384 118.415 8.57433 119.69 8.04238C120.964 7.51043 122.428 8.11207 122.96 9.3862C123.492 10.6603 122.89 12.1244 121.616 12.6564C120.342 13.1883 118.878 12.5867 118.346 11.3126Z" fill="#FF9E58"/>
    <path d="M100.695 12.6188C100.057 11.0898 100.779 9.33288 102.307 8.69454C103.836 8.05619 105.593 8.77817 106.232 10.3071C106.87 11.8361 106.148 13.593 104.619 14.2313C103.09 14.8697 101.333 14.1477 100.695 12.6188Z" fill="#FF9E58"/>
    <path d="M85.731 19.0059C84.9863 17.2221 85.8286 15.1724 87.6124 14.4276C89.3962 13.6829 91.4459 14.5252 92.1907 16.309C92.9354 18.0928 92.0931 20.1425 90.3093 20.8872C88.5255 21.632 86.4758 20.7897 85.731 19.0059Z" fill="#FF9E58"/>
    <path d="M71.464 28.4665C70.6129 26.4279 71.5755 24.0853 73.6141 23.2342C75.6527 22.3831 77.9953 23.3457 78.8464 25.3843C79.6975 27.4229 78.7349 29.7655 76.6963 30.6166C74.6577 31.4677 72.3151 30.5051 71.464 28.4665Z" fill="#FF9E58"/>
    <path d="M59.464 40.4665C58.6129 38.4279 59.5755 36.0853 61.6141 35.2342C63.6527 34.3831 65.9953 35.3457 66.8464 37.3843C67.6975 39.4229 66.7349 41.7655 64.6963 42.6166C62.6577 43.4677 60.3151 42.5051 59.464 40.4665Z" fill="#FF9E58"/>
    <path d="M51.464 54.4665C50.6129 52.4279 51.5755 50.0853 53.6141 49.2342C55.6527 48.3831 57.9953 49.3457 58.8464 51.3843C59.6975 53.4229 58.7349 55.7655 56.6963 56.6166C54.6577 57.4677 52.3151 56.5051 51.464 54.4665Z" fill="#FF9E58"/>
    <path d="M46.3485 69.3904C45.391 67.097 46.474 64.4616 48.7674 63.504C51.0608 62.5465 53.6962 63.6295 54.6538 65.9229C55.6113 68.2163 54.5283 70.8517 52.2349 71.8093C49.9415 72.7668 47.3061 71.6838 46.3485 69.3904Z" fill="#FF9E58"/>
    <path d="M46.464 85.4665C45.6129 83.4279 46.5755 81.0853 48.6141 80.2342C50.6527 79.3831 52.9953 80.3457 53.8464 82.3843C54.6975 84.4229 53.7349 86.7655 51.6963 87.6166C49.6577 88.4677 47.3151 87.5051 46.464 85.4665Z" fill="#FF9E58"/>
    <path d="M50.464 100.467C49.6129 98.4279 50.5755 96.0853 52.6141 95.2342C54.6527 94.3831 56.9953 95.3457 57.8464 97.3843C58.6975 99.4229 57.7349 101.765 55.6963 102.617C53.6577 103.468 51.3151 102.505 50.464 100.467Z" fill="#FF9E58"/>
    <path d="M57.5794 114.543C56.8347 112.759 57.677 110.709 59.4608 109.964C61.2445 109.22 63.2943 110.062 64.039 111.846C64.7838 113.629 63.9415 115.679 62.1577 116.424C60.3739 117.169 58.3242 116.326 57.5794 114.543Z" fill="#FF9E58"/>
    <path d="M68.6949 125.619C68.0565 124.09 68.7785 122.333 70.3074 121.695C71.8364 121.056 73.5933 121.778 74.2317 123.307C74.87 124.836 74.148 126.593 72.6191 127.231C71.0901 127.87 69.3332 127.148 68.6949 125.619Z" fill="#FF9E58"/>
    <path d="M81.8103 134.695C81.2784 133.421 81.88 131.957 83.1541 131.425C84.4282 130.893 85.8924 131.494 86.4243 132.769C86.9563 134.043 86.3546 135.507 85.0805 136.039C83.8064 136.571 82.3423 135.969 81.8103 134.695Z" fill="#FF9E58"/>
    <path d="M97.9257 139.771C97.5002 138.752 97.9815 137.58 99.0008 137.155C100.02 136.729 101.191 137.211 101.617 138.23C102.043 139.249 101.561 140.421 100.542 140.846C99.5226 141.272 98.3513 140.79 97.9257 139.771Z" fill="#FF9E58"/>
</svg>
