<svg width="100" height="100" viewBox="0 0 100 100" fill="none" xmlns="http://www.w3.org/2000/svg">
<path d="M21.7773 9.96094H75.4883L75.9766 10.0586L76.3672 10.3516L76.6113 10.6445L76.7578 11.0352V18.8477L76.5625 19.3359L76.2695 19.6777L75.9277 19.873L75.6836 19.9219L74.9023 19.9707H72.8516V37.6465H73.3398L74.7559 37.8418L76.123 38.1348L77.2949 38.4766L78.6133 38.9648L79.9805 39.5996L81.0059 40.1855L82.0312 40.8691L82.8125 41.4551L83.3496 41.8945L83.8379 42.334L84.2285 42.6758L84.9609 43.4082L85.3027 43.7988L85.8398 44.4336L86.4258 45.2148L87.1094 46.2402L87.6465 47.168L88.0371 47.9492L88.4277 48.7793L88.916 50.0977L89.2578 51.2695L89.502 52.3438L89.6973 53.6133L89.7949 54.541V57.7637L89.5996 60.2539L89.3555 62.0605L89.0625 63.7695L88.6719 65.5273L88.1836 67.2852L87.793 68.5059L87.4512 69.5312L87.0605 70.5566L86.4746 71.9727L85.8887 73.2422L84.9609 75.0977L84.3262 76.2207L83.7402 77.1973L83.0566 78.2715L82.5684 79.0039L81.9824 79.834L81.4941 80.5176L80.8594 81.3477L80.2246 82.1289L79.7852 82.666L79.248 83.3008L78.8086 83.7891L78.4668 84.1797L77.9297 84.7656L75.7324 86.9629L75.3418 87.3047L75.1465 87.4023V87.5L74.6094 87.9395L74.1211 88.3789L73.1445 89.1602L72.2656 89.7949L71.8262 89.9902H71.1426L70.6055 89.6973L69.7266 89.0137L68.8965 88.3301L68.5059 87.9883L67.8223 87.4023L67.0898 86.7188L66.4551 86.1328L65.4297 85.1074L65.0879 84.7168L64.7461 84.375L64.4043 83.9844L63.5254 83.0078L63.0859 82.4707L62.4023 81.6406L62.207 81.3477L11.3281 81.2988L10.8398 81.1523L10.498 80.8594L10.2539 80.4688L10.1562 80.0293V43.8965L10.3027 43.457L10.6934 43.0176L11.377 42.627L14.9414 40.7715L18.9941 38.6719L19.9219 38.1836L23.3398 36.4258L24.2676 35.9375L24.4629 35.8887V20.9473L24.5117 19.9707H22.0215L21.3867 19.873L20.8984 19.5312L20.7031 19.2871L20.5566 18.8965V11.0352L20.752 10.5469L21.0938 10.2051L21.4355 10.0098L21.7773 9.96094ZM23.1934 12.5977V17.334H74.1211V12.5977H23.1934ZM27.1484 19.9707L27.0996 21.2891V78.6621H33.0078L33.0566 56.9336L33.252 56.4941L33.4961 56.2012L33.8379 56.0059L33.9355 55.957L35.3027 55.9082H53.125L53.2227 55.5664L53.3691 53.6621L53.6133 52.1484L54.0039 50.5859L54.3945 49.4629L54.834 48.3887L55.3711 47.2656L56.0059 46.1914L56.3965 45.6055L56.8848 44.9219L57.2266 44.4824V36.377L57.4219 35.9375L57.6172 35.6934L58.1543 35.4004L59.3262 35.3516H65.2344L66.0645 35.4004L66.4551 35.5469L66.6992 35.791L66.8945 36.0352L66.9922 36.2793L67.041 36.5723V38.1348L68.3105 37.8906L70.166 37.6465L70.2148 36.8164V19.9707H27.1484ZM59.8633 37.9395L59.8145 37.9883V41.748L60.0098 41.6992L60.5957 41.2109L61.2793 40.7227L62.1094 40.1855L63.1836 39.5996L64.4531 38.9648V37.9883L64.4043 37.9395H59.8633ZM24.4629 38.8184L22.6074 39.7461L21.6797 40.2344L20.0684 41.0645L19.1406 41.5527L17.334 42.4805L16.4062 42.9688L14.7949 43.7988L13.6719 44.3848L12.8418 44.8242L12.793 45.6543V78.6621H24.4629L24.5117 76.6602V38.8184H24.4629ZM70.7031 40.1855L69.5801 40.2832L68.1152 40.5273L66.8457 40.8691L65.7227 41.2598L64.5508 41.7969L63.623 42.2852L62.6953 42.8711L61.6699 43.6523L60.9863 44.2383L59.7168 45.5078L59.2773 46.0449L58.5938 46.9727L58.1055 47.7051L57.8125 48.1934L57.4219 48.9746L56.9336 50.0488L56.5918 51.0254L56.25 52.1973L56.0059 53.4668L55.8594 54.7363V57.4707L56.0059 59.4727L56.25 61.4746L56.543 63.0859L56.9336 64.8438L57.4219 66.6016L58.2031 68.8965L58.8379 70.459L59.5703 72.0703L60.4004 73.7305L61.084 74.9023L61.5234 75.6836L62.207 76.7578L62.9395 77.832L63.5742 78.7109L64.1602 79.4922L64.5508 79.9805L65.0879 80.6641L65.625 81.2988L66.2109 81.9824L66.748 82.5684L67.0898 82.959L67.5293 83.3984L67.8711 83.7891L68.6523 84.5703H68.75L68.7988 84.7168L69.1895 85.0586L69.9707 85.791L70.6543 86.377L71.4355 87.0117L71.6797 86.9629L72.168 86.5234L72.7051 86.084L73.291 85.5469L73.6816 85.2051L74.1211 84.7656L74.5117 84.4238L75.5859 83.3496V83.252H75.6836V83.1543H75.7812L76.123 82.7637L76.7578 82.0801L77.1973 81.543L77.7344 80.957L78.2715 80.2734L78.9551 79.3945L79.6875 78.418L80.3711 77.4414L81.1035 76.3184L81.7871 75.1953L82.4219 74.1211L82.7637 73.4375L83.252 72.5098L83.9844 70.9473L84.7168 69.1895L85.3027 67.5293L85.7422 66.1133L86.1328 64.6484L86.5234 62.8906L86.8164 61.1816L87.0605 59.082L87.1582 57.5684V54.6875L87.0117 53.418L86.7676 52.1484L86.377 50.8301L85.9375 49.6582L85.3027 48.3398L84.7168 47.3633L84.0332 46.3867L83.5938 45.8496L82.7148 44.873L82.1289 44.2871L81.5918 43.8477L81.0059 43.3594L80.1758 42.7734L79.2969 42.2363L78.1738 41.6504L77.3926 41.3086L76.1719 40.8691L75.0977 40.5762L73.7793 40.332L72.9492 40.2344L72.2168 40.1855H70.7031ZM35.6445 58.4961V78.6621H47.3145L47.3633 75.6836V58.9355L47.3145 58.4961H35.6445ZM50 58.4961L49.9512 59.9121V78.6621H60.2539L60.0098 78.2227L59.4727 77.3926L58.8867 76.416L58.252 75.293L57.666 74.2188L57.1289 73.0957L56.5918 71.9238L55.8594 70.1172L55.2734 68.457L54.6875 66.5527L54.248 64.7949L53.8574 62.8418L53.5645 60.8887L53.3203 58.5449L53.2715 58.4961H50Z" fill="url(#paint0_linear_63_25607)"/>
<path d="M71.0938 46.582H71.9727L72.9004 46.6797L73.877 46.875L74.6582 47.1191L75.4883 47.4609L76.3184 47.9004L77.1484 48.4863L77.6855 48.9258L78.5645 49.8047L79.1992 50.6348L79.6387 51.3672L80.1758 52.4902L80.4688 53.3691L80.6641 54.1992L80.7617 54.8828L80.8105 55.5664V56.2988L80.6641 57.5195L80.4199 58.5449L80.0781 59.4727L79.6875 60.3027L79.1016 61.2305L78.5645 61.9141L77.8809 62.6465L77.2461 63.1836L76.4648 63.7207L75.6836 64.1602L74.8047 64.5508L73.8281 64.8438L73.2422 64.9902L72.168 65.1367H70.8008L69.4824 64.9414L68.5059 64.6484L67.7246 64.3555L66.7969 63.8672L66.0645 63.3789L65.5273 62.9395L65.0391 62.5L64.5996 62.0605L64.1602 61.5234L63.6719 60.8398L63.1836 59.9609L62.793 59.082L62.4512 57.959L62.2559 56.7383V54.9805L62.4512 53.8086L62.7441 52.7832L62.9883 52.1484L63.4766 51.2207L63.916 50.5371L64.3555 49.9512L65.0879 49.1699L65.4297 48.8281L66.2598 48.1934L67.2363 47.6074L68.0664 47.2168L68.9453 46.9238L69.7266 46.7285L70.4102 46.6309L71.0938 46.582ZM70.9961 49.2188L70.0195 49.3652L69.1895 49.6094L68.1641 50.0977L67.334 50.6836L66.6992 51.2695L66.2598 51.7578L65.7715 52.4902L65.2832 53.5156L65.0391 54.2969L64.8926 55.1758V56.5918L65.0391 57.4219L65.332 58.3496L65.7227 59.1797L66.2598 59.9609L66.7969 60.5469L67.2363 60.9863L68.0664 61.5723L68.8477 61.9629L69.6289 62.2559L70.5078 62.4512L70.9473 62.5H72.1191L72.998 62.3535L73.8281 62.1094L74.6094 61.7676L75.3906 61.2793L75.9277 60.8398L76.2207 60.5957V60.498L76.3672 60.4492L76.8066 59.9121L77.1484 59.4238L77.5391 58.7402L77.8809 57.8125L78.0762 57.0312L78.1738 56.0547L78.125 55.0781L77.9297 54.1016L77.6367 53.2227L77.1484 52.2949L76.5625 51.5137L76.1719 51.0742H76.0742V50.9766L75.2441 50.3418L74.5117 49.9023L73.5352 49.5117L72.7539 49.3164L72.0215 49.2188H70.9961Z" fill="url(#paint1_linear_63_25607)"/>
<path d="M58.5449 22.4609H65.5762L66.1621 22.5098L66.6504 22.8027L66.9434 23.1934L67.041 23.4375L67.0898 23.7305V30.8105L67.041 31.3965L66.8457 31.7871L66.5527 32.1289L66.1133 32.3242L65.8691 32.373H58.252L57.7637 32.1777L57.4219 31.8359L57.2266 31.4941L57.1777 31.2988V23.4863L57.4219 22.998L57.8125 22.6562L58.1055 22.5098L58.5449 22.4609ZM59.8145 25.0977V29.7363H64.4531V25.4395L64.4043 25.0977H59.8145Z" fill="url(#paint2_linear_63_25607)"/>
<path d="M45.0195 22.4609H52.0996L52.6855 22.5098L53.0762 22.7051L53.418 23.0957L53.5645 23.3887L53.6133 23.584V31.25L53.4668 31.6406L53.2715 31.9336L52.9297 32.2266L52.6855 32.3242L52.3926 32.373H44.7754L44.3848 32.2266L43.9941 31.8848L43.75 31.4453L43.7012 31.2012V23.584L43.8965 23.0957L44.1895 22.7539L44.6289 22.5098L45.0195 22.4609ZM46.3379 25.0977V29.7363H50.9766V25.0977H46.3379Z" fill="url(#paint3_linear_63_25607)"/>
<path d="M31.543 22.4609H38.623L39.209 22.5098L39.5996 22.7051L39.9414 23.0469L40.1367 23.4863V31.3477L39.8438 31.9336L39.5508 32.1777L39.209 32.3242L38.9648 32.373H31.3477L30.957 32.2266L30.5664 31.9336L30.3223 31.4941L30.2734 31.3965L30.2246 30.9082V23.8281L30.3223 23.291L30.6641 22.8027L31.1523 22.5098L31.543 22.4609ZM32.9102 25.0977L32.8613 25.1953V29.7363H37.5V25.0977H32.9102Z" fill="url(#paint4_linear_63_25607)"/>
<path d="M46.0938 35.3027H51.6602L52.5879 35.3516L52.9785 35.498L53.3203 35.791L53.5645 36.2305L53.6133 36.4258V44.1406L53.418 44.6289L53.1738 44.9219L52.7344 45.166L52.5391 45.2148H44.7266L44.2383 44.9707L43.8477 44.5312L43.7012 44.043V36.4258L43.8477 36.084L44.043 35.791L44.3848 35.498L44.6777 35.3516L46.0938 35.3027ZM46.3867 37.9395L46.3379 37.9883V42.627H50.9277L50.9766 42.5781V37.9883L50.9277 37.9395H46.3867Z" fill="url(#paint5_linear_63_25607)"/>
<path d="M32.5684 35.3027H38.1836L39.1602 35.3516L39.6484 35.5957L39.9902 35.9863L40.1367 36.3281V44.1895L39.9414 44.6289L39.6484 44.9707L39.2578 45.166L39.0625 45.2148H31.2988L30.9082 45.0684L30.5176 44.7266L30.2734 44.2383L30.2246 43.7988V36.5723L30.3223 36.1816L30.5664 35.791L30.9082 35.498L31.2012 35.3516L32.5684 35.3027ZM32.959 37.9395L32.8613 38.0371V42.5781L32.9102 42.627H37.5V37.9883L37.4512 37.9395H32.959Z" fill="url(#paint6_linear_63_25607)"/>
<defs>
<linearGradient id="paint0_linear_63_25607" x1="49.9756" y1="9.96094" x2="49.9756" y2="89.9902" gradientUnits="userSpaceOnUse">
<stop stop-color="#FF8025"/>
<stop offset="1" stop-color="#FF8B38"/>
</linearGradient>
<linearGradient id="paint1_linear_63_25607" x1="71.5332" y1="46.582" x2="71.5332" y2="65.1367" gradientUnits="userSpaceOnUse">
<stop stop-color="#FF8025"/>
<stop offset="1" stop-color="#FF8B38"/>
</linearGradient>
<linearGradient id="paint2_linear_63_25607" x1="62.1338" y1="22.4609" x2="62.1338" y2="32.373" gradientUnits="userSpaceOnUse">
<stop stop-color="#FF8025"/>
<stop offset="1" stop-color="#FF8B38"/>
</linearGradient>
<linearGradient id="paint3_linear_63_25607" x1="48.6572" y1="22.4609" x2="48.6572" y2="32.373" gradientUnits="userSpaceOnUse">
<stop stop-color="#FF8025"/>
<stop offset="1" stop-color="#FF8B38"/>
</linearGradient>
<linearGradient id="paint4_linear_63_25607" x1="35.1807" y1="22.4609" x2="35.1807" y2="32.373" gradientUnits="userSpaceOnUse">
<stop stop-color="#FF8025"/>
<stop offset="1" stop-color="#FF8B38"/>
</linearGradient>
<linearGradient id="paint5_linear_63_25607" x1="48.6572" y1="35.3027" x2="48.6572" y2="45.2148" gradientUnits="userSpaceOnUse">
<stop stop-color="#FF8025"/>
<stop offset="1" stop-color="#FF8B38"/>
</linearGradient>
<linearGradient id="paint6_linear_63_25607" x1="35.1807" y1="35.3027" x2="35.1807" y2="45.2148" gradientUnits="userSpaceOnUse">
<stop stop-color="#FF8025"/>
<stop offset="1" stop-color="#FF8B38"/>
</linearGradient>
</defs>
</svg>
