<svg width="100" height="100" viewBox="0 0 100 100" fill="none" xmlns="http://www.w3.org/2000/svg">
<g clip-path="url(#clip0_34_130)">
<path d="M41.4275 1.85263C37.2376 3.23769 33.7035 6.99193 32.7198 11.0742C32.2826 12.8602 32.3919 16.3593 32.902 17.635C33.0477 18.0724 32.6834 18.5827 31.554 19.3846C23.6478 25.1799 17.8913 34.7296 16.3247 44.6437L15.851 47.4867H13.7743C6.01394 47.4867 -0.325526 54.5942 0.913219 61.9205C1.56903 65.7841 5.90463 73.5112 11.0418 79.9992C13.7379 83.4254 14.4666 83.0973 19.2758 76.0262L21.899 72.1626L22.5913 73.0374C28.3842 80.3636 32.8291 83.8992 40.0066 86.9244C43.9414 88.6011 47.1111 89.3665 51.4832 89.731C58.5513 90.3142 65.2915 89.1478 71.5581 86.159L75.2379 84.4095L76.1124 86.0861C79.027 91.5899 84.9293 99.9003 86.168 100.228C87.5161 100.556 88.4998 99.6087 91.7788 94.9068C96.8796 87.5805 99.7578 81.5665 99.7578 78.2861C99.7578 76.2449 98.3733 72.5636 96.916 70.6318C95.7865 69.1374 92.7625 66.8411 91.3052 66.3672C91.123 66.2944 91.4145 65.0551 91.9246 63.5607C94.6571 55.5055 94.6207 45.5914 91.8517 37.9006C88.4269 28.2781 81.4317 20.2958 72.5054 15.8126C69.2993 14.2088 64.3807 12.6415 60.8831 12.0948C57.9319 11.6574 57.9319 11.6574 57.6769 10.4546C57.3854 8.74148 55.0537 5.46107 53.1227 3.96667C49.8801 1.45169 45.1802 0.613364 41.4275 1.85263ZM48.277 4.6592C50.463 5.31528 53.1956 7.61156 54.325 9.7256C54.9079 10.8555 55.0901 11.8761 55.1266 13.9537C55.1266 16.3593 54.9808 17.0154 53.7785 19.421C52.4669 22.1182 46.2003 31.923 45.5081 32.3604C44.9616 32.6884 39.5329 24.8155 37.3833 20.5509C35.5617 16.9789 35.4524 16.6509 35.4524 13.9901C35.4888 10.8555 35.9989 9.5069 38.1485 7.28352C40.9174 4.33116 44.2693 3.45638 48.277 4.6592ZM64.5264 15.849C66.0567 16.25 67.4047 16.6873 67.514 16.8331C67.5869 16.9789 67.4047 17.9995 67.1132 19.093C66.8218 20.1864 66.421 21.6444 66.2388 22.3734C66.0567 23.1024 65.0365 24.6332 64.0164 25.836C60.8466 29.408 60.118 31.8866 61.466 34.3651L62.1583 35.6408L59.28 38.9212C56.0374 42.6754 54.9079 44.6801 54.6529 47.1951C54.325 50.5484 56.2924 52.954 59.9358 53.683C61.1017 53.9017 62.3404 54.1933 62.7048 54.2662C63.0691 54.3755 63.9071 55.6148 64.6357 56.9999C66.3846 60.5354 67.259 61.0093 71.7403 60.9364C73.6349 60.8999 75.4201 60.9728 75.6387 61.1186C75.8937 61.2644 76.4403 62.0663 76.841 62.8681C78.0433 65.2009 79.1728 66.0757 81.1038 66.0757H82.7797L80.8852 67.0233C78.4077 68.2626 75.6023 71.3608 74.6186 73.9486C73.8899 75.9533 73.5984 79.4889 74.0356 80.9104C74.2178 81.4571 73.8535 81.8216 72.1411 82.7328C66.9675 85.5394 61.3203 86.9244 54.9444 86.9244C47.439 86.9244 40.8081 84.9927 34.9787 81.0926C34.5779 80.8375 34.7965 80.1449 35.9989 77.7758C36.8004 76.1356 37.7477 74.6776 38.0756 74.5683C38.4035 74.4589 40.4438 74.9692 42.6298 75.6982C46.0546 76.8645 47.0747 77.0468 49.7708 77.0468C54.5436 77.0103 55.8188 75.8075 55.5638 71.3608C55.3452 67.2785 53.4142 64.399 48.9328 61.4102C45.6538 59.1868 42.812 58.0933 39.7515 57.8017C37.274 57.5831 37.2376 57.5466 37.857 55.3597C38.4764 53.0998 37.7112 51.1316 34.6144 47.0493C33.157 45.0811 31.7726 42.9306 31.5904 42.2745C31.4082 41.6549 31.2625 39.7595 31.2625 38.1193C31.2625 33.2352 29.9873 31.194 26.3439 30.465L24.9959 30.1735L26.4168 28.351C28.2021 26.1276 33.3756 21.2435 33.9586 21.2435C34.2136 21.2435 34.7965 21.936 35.2702 22.7743C36.6182 25.2893 39.9337 30.3192 42.0833 33.1623C43.8685 35.5314 44.1964 35.823 45.2895 35.823C46.3825 35.823 46.7104 35.5314 48.4956 33.1623C53.1956 26.9295 56.9118 20.2958 57.8955 16.4687L58.3691 14.6098L60.0451 14.8649C60.9559 14.9742 62.9598 15.4116 64.5264 15.849ZM72.1775 18.9107C80.1565 22.993 87.006 31.5221 89.775 40.8165C90.5401 43.368 90.7587 45.0811 90.9044 49.0176L91.123 53.9746L89.6657 54.74C88.8641 55.141 87.4432 55.6513 86.496 55.9064C84.3464 56.4531 83.1441 57.8382 82.7797 60.1709C82.4518 62.4672 82.051 63.1597 81.0309 63.1597C80.4115 63.1597 80.0472 62.7953 79.5371 61.7382C79.2092 60.9364 78.4077 59.8429 77.8247 59.2597C76.8046 58.2756 76.5496 58.2391 72.5419 58.0569L68.3155 57.8746L66.9675 55.3597C65.3644 52.2615 64.5264 51.6054 61.5753 51.0951C58.6606 50.5849 57.4947 49.6736 57.4947 47.9241C57.4947 46.0287 58.6242 44.0605 61.5389 40.7436C62.9598 39.1399 64.3807 37.3174 64.6722 36.6614C65.2187 35.6043 65.2187 35.4221 64.4536 33.9641C63.3241 31.7772 63.652 30.5379 66.0567 27.8407C68.2791 25.3622 68.9349 24.2323 69.3357 22.3369C69.8822 19.6033 70.283 18.3275 70.6473 18.3275C70.8295 18.3275 71.5217 18.5827 72.1775 18.9107ZM25.4695 33.2716C26.1253 33.2716 26.8904 33.5997 27.4005 34.1099C28.1292 34.8389 28.2749 35.3856 28.4207 38.9576C28.6393 43.5867 28.9307 44.2792 32.3191 48.7624C34.9423 52.2251 35.4888 53.5737 34.9423 55.2139C33.74 58.6765 34.9059 60.1709 39.2779 60.6448C42.7391 61.0457 45.1437 62.0663 48.3863 64.5084C51.4103 66.7682 52.7948 69.1738 52.6855 71.9075L52.5762 73.8757L51.1553 74.1673C49.2972 74.5683 46.091 74.0215 43.0306 72.7458C38.5128 70.9234 36.0353 71.5065 34.1772 74.8963C32.902 77.1926 32.3919 77.7393 31.4446 77.7393C30.2423 77.7393 27.4734 75.115 25.4331 72.0168C23.6843 69.3196 23.6478 69.2467 24.1943 68.1532C26.6354 63.4513 27.1455 59.4055 25.7974 55.7606C24.923 53.3914 22.4091 50.4391 20.2595 49.2362L18.8022 48.3979L19.0208 46.1381C19.5308 41.3268 22.737 32.652 23.9029 33.0894C24.1579 33.1987 24.8866 33.2716 25.4695 33.2716ZM17.0898 50.9493C20.4052 52.0793 22.9192 55.1045 23.6114 58.713C24.0486 61.1915 23.2106 63.9616 20.6603 68.4448C18.5836 72.0897 14.1751 78.4683 13.7379 78.4683C13.3735 78.4683 10.1674 74.0944 7.90849 70.4495C5.50386 66.5495 3.97365 63.2326 3.71861 61.1915C3.13567 56.9634 6.45114 52.0793 10.8596 50.7307C12.3898 50.2568 15.3774 50.3662 17.0898 50.9493ZM89.8843 60.2438C89.5199 61.6289 88.937 63.4149 88.6091 64.2532C88.0262 65.7112 87.9897 65.7112 86.0952 65.7112C85.0386 65.7112 83.8363 65.8205 83.472 65.9299C82.9255 66.1121 82.9255 66.0392 83.5813 65.456C84.6378 64.5813 85.0386 63.7429 85.5487 61.2279C85.7673 60.0616 86.168 59.041 86.3867 58.9681C86.6417 58.8952 87.5525 58.6036 88.4634 58.312C89.3742 58.0204 90.2122 57.7653 90.3579 57.7288C90.5037 57.7288 90.2851 58.8223 89.8843 60.2438ZM91.1595 69.5383C94.1106 70.9598 96.2966 74.1673 96.7338 77.6664C96.9889 79.8534 95.7865 82.988 92.9447 87.7628C90.4308 91.918 87.0789 96.6928 86.6417 96.6928C86.2045 96.6928 80.0108 87.3983 78.6627 84.7375C76.9503 81.3478 76.4038 79.0879 76.8046 77.0103C77.4604 73.4748 79.5007 70.814 82.634 69.3561C84.7107 68.4084 89.0099 68.4813 91.1595 69.5383Z" fill="url(#paint0_linear_34_130)"/>
<path d="M42.3726 6.94987C37.2576 9.32587 37.3896 16.4869 42.6036 18.6979C47.8836 20.8759 53.2296 15.3319 50.8206 10.1179C49.3026 6.85087 45.6066 5.46487 42.3726 6.94987ZM46.8276 9.45787C48.7416 10.4479 49.3356 12.8899 48.1476 14.8369C47.3556 16.1239 46.1016 16.6519 44.3856 16.4539C42.7686 16.2229 41.5806 15.1009 41.3166 13.4839C40.8216 10.2829 43.9566 7.97287 46.8276 9.45787Z" fill="url(#paint1_linear_34_130)"/>
<path d="M10.4616 53.8429C8.18458 55.0639 6.63358 58.0669 7.06258 60.3769C7.92058 64.9969 12.8706 67.4059 16.6986 65.0959C20.6256 62.6869 20.8236 56.7469 17.0616 54.2389C15.2796 53.0509 12.2436 52.8859 10.4616 53.8429ZM16.0056 56.9449C16.9626 57.9019 17.1276 58.2979 17.1276 59.5519C17.1276 63.0169 13.1346 64.6669 10.7586 62.1589C8.34958 59.6179 10.0656 55.8229 13.6296 55.8229C14.6196 55.8229 15.1146 56.0539 16.0056 56.9449Z" fill="url(#paint2_linear_34_130)"/>
<path d="M83.6626 72.1509C81.3196 73.4379 80.1976 75.3189 80.1976 77.8929C80.1976 80.9289 82.0786 83.3379 85.0156 84.1299C90.3616 85.5489 94.9486 79.4109 92.0776 74.6919C91.7476 74.1309 90.9226 73.2729 90.2296 72.7449C89.2396 71.9529 88.6456 71.7879 86.8306 71.7219C85.2796 71.6559 84.3556 71.7549 83.6626 72.1509ZM89.3386 75.4179C91.0546 77.3979 90.4276 80.1039 87.9856 81.3249C85.4446 82.5789 82.8376 80.7969 82.8376 77.7939C82.8376 76.5729 83.0356 76.1109 83.8276 75.2859C85.4116 73.7349 87.9196 73.8009 89.3386 75.4179Z" fill="url(#paint3_linear_34_130)"/>
</g>
<defs>
<linearGradient id="paint0_linear_34_130" x1="50.2578" y1="100.287" x2="50.2578" y2="1.2871" gradientUnits="userSpaceOnUse">
<stop stop-color="#FF8B38"/>
<stop offset="1" stop-color="#FF6B00"/>
</linearGradient>
<linearGradient id="paint1_linear_34_130" x1="45.0144" y1="19.1841" x2="45.0144" y2="6.35541" gradientUnits="userSpaceOnUse">
<stop stop-color="#FF8B38"/>
<stop offset="1" stop-color="#FF6B00"/>
</linearGradient>
<linearGradient id="paint2_linear_34_130" x1="13.3792" y1="65.9849" x2="13.3792" y2="53.2228" gradientUnits="userSpaceOnUse">
<stop stop-color="#FF8B38"/>
<stop offset="1" stop-color="#FF6B00"/>
</linearGradient>
<linearGradient id="paint3_linear_34_130" x1="86.5797" y1="84.3378" x2="86.5797" y2="71.703" gradientUnits="userSpaceOnUse">
<stop stop-color="#FF8B38"/>
<stop offset="1" stop-color="#FF6B00"/>
</linearGradient>
<clipPath id="clip0_34_130">
<rect width="100" height="100" fill="white"/>
</clipPath>
</defs>
</svg>
