<svg width="240" height="81" viewBox="0 0 240 81" fill="none" xmlns="http://www.w3.org/2000/svg">
<path fill-rule="evenodd" clip-rule="evenodd" d="M91.7047 42.9775L79.6946 58.0084L74.7717 42.9775H28.7053L18.5503 80.5671H64.4739L70.0628 59.7456L73.7966 71.3775H80.6459L90.5631 59.0658L84.7127 80.5671H95.3672L105.522 42.9775H91.7047Z" fill="#F8FF13"/>
<path d="M77.2213 37.5896L80.5746 31.3205H93.8927V37.5896H104.143V0H86.3775L65.3301 37.5896H77.2213ZM91.895 10.1968H93.8927V22.1811H85.4737L91.895 10.1968Z" fill="#F8FF13"/>
<path d="M144.882 13.923C147.236 5.21169 143.455 0 135.06 0H115.63L105.403 37.5896H116.058L118.84 27.2418H125.452L128.425 37.5896H139.388L136.32 26.5368C140.279 25.1604 143.227 21.6263 144.026 17.2968L144.882 13.923ZM132.872 18.2535H121.337L123.525 10.0709H134.989L132.872 18.2535Z" fill="#F8FF13"/>
<path fill-rule="evenodd" clip-rule="evenodd" d="M163.218 0H152.564L142.409 37.5896H153.063L163.218 0Z" fill="#F8FF13"/>
<path d="M97.0795 80.5671H108.971L112.324 74.2728H125.666V80.5671H135.892V42.9775H118.055L97.0795 80.5671ZM125.618 53.1743V65.1587H117.294L123.716 53.1743H125.618Z" fill="#F8FF13"/>
<path fill-rule="evenodd" clip-rule="evenodd" d="M173.254 42.9775H140.934L138.033 53.703H149.686L142.456 80.5671H153.111L160.34 53.703H170.353L173.254 42.9775Z" fill="#F8FF13"/>
<path fill-rule="evenodd" clip-rule="evenodd" d="M183.386 53.703H199.534L202.459 42.9775H185.264C179.33 42.4304 173.955 46.6902 172.779 52.8722L169.045 66.6189C166.667 75.431 170.496 80.5419 178.867 80.5419H192.28L195.158 69.7913H179.129L183.386 53.703Z" fill="#F8FF13"/>
<path fill-rule="evenodd" clip-rule="evenodd" d="M228.691 42.9775L225.076 56.397H212.899L216.514 42.9775H205.86L195.728 80.5671H206.383L209.998 67.1477H222.174L218.56 80.5671H229.214L239.345 42.9775H228.691Z" fill="#F8FF13"/>
<path d="M46.0901 37.5896L48.8013 27.5187H61.3584C67.2958 28.0777 72.6778 23.8126 73.8441 17.6241L74.8667 13.923C77.1974 5.3124 73.3922 0 64.9733 0H10.1313L0 37.5896H46.0901ZM64.9733 10.0709L62.8329 18.178H51.3222L53.5102 10.0709H64.9733Z" fill="#F8FF13"/>
</svg>
