<svg width="100" height="100" viewBox="0 0 100 100" fill="none" xmlns="http://www.w3.org/2000/svg">
<path d="M1.31836 15.5648H1.9043L2.44141 15.7602L2.7832 16.0043L3.125 16.4926L3.22266 16.8344V83.4359H10.1562L10.2051 67.6645L10.4004 67.1762L10.6934 66.7855L11.2305 66.4438L11.377 66.3949L21.0449 66.3461L22.2656 66.3949L22.7539 66.5414L23.2422 66.9809L23.4863 67.3715L23.584 67.8109V83.4848L29.2969 83.4359L29.3457 42.8598L29.3945 42.225L29.5898 41.7367L29.8828 41.3949L30.3711 41.102L30.7129 41.0043H41.3574L41.748 41.102L42.1875 41.3461L42.5293 41.7367L42.7246 42.1762L42.7734 42.518V83.4848L43.75 83.4359H44.7754L48.5352 83.4848V55.1156L48.6328 54.5785L48.877 54.1391L49.2188 53.7973L49.7559 53.5531L51.0742 53.5043H53.9551L60.7422 53.5531L61.1816 53.7484L61.6211 54.1391L61.8652 54.5785L61.9141 54.7738L61.9629 56.3852V82.3129L61.9141 83.4359H65.7227L67.7246 83.4848V40.4672L67.8223 39.9789L68.1152 39.4418L68.457 39.1488L68.8477 38.9535L69.0918 38.9047H79.7363L80.2246 39.0512L80.6152 39.3441L80.9082 39.6859L81.1035 40.1742V83.4359H89.1602L89.9902 83.4848L90.4785 83.6801L90.8691 84.0219L91.1621 84.4613L91.2598 84.852L91.2109 85.4867L90.9668 85.975L90.5762 86.3656L90.332 86.5121L89.9414 86.6098L86.9141 86.6586H2.14844L1.31836 86.6098L0.830078 86.4145L0.390625 86.0238L0.146484 85.5844L0 85.2426V17.0785L0.0976562 16.7855L0.244141 16.3949L0.537109 16.0043L0.927734 15.7113L1.31836 15.5648ZM70.9473 42.0785L70.8984 42.1762V83.4359L71.3379 83.4848H77.8809L77.9297 83.4359V42.0785H70.9473ZM32.5684 44.1781L32.5195 50.2328V80.6039L32.5684 83.4848H39.5996V44.1781H32.5684ZM51.8066 56.6781L51.709 56.9223V83.4359L51.7578 83.4848H58.7402L58.7891 83.1918L58.7402 56.6781H51.8066ZM13.3789 69.5199V83.4359L13.4766 83.4848H20.3613L20.4102 83.143V69.5688L20.3613 69.5199H13.3789Z" fill="url(#paint0_linear_45_155)"/>
<path d="M77.3438 1.6H78.9551L80.4688 1.74648L81.6406 1.9418L83.0078 2.28359L84.2773 2.72305L85.4004 3.21133L86.377 3.69961L87.5 4.3832L88.3789 5.01797L88.916 5.45742L89.5996 6.04336L90.7715 7.21523L91.2109 7.75234L91.6016 8.24062L92.1875 9.0707L92.8223 10.0961L93.457 11.3168L93.9941 12.6352L94.3359 13.6605L94.6289 14.8324L94.873 16.2484L94.9707 17.4203V19.0805L94.873 20.3988L94.6289 21.8148L94.3359 23.0355L93.8965 24.3539L93.4082 25.477L93.0176 26.2582L92.3828 27.3812L91.748 28.309L91.2109 28.9926L90.625 29.6762L90.2832 30.0668H90.1855V30.1645H90.0879V30.2621L89.8438 30.4574L89.6973 30.6039L89.7461 30.848L90.3809 31.9711L90.6738 32.4594L90.9668 32.3617L91.4062 32.3129L91.8945 32.4105L92.3828 32.6547L92.7734 33.0941L93.5547 34.4613L94.0918 35.3891L94.7754 36.5609L95.4102 37.684L95.8984 38.5141L96.6797 39.8812L97.3633 41.0531L97.9492 42.0785L99.3164 44.4223L99.707 45.3988L99.9512 46.3266H100V47.4496L99.9023 47.5961L99.707 48.475L99.2676 49.5004L98.877 50.0863L98.3398 50.6723L97.8516 51.1117L97.2168 51.5023L96.4844 51.8441L95.752 52.0395L95.1172 52.1371H94.2383L93.3594 51.9906L92.4316 51.6488L91.748 51.2582L91.2109 50.8187L90.7227 50.3305L90.1855 49.598L89.4531 48.3285L88.6719 46.9613L88.1836 46.1312L87.4023 44.7641L86.8652 43.8363L86.1328 42.5668L85.4492 41.3949L84.668 40.0277L83.9844 38.8559L83.5938 38.1234L83.4961 37.7816V37.3422L83.6426 36.8539L83.9355 36.4633L84.1309 36.268L84.082 36.0238L83.3984 34.8031L83.2031 34.5102V34.4125L81.8359 34.7543L80.7617 34.9496L79.541 35.0961L78.7109 35.1449H77.6855L76.3184 35.0473L74.8047 34.8031L73.6328 34.5102L72.168 34.0219L71.1426 33.5824L69.873 32.9477L68.7988 32.2641L68.0664 31.727L67.2852 31.0922L66.6992 30.5551L65.5762 29.432L65.1367 28.8949L64.4043 27.9184L63.7207 26.8441L63.1836 25.8676L62.5977 24.5492L62.2559 23.5727L61.9141 22.4008L61.6211 20.8871L61.4746 19.6664L61.4258 18.8363V18.0062L61.5234 16.5902L61.7188 15.3207L62.0117 14.0512L62.3535 12.9281L62.6953 12.0004L63.2324 10.8285L63.7207 9.90078L64.2578 9.0707L64.7461 8.38711L65.2344 7.75234L65.5273 7.36172H65.625L65.7227 7.1664L66.1621 6.72695L66.5039 6.33633L67.1387 5.75039L67.7734 5.21328L68.6523 4.57851L69.3848 4.09023L70.6055 3.40664L71.7285 2.86953L72.7539 2.4789L74.1211 2.08828L75.5371 1.79531L76.709 1.64883L77.3438 1.6ZM77.4414 4.77383L76.3672 4.87148L75.0488 5.11562L73.877 5.45742L72.8516 5.84805L71.8262 6.33633L70.8496 6.92226L70.0684 7.45937L69.2383 8.14297L68.5059 8.82656L67.9199 9.46133L67.4805 9.99844L66.8945 10.8285L66.3574 11.7074L65.918 12.5375L65.4297 13.7094L65.0391 14.9789L64.8438 15.809L64.6484 17.225V19.6176L64.8438 20.9848L65.1855 22.352L65.5273 23.3285L65.918 24.2074L66.3086 24.9887L66.8945 25.9652L67.4805 26.7465L67.9199 27.2836L68.457 27.8695L69.043 28.4555H69.1406V28.5531L69.6777 28.9926L70.2637 29.432L70.9961 29.9203L71.8262 30.4086L72.8516 30.8969L73.877 31.2875L74.9023 31.5805L75.8301 31.7758L76.9531 31.9223L77.5391 31.9711H78.9551L80.3223 31.8246L81.543 31.5805L82.8125 31.1898L83.9844 30.7016L85.1074 30.1156L86.0352 29.5297L86.6699 29.0414L87.3535 28.4555L87.5977 28.2602V28.1625L87.793 28.0648L88.0859 27.7719V27.6742H88.1836L88.5254 27.2836L88.9648 26.7465L89.502 26.0141L89.9414 25.2816L90.3809 24.5004L90.8203 23.5238L91.1621 22.5961L91.5527 21.1312L91.748 19.8617L91.7969 19.3246V17.4691L91.6504 16.1508L91.3574 14.7836L90.918 13.4652L90.4785 12.4398L89.9902 11.5121L89.4043 10.5844L88.7695 9.7543L88.2324 9.16836L87.8906 8.77773L87.5 8.38711L87.1094 8.04531L86.377 7.45937L85.3516 6.77578L84.4727 6.2875L83.4473 5.79922L82.2266 5.35976L81.1035 5.0668L79.5898 4.82265L78.8574 4.77383H77.4414ZM86.9629 32.6547L86.2305 33.0941L86.1328 33.2406L86.8164 34.4125L86.9141 34.6078L87.1582 34.559L87.8906 34.1195L87.8418 33.8754L87.1094 32.6547H86.9629ZM90.7227 36.1215L89.502 36.8051L88.3301 37.4887L87.2559 38.1234L87.5488 38.7094L88.2324 39.8812L89.0137 41.2484L89.7461 42.518L90.4297 43.6898L91.2109 45.057L91.8945 46.2289L92.2852 46.9125L92.9688 48.0844L93.2617 48.4262L93.75 48.768L94.3848 48.9633H95.0195L95.5078 48.8168L95.9961 48.5238L96.3867 48.1332L96.6797 47.5473L96.7285 47.3031V46.5219L96.5332 45.9848L96.0938 45.1547L95.6055 44.3246L93.4082 40.516L92.7246 39.3441L91.9434 37.977L91.2598 36.8051L90.8691 36.1215H90.7227Z" fill="url(#paint1_linear_45_155)"/>
<path d="M35.3027 20.8383H36.8164L37.5488 20.9848L38.4277 21.2777L39.2578 21.7172L39.8926 22.2055L40.4297 22.6938L40.8203 23.182L41.3086 23.9145L41.6992 24.8422L41.8945 25.5746L41.9922 26.2582V27.1859L41.8457 28.1137L41.6992 28.5043V28.6508L42.8223 29.432L44.043 30.2621L45.166 31.0434L47.168 32.4105L48.291 33.1918L48.877 33.5824L49.707 34.1684L50.4395 34.6566L51.3672 35.2914L51.6113 35.2426L52.2949 34.7543L53.2227 34.3148L54.1504 34.0707L55.1758 33.973L56.0547 34.0219L56.9336 34.2172L57.7637 34.5102L57.8613 34.3148L58.3984 33.6801L58.8379 33.143L59.9121 31.8734L60.3516 31.3363L60.8887 30.7016L61.3281 30.1645L61.9141 29.4809L62.3535 29.1391L62.6465 29.0414L63.1836 28.9926L63.623 29.0902L64.1113 29.3832L64.4531 29.8227L64.6484 30.3598V30.8969L64.4531 31.3852L63.9648 32.0199L63.3301 32.7523L62.9395 33.2406L62.3047 33.973L61.8652 34.5102L61.3281 35.1449L60.8887 35.682L60.5469 36.1215H60.4492L60.3516 36.3168L60.2051 36.5121L60.2539 36.7074L60.6445 37.4398L60.9863 38.3676L61.1328 39.1488V40.7113L60.9375 41.6391L60.6445 42.3715L60.3027 43.0063L59.8145 43.6898L59.2285 44.3246L58.5938 44.8129L57.8125 45.2523L57.0801 45.5453L56.2988 45.7406L55.6152 45.8383H54.8828L53.9062 45.6918L53.125 45.4477L52.2949 45.057L51.709 44.6664L51.1719 44.1781L50.9277 43.934L50.4883 43.4457L50.0488 42.7621L49.707 42.0297L49.4629 41.2484L49.3164 40.2719V39.4906L49.4629 38.5629L49.5605 38.2211V37.9281L49.0234 37.5863L48.1934 37.0004L47.1191 36.268L46.1426 35.5844L44.9707 34.8031L44.2871 34.3148L43.5059 33.7777L42.4316 33.0453L40.0879 31.434L39.9414 31.3363L39.7461 31.3852L39.0137 31.8734L38.1836 32.2641L37.3535 32.5082L36.7676 32.6059L35.9375 32.6547L35.0098 32.557L34.082 32.3129L33.4961 32.1176L32.9102 32.8012L32.4707 33.2895L32.0312 33.8266L31.4941 34.4125L31.0547 34.9496L30.5176 35.5355L30.0781 36.0727L29.8828 36.3168H29.7852L29.6875 36.5121L29.248 37.0004L28.8086 37.5375L28.2227 38.1723L27.7832 38.7094L27.2461 39.2953L26.9043 39.6859L26.3672 40.3207L25.9277 40.809L25.4883 41.3461L24.9512 41.932L24.5117 42.4691L23.9746 43.0551L23.5352 43.5922L22.9492 44.227L22.5098 44.7641L21.9727 45.35L21.9238 45.643L22.3633 46.473L22.6562 47.352L22.8027 48.2309V49.3539L22.6074 50.3305L22.3633 51.0629L21.875 51.9906L21.3867 52.6254L21.1426 52.9184H21.0449L20.9473 53.1137L20.1172 53.7484L19.1895 54.2367L18.2617 54.5297L17.334 54.6762H16.3574L15.4785 54.5297L14.5996 54.2367L13.8184 53.8461L13.2812 53.4555L12.793 53.016L12.3047 52.5277L11.8164 51.8441L11.4258 51.0629L11.1816 50.3793L11.0352 49.7934L10.9863 49.4516V48.0844L11.1816 47.1566L11.5234 46.2289L11.9141 45.5453L12.3535 44.9594L12.793 44.4711H12.8906V44.3734L13.5254 43.8852L14.1602 43.4945L14.6973 43.2504L15.4297 43.0063L16.4062 42.8598H17.3828L18.3105 43.0063L18.9453 43.2016L19.4336 43.3969L19.9219 42.8598L20.2637 42.4691L20.8496 41.7855L21.4844 41.0531L21.9238 40.5648L22.3633 40.0277L22.5586 39.7836H22.6562L22.7539 39.5883L23.1934 39.1L23.6328 38.5629L24.2188 37.9281L24.2676 37.8305H24.3652L24.4629 37.6352L25.0977 36.9027L25.5371 36.4145L26.709 35.0473L27.0996 34.6078L27.1484 34.5102H27.2461L27.3438 34.3148L27.7832 33.8266L27.832 33.7289H27.9297L28.0273 33.5336L28.4668 33.0453L28.9062 32.5082L29.4922 31.8734L30.3711 30.7992H30.4688L30.5664 30.6039L31.0547 30.0668L31.0059 29.8227L30.6152 29.0902L30.2734 28.0648L30.127 27.0395V26.5023L30.2246 25.6723L30.4688 24.7445L30.7129 24.2074L31.1035 23.475L31.6406 22.7914L32.2754 22.1566L32.8125 21.766L33.5938 21.3266L34.375 21.0336L35.0098 20.8871L35.3027 20.8383ZM35.5469 24.0121L34.9121 24.2074L34.375 24.5492L33.8379 25.0863L33.4473 25.8676L33.3496 26.2582V27.2348L33.5938 27.9672L34.0332 28.602L34.4727 28.9926L35.1562 29.3344L35.498 29.432L36.1328 29.4809L36.7676 29.3832L37.4023 29.1391L37.9395 28.7484L38.2812 28.4066L38.623 27.8207L38.8184 26.9906V26.5023L38.6719 25.8188L38.3301 25.1352L37.8906 24.6469L37.4023 24.3051L36.7676 24.0609L36.5723 24.0121H35.5469ZM54.6875 37.1957L54.1016 37.391L53.5645 37.7328L53.1738 38.0746L52.7344 38.7582L52.5391 39.393L52.4902 40.0766L52.5879 40.6625L52.832 41.2484L53.2227 41.7855L53.6133 42.1273L54.1992 42.4691L54.7363 42.6156L55.2734 42.6645L55.8105 42.6156L56.4941 42.3715L57.1289 41.932L57.5195 41.4926L57.8125 40.9555L57.959 40.4184L58.0078 39.8324L57.9102 39.1977L57.666 38.5629L57.2754 38.0258L56.8359 37.6352L56.1523 37.2934L55.7617 37.1957H54.6875ZM16.5527 46.0336L15.918 46.1801L15.2832 46.5219L14.8438 46.9125L14.502 47.4008L14.2578 47.9379L14.1602 48.3773V49.2074L14.4043 49.9887L14.7949 50.5746L15.2832 51.0141L15.8203 51.307L16.2598 51.4535L16.5527 51.5023H17.1875L17.6758 51.4047L18.2617 51.1605L18.8965 50.6723L19.2871 50.1352L19.4824 49.7445L19.6289 49.0609V48.5238L19.4824 47.8402L19.1895 47.2543L18.7988 46.766L18.2617 46.3754L17.8711 46.1801L17.334 46.0336H16.5527Z" fill="url(#paint2_linear_45_155)"/>
<path d="M73.6816 11.1215H75.1465L75.9277 11.268L76.7578 11.5609L77.4414 11.9027L78.125 12.391L78.6133 12.8305L78.9551 13.1723L79.4434 13.8559L79.9316 14.7836L80.1758 15.516L80.3223 16.3461V17.6645L80.1758 18.4945L79.8828 19.3734L79.4434 20.2035L79.0039 20.7895L78.3691 21.473L77.5391 22.059L76.8066 22.4496L75.7812 22.7914L74.8535 22.9379H73.9258L72.7051 22.6937L72.0215 22.4496H71.9238L71.7285 22.7426L71.1426 23.4262L70.7031 23.9633L70.166 24.598L69.8242 24.9887L69.4336 25.2328L68.8965 25.3793L68.3594 25.3305L67.9199 25.1352L67.5293 24.7934L67.2852 24.4027L67.1875 24.1098V23.5238L67.3828 22.9867L67.7246 22.5473L68.1641 22.0102L68.75 21.3266L69.2871 20.643L69.4824 20.4477L69.4336 20.2035L69.043 19.5199L68.7012 18.5922L68.5547 17.8598L68.5059 17.4203V16.6391L68.6523 15.6625L68.8965 14.8812L69.2871 14.0512L69.873 13.2211L70.4102 12.6352L71.2402 12.0004L72.0703 11.5609L72.9004 11.268L73.6816 11.1215ZM73.9746 14.2953L73.3398 14.4906L72.8027 14.7836L72.4609 15.0766L72.0703 15.6137L71.8262 16.1508L71.6797 16.8832L71.7285 17.5668L71.9238 18.1527L72.2656 18.7387L72.7051 19.1781L73.3887 19.5687L73.877 19.7152L74.2676 19.7641H74.707L75.3418 19.6176L75.9277 19.3246L76.416 18.934L76.7578 18.4945L77.002 18.0062L77.1484 17.4691V16.5414L76.9531 15.9066L76.709 15.4672L76.3672 15.0277L75.8301 14.6371L75.293 14.393L74.9023 14.2953H73.9746Z" fill="url(#paint3_linear_45_155)"/>
<defs>
<linearGradient id="paint0_linear_45_155" x1="45.6299" y1="15.5648" x2="45.6299" y2="86.6586" gradientUnits="userSpaceOnUse">
<stop stop-color="#FF8B38"/>
<stop offset="1" stop-color="#FF6B00"/>
</linearGradient>
<linearGradient id="paint1_linear_45_155" x1="80.7129" y1="1.6" x2="80.7129" y2="52.1371" gradientUnits="userSpaceOnUse">
<stop stop-color="#FF8B38"/>
<stop offset="1" stop-color="#FF6B00"/>
</linearGradient>
<linearGradient id="paint2_linear_45_155" x1="37.8174" y1="20.8383" x2="37.8174" y2="54.6762" gradientUnits="userSpaceOnUse">
<stop stop-color="#FF8B38"/>
<stop offset="1" stop-color="#FF6B00"/>
</linearGradient>
<linearGradient id="paint3_linear_45_155" x1="73.7549" y1="11.1215" x2="73.7549" y2="25.3793" gradientUnits="userSpaceOnUse">
<stop stop-color="#FF8B38"/>
<stop offset="1" stop-color="#FF6B00"/>
</linearGradient>
</defs>
</svg>
