<svg width="100" height="100" viewBox="0 0 100 100" fill="none" xmlns="http://www.w3.org/2000/svg">
<g clip-path="url(#clip0_45_160)">
<path d="M75.6348 0H80.0293V0.0488281L81.8359 0.341797L83.2031 0.634766L84.668 1.07422L85.6445 1.41602L86.9141 1.95312L87.8418 2.39258L88.9648 3.02734L89.9902 3.66211L90.8203 4.24805L91.4551 4.73633L91.9922 5.17578L92.4805 5.61523L92.8711 5.95703L93.1641 6.20117V6.29883L93.3594 6.39648L93.6523 6.73828L94.3359 7.42188L94.7754 7.95898L95.3125 8.59375L95.9473 9.47266L96.5332 10.3516L96.9727 11.084L97.6074 12.2559L98.1934 13.4766L98.6816 14.7461L99.0234 15.7715L99.3652 17.041L99.707 18.75L99.9023 20.3125L100 20.3613V24.0234L99.9023 24.1211L99.6582 25.9277L99.3652 27.4414L98.9746 28.8574L98.5352 30.127L97.998 31.3965L97.3633 32.7148L96.582 34.0332L95.9961 34.9121L95.5078 35.5957L94.873 36.377L94.3359 37.0117L93.7988 37.5977L92.7246 38.6719L92.334 39.0137L91.748 39.502L90.918 40.1367L90.0879 40.7227L89.1602 41.3086L88.1348 41.8945L86.7676 42.5781L85.4492 43.1152L84.1309 43.5547L82.6172 43.9453L81.3477 44.1895L79.8828 44.3848L78.6133 44.4824H76.5137L75.293 44.3848L74.1211 44.2383L74.0234 44.1895V63.3301L73.9746 64.4531L73.7793 65.5273L73.4375 66.5527L72.8516 67.6758L72.5098 68.1641L72.0703 68.7012L71.3867 69.3848L70.752 69.873L70.0195 70.3125L69.1895 70.7031L68.457 70.9473L67.2363 71.1914L66.6016 71.2402L62.9883 71.2891L62.5488 71.6797L61.8652 72.2168L61.2305 72.7539L60.7422 73.1445L59.9121 73.8281L59.4238 74.2188L58.6426 74.8535L58.0078 75.3906L57.3242 75.9277L55.6641 77.2949L54.9805 77.832L54.1504 78.5156L53.6621 78.7598L53.5156 78.8086H52.9785L52.4414 78.6133L52.0508 78.2715L51.8066 77.8809L51.709 77.4414V71.2402L40.5273 71.2891L40.918 72.0703L41.4551 73.4863L41.8457 74.8047L42.1387 76.0742L42.334 77.2949L42.4316 78.3203L42.4805 79.248V80.3223L42.334 82.1777L42.1387 83.3984L41.7969 84.8633L41.5039 85.8398L41.0156 87.1582L40.5762 88.1348L40.0879 89.0625L39.5996 89.8926L38.8184 91.0645L38.3301 91.6992L37.8906 92.2363L37.4512 92.6758L36.9629 92.8711L36.6211 92.9199L36.084 92.7734L35.6445 92.4805L35.3516 92.1387L35.1562 91.6992V91.0156L35.4004 90.5273L35.6445 90.1855H35.7422L35.8398 89.9902L36.3281 89.3555L37.0117 88.3301L37.5 87.5L38.1836 86.084L38.6719 84.7168L39.0137 83.4961L39.2578 82.2266L39.4043 81.0059L39.4531 79.6875L39.4043 78.5156L39.2578 77.1973L38.916 75.5371L38.5254 74.3164L38.1348 73.291L37.4512 71.875L37.1094 71.2891L34.9121 71.2402L33.9355 71.1426L32.7148 70.8496L31.6895 70.4102L31.0059 70.0195L30.4199 69.5801L29.9316 69.1406L29.2969 68.5059L28.7598 67.7734L28.3203 66.9922L27.9785 66.2109L27.6855 65.1855L27.4902 64.0137L27.1973 63.916L26.0742 63.6719L24.6094 63.4766L23.877 63.4277H22.168L20.7031 63.5742L19.4336 63.8184L18.3105 64.1113L17.1875 64.502L15.9668 65.0391L14.9414 65.5762L14.0137 66.1621L13.1348 66.7969L12.5 67.334L12.0117 67.7734L11.6211 68.1152L11.1816 68.5547L10.8398 68.9453L10.2539 69.6289L10.0586 69.9219L9.76562 70.3125L9.27734 71.0449L8.74023 71.9727L8.34961 72.7051L7.86133 73.877L7.51953 74.8535L7.22656 75.9277L7.08008 76.5137L6.88477 77.7344L6.78711 79.0527V80.4688L6.88477 81.6895L7.12891 83.1543L7.37305 84.1309L7.91016 85.7422L8.30078 86.6211L8.69141 87.4023L9.17969 88.2812L9.66797 89.0137L10.3516 89.9414L10.9863 90.6738L11.2305 90.918V91.0156H11.3281L11.6699 91.4062L12.2559 91.9434L12.8906 92.4805L13.8184 93.1641L14.5996 93.6523L15.4297 94.1406L16.6504 94.7266L17.627 95.1172L18.75 95.459L20.0195 95.752L21.3867 95.9473L21.9238 95.9961H24.3652L25.6348 95.8496L26.9043 95.6055L28.2715 95.2148L29.1992 94.873L30.1758 94.4336L30.957 94.0918L31.1523 94.043H31.5918L32.0801 94.2383L32.4707 94.5801L32.7637 95.0684L32.8613 95.5078L32.8125 96.0449L32.5684 96.4844L32.1777 96.8262L30.8594 97.4609L29.7363 97.9004L28.3691 98.3398L26.9043 98.6816L25.3418 98.9258L24.2676 99.0234H21.875L20.4102 98.877L19.2383 98.6816L17.8223 98.3398L16.2109 97.8027L14.9414 97.2656L13.7695 96.6797L12.793 96.0938L11.8652 95.459L11.2793 95.0195L10.498 94.3848L9.86328 93.7988L8.59375 92.5293L8.1543 91.9922L7.51953 91.2109L6.73828 90.0391L6.15234 89.0625L5.61523 88.0371L5.17578 87.0605L4.63867 85.5957L4.24805 84.1797L3.95508 82.6172L3.80859 81.3965L3.75977 80.8105V78.6133L3.90625 77.1484L4.15039 75.7324L4.49219 74.3652L4.98047 72.9004L5.51758 71.6309L6.10352 70.459L6.5918 69.6289L7.37305 68.457L7.91016 67.7246H8.00781L8.10547 67.5293L8.54492 66.9922L9.08203 66.4062L10.1562 65.332L10.6934 64.8926L11.2793 64.4043L12.1582 63.7695L13.1348 63.1348L14.209 62.5488L14.9902 62.1582L16.1133 61.6699L17.8711 61.084L19.3359 60.7422L20.8984 60.498L22.0215 60.4004H24.0723L25.5859 60.5469L27.1484 60.791L27.5391 60.8887V41.1133L27.7344 39.9414L28.125 38.7695L28.6133 37.8418L29.0039 37.2559L29.4434 36.7188L29.5898 36.5234H29.6875L29.7852 36.3281L30.2734 35.8887L31.1035 35.3027L31.8848 34.8633L32.7148 34.5215L33.6914 34.2773L34.5215 34.1797L58.7891 34.1309L58.4961 33.5938L57.9102 32.5684L57.373 31.4941L56.7871 30.0781L56.2012 28.3203L55.8105 26.7578L55.5176 24.9512L55.3711 23.3398V21.1426L55.5176 19.4824L55.7617 18.0176L56.0547 16.6992L56.4453 15.3809L56.9336 14.0137L57.4707 12.793L57.8613 12.0117L58.3008 11.1816L58.8379 10.3027L59.3262 9.57031L59.8145 8.88672L60.2051 8.39844L60.7422 7.71484L61.0352 7.37305H61.1328L61.2305 7.17773L61.5723 6.78711L61.8164 6.54297H61.9141L61.9629 6.39648L62.3535 6.05469L62.793 5.61523L63.1836 5.27344L64.0137 4.58984L64.6484 4.15039L65.1855 3.95508L65.625 4.00391L66.1133 4.19922L66.4062 4.44336L66.748 4.98047L66.8457 5.32227V5.76172L66.6992 6.20117L66.2598 6.68945L65.5273 7.27539L64.9902 7.71484L64.2578 8.39844L63.3789 9.27734L63.0859 9.66797H62.9883L62.8906 9.86328L62.2559 10.6445L61.6211 11.5723L61.0352 12.5L60.4004 13.6719L59.8633 14.8438L59.375 16.1621L59.0332 17.2852L58.6426 19.0918L58.4473 20.6055L58.3984 21.4355V23.1445L58.4961 24.3652L58.7402 25.9766L59.0332 27.2461L59.4238 28.5156L59.9609 29.8828L60.6934 31.3965L61.4258 32.6172L61.8164 33.2031L62.5 34.1309L63.0371 34.7656L63.4766 35.2539L64.0137 35.8398L64.8438 36.6211L65.5273 37.207L66.3086 37.793L67.0898 38.3301L67.9688 38.8672L68.8477 39.3555L70.0684 39.9414L71.3379 40.4297L72.4609 40.7715L73.877 41.1133L75.0977 41.3086L76.709 41.4551H78.6621L80.2246 41.3086L81.6406 41.0645L83.0078 40.7227L84.4727 40.2344L85.7422 39.6973L86.5234 39.3066L87.3535 38.8672L88.3789 38.2324L89.209 37.6465L89.9902 37.0117L90.5273 36.5723L90.8203 36.2793H90.918V36.1816L91.3086 35.8398L91.6016 35.498H91.6992V35.4004H91.7969L91.8945 35.2051L92.4316 34.6191L92.4805 34.5215H92.5781L92.6758 34.3262L93.1641 33.6914L93.75 32.8613L94.2871 31.9824L94.7754 31.1035L95.4102 29.7852L95.8984 28.5156L96.3379 27.0508L96.6309 25.6836L96.8262 24.3652L96.9238 23.0957V21.3867L96.8262 20.1172L96.582 18.5059L96.2891 17.2363L95.8496 15.8203L95.3125 14.4531L94.7754 13.3301L94.2871 12.4512L93.7012 11.5234L93.1152 10.6934L92.4805 9.91211L92.041 9.375L91.4062 8.74023L91.2109 8.49609L90.8203 8.1543L90.1367 7.51953L89.3066 6.88477L88.5742 6.34766L87.5 5.66406L86.4258 5.07812L85.2051 4.49219L83.8867 4.00391L82.6172 3.61328L81.3477 3.32031L80.0781 3.125L78.9551 3.02734L77.9297 2.97852H77.1973L75.6836 3.07617L74.5117 3.22266L72.8516 3.56445L72.4121 3.66211H71.8262L71.3379 3.41797L70.9961 3.02734L70.752 2.49023V1.80664L70.9473 1.31836L71.1426 1.07422L71.6309 0.78125L72.5098 0.537109L74.0234 0.244141L74.9512 0.0976562L75.6348 0ZM34.5215 37.1582L33.7891 37.3047L33.0566 37.5977L32.373 38.0371L31.7871 38.5742L31.4453 38.9648L31.0547 39.5996L30.7129 40.3809L30.5664 41.0156L30.5176 41.5527V64.0137L30.6641 64.8926L30.957 65.625L31.25 66.1621L31.5918 66.6016L31.9336 66.9922L32.6172 67.5293L33.3984 67.9199L33.9355 68.1152L34.4727 68.2129L35.1074 68.2617L53.4668 68.3105L53.9062 68.457L54.1992 68.6523L54.4922 69.043L54.6387 69.4336L54.6875 74.1699L54.8828 74.0723L56.543 72.7051L57.3242 72.0703L58.3984 71.1914L59.2285 70.5078L59.9121 69.9707L60.5957 69.3848L61.2793 68.8477L61.7188 68.5059L62.1582 68.3105L66.3574 68.2617L67.0898 68.2129L68.0176 67.9688L68.7988 67.5781L69.2871 67.2363L69.7754 66.7969L70.2148 66.2598L70.6055 65.5762L70.8496 64.9414L70.9961 64.209L71.0449 43.5547L70.8984 43.4082L69.6289 42.9688L68.0664 42.2852L67.0898 41.7969L65.7715 41.0156L65.0391 40.5273L64.1602 39.8926L63.3789 39.2578L62.8906 38.8184L62.5 38.4766L61.8652 37.8906L61.1816 37.1582H34.5215Z" fill="url(#paint0_linear_45_160)"/>
<path d="M79.4922 7.56836H80.127L80.7129 7.71484L81.2012 7.95898L81.6895 8.39844L82.0312 8.78906L82.4219 9.47266L82.7637 10.2539L83.0078 10.9863L83.252 12.207L83.3008 12.5977V14.0625L83.1543 15.0879L82.9102 16.0645L82.666 16.748L86.7676 16.7969L87.9883 16.8457L88.623 17.041L89.1113 17.2852L89.5996 17.6758L89.9414 18.0176L90.2832 18.5547L90.5273 19.1406L90.625 19.6289V30.8594L90.4297 31.6406L90.0879 32.2754L89.6484 32.8125L89.0625 33.252L88.4277 33.5449L87.7441 33.6914H76.416L75.1465 33.4961L73.8281 33.0566L73.1934 32.7637L72.6562 33.1055L72.2656 33.2031H65.918L65.3809 33.0078L65.1367 32.8125L64.8438 32.4219L64.6973 31.9824V18.2129L64.8926 17.7734L65.1855 17.3828L65.5762 17.1387L65.8691 17.041H72.4121L72.8516 17.2363H73.0469L73.4863 16.748L73.8281 16.3574L74.2676 15.8691L74.3164 15.7715H74.4141L74.5117 15.5762L75.0488 14.9902L75.4883 14.4531L75.9277 13.9648L76.416 13.1836L76.709 12.5977L76.9531 11.8164L77.0996 11.1328L77.1973 9.91211L77.3926 9.17969L77.7344 8.59375L78.2227 8.10547L78.7109 7.8125L79.248 7.61719L79.4922 7.56836ZM80.0781 11.8164L79.9805 12.1094L79.6387 13.2812L79.1992 14.3066L78.7598 15.0879L78.2715 15.7715L77.6367 16.5527L77.002 17.2363L76.6602 17.627L76.0742 18.3105L75.5859 18.8477V18.9453H75.4883L75.0488 19.4824L74.4141 20.166L74.0723 20.5566L73.584 21.0938L73.5352 22.9492V29.2969L73.584 29.4434L74.3164 29.9316L75.0488 30.3223L75.9277 30.6152L76.5137 30.7129H87.5L87.6465 30.5664V19.9219L87.5977 19.8242L86.6699 19.7754L80.0781 19.7266L79.5898 19.5312L79.3457 19.3359L79.0527 18.8965L78.9551 18.6035V17.9688L79.1992 17.2852L79.7363 15.9668L80.0293 15.0391L80.2734 13.8184V12.5488L80.127 11.8164H80.0781ZM67.6758 20.0195V30.2246H70.5566V20.0195H67.6758Z" fill="url(#paint1_linear_45_160)"/>
<path d="M14.5508 7.95898H16.9434L18.2129 8.10547L19.4824 8.34961L20.8496 8.74023L22.2168 9.27734L22.998 9.66797L23.8281 10.1074L24.8535 10.791L25.4395 11.2305L25.9277 11.6211L26.4648 12.1094L26.8555 12.4512L27.3438 12.9395L27.6855 13.3301L28.2227 13.9648L28.8574 14.8438L29.4922 15.8691L30.1758 17.1875L30.6641 18.4082L31.0547 19.6289L31.3477 20.9961L31.4941 22.168L31.543 22.7051V24.707L31.3965 26.0742L31.1523 27.3438L30.7617 28.7109L30.3711 29.7363L29.834 30.9082L29.3457 31.7871L28.6621 32.8125L27.9297 33.7891H27.832L27.7344 33.9844L27.1973 34.5703L26.3672 35.4004L25.8301 35.8398L25.0977 36.4258L24.2188 37.0117L23.3887 37.5L22.5586 37.9395L21.6309 38.3301L20.7031 38.6719L19.4336 39.0137L18.1152 39.2578L16.7969 39.4043H14.6484L13.4277 39.2578L12.3535 39.0625L11.2305 38.7695L9.7168 38.2324L8.20312 37.5L7.22656 36.9141L6.39648 36.3281L5.61523 35.6934L5.07812 35.2051L4.6875 34.8633L4.29688 34.4727L3.95508 34.082L3.41797 33.4473L2.83203 32.666L2.29492 31.8359L1.80664 30.957L1.17188 29.6387L0.732422 28.418L0.390625 27.1484L0.146484 25.7324L0.0976562 24.9512H0V22.5586L0.0976562 22.0215L0.341797 20.459L0.634766 19.2871L1.07422 17.9688L1.66016 16.6504L2.24609 15.5762L2.63672 14.9902L3.22266 14.1602L3.66211 13.623L4.24805 12.9395L5.17578 12.0117L5.56641 11.6699L6.29883 11.084L6.98242 10.5957L8.00781 9.96094L9.13086 9.375L10.3027 8.88672L11.3281 8.54492L12.5 8.25195L14.0625 8.00781L14.5508 7.95898ZM14.7461 10.9375L13.2812 11.1328L12.1094 11.4258L10.9863 11.8164L9.76562 12.4023L8.98438 12.8418L8.1543 13.4277L7.66602 13.8184L7.17773 14.2578L7.03125 14.3555V14.4531L6.83594 14.5508L6.64062 14.7461V14.8438L6.44531 14.9414L6.10352 15.332L5.46875 16.1133L4.98047 16.8457L4.39453 17.8711L4.00391 18.7012L3.56445 19.9219L3.27148 21.0449L3.07617 22.2168L3.02734 22.8516V24.5605L3.17383 25.8301L3.41797 26.9531L3.71094 27.9297L4.19922 29.1016L4.78516 30.2246L5.17578 30.8105L5.56641 31.3477L6.00586 31.8848L6.44531 32.373L6.93359 32.9102H7.03125V33.0078L8.10547 33.8867L8.93555 34.4727L9.7168 34.9121L10.4492 35.3027L11.5723 35.7422L12.3047 35.9863L13.623 36.2793L14.9414 36.4258H16.6504L17.9199 36.2793L19.043 36.0352L20.166 35.6934L21.3379 35.2051L22.4121 34.6191L23.291 34.0332L23.9746 33.4961L24.9512 32.6172L25.0977 32.4707V32.373H25.1953L25.5371 31.9824L26.0742 31.2988L26.6113 30.5176L27.0508 29.7852L27.6367 28.5645L27.9785 27.5879L28.2715 26.5625L28.4668 25.4395L28.5645 24.4629V22.8516L28.418 21.582L28.1738 20.459L27.8809 19.4824L27.4902 18.5059L27.0996 17.6758L26.6113 16.8457L26.0742 16.0645L25.6348 15.5273L25.1465 14.9902L24.8047 14.5996L24.4629 14.2578L23.9258 13.8184L22.9492 13.0859L22.3145 12.6953L21.4355 12.207L20.3125 11.7188L19.0918 11.3281L17.9688 11.084L16.7969 10.9375H14.7461Z" fill="url(#paint2_linear_45_160)"/>
<path d="M77.2949 75.6836H78.6621L79.6875 75.7812L80.957 76.0254L81.9336 76.3184L82.9102 76.709L83.7402 77.0996L84.7168 77.6855L85.5469 78.3203L86.084 78.7598L86.8164 79.4434V79.541H86.9141L87.2559 79.9316L87.8418 80.6641L88.3301 81.3965L88.8672 82.3242L89.3555 83.3984L89.7461 84.5703L90.0391 85.8887L90.1855 87.207V88.5254L90.0391 89.7949L89.7461 91.1621L89.3066 92.4316L88.6719 93.75L88.0859 94.6777L87.5 95.459L86.9629 96.0938L86.084 96.9727L85.4004 97.5098L84.8145 97.9492L83.7402 98.584L82.5195 99.1699L81.2012 99.6094L79.4434 100H76.1719V99.9023L74.8047 99.6094L73.4863 99.1699L72.2168 98.584L71.1914 97.9492L70.4102 97.3633L69.7754 96.8262L68.7988 95.8496L68.2617 95.166L67.7734 94.4824L67.334 93.75L66.9434 93.0176L66.4551 91.7969L66.1621 90.8691L65.918 89.5996L65.8203 88.7695V86.9141L65.9668 85.7422L66.2598 84.5215L66.6016 83.4961L67.041 82.5195L67.4805 81.6895L68.0176 80.8594L68.6523 80.0293L69.4336 79.1992L69.8242 78.8086L70.3613 78.3691L70.9961 77.8809L71.9238 77.2949L73.0469 76.709L74.0234 76.3184L75.2441 75.9766L76.2695 75.7812L77.2949 75.6836ZM77.5391 78.6621L76.5625 78.7598L75.4395 79.0039L74.4629 79.3457L73.6328 79.7363L72.998 80.127L72.3145 80.6152L71.8262 81.0547L71.4355 81.3965L70.8984 81.9824L70.3613 82.7148L69.9219 83.4473L69.5312 84.2285L69.1895 85.1562L68.9453 86.084L68.7988 87.3047V88.4766L68.9453 89.5996L69.2383 90.7227L69.6289 91.6992L70.1172 92.627L70.6543 93.4082L71.1914 94.043L71.4844 94.3848L71.875 94.7266L72.5098 95.2637L73.291 95.752L73.8281 96.0449L74.6582 96.4355L75.3906 96.6797L76.2207 96.875L77.2461 97.0215H78.7598L79.7852 96.875L80.7617 96.6309L81.7383 96.2402L82.5195 95.8496L83.3008 95.3613L83.9355 94.873L84.5703 94.2871L84.8633 93.9941V93.8965H84.9609L85.4492 93.2617L85.9375 92.5293L86.3281 91.7969L86.7188 90.8203L87.0117 89.7461L87.1582 88.8184L87.207 87.793L87.1582 86.8652L86.9629 85.7422L86.6211 84.6191L86.2305 83.7402L85.7422 82.8613L85.2539 82.1777L84.668 81.4941L84.2285 81.0547L83.5449 80.5176L82.8613 80.0293L81.6406 79.3945L80.7129 79.0527L79.6875 78.8086L79.0527 78.7109L78.4668 78.6621H77.5391Z" fill="url(#paint3_linear_45_160)"/>
<path d="M21.3867 69.8242H21.9238L22.4121 69.9707L22.8027 70.2637L23.0957 70.6543L23.1934 70.8984V71.6797L22.9004 73.3398L22.6074 75.1465L22.5586 75.3906L25.0977 75.4395L25.3906 73.584L25.8301 70.9961L26.0254 70.459L26.3184 70.1172L26.7578 69.873L27.002 69.8242H27.5391L28.0273 69.9707L28.418 70.2637L28.7109 70.6543L28.8086 70.9961V71.5332L28.1738 75.3418L28.125 75.4395H31.8359L32.373 75.6348L32.7148 75.9277L32.959 76.3672L33.0078 76.5625V77.3438L32.7148 77.9297L32.373 78.2227L32.0312 78.3691L31.7383 78.418H27.6367L27.5391 79.1992L27.2461 80.9082L27.1973 81.0059H31.2012L31.9824 81.0547L32.4707 81.2988L32.8125 81.6895L33.0078 82.1289V82.9102L32.8125 83.3496L32.4707 83.7402L32.1289 83.9355L31.9336 83.9844L31.2012 84.0332L26.7578 84.082L26.5625 85.1074L26.1719 87.4512L25.9766 88.5742L25.6836 89.1602L25.3418 89.4531L24.9512 89.5996L24.4629 89.6484L23.9746 89.5508L23.584 89.3555L23.1934 88.916L23.0469 88.5742V87.7441L23.5352 84.8145L23.6816 84.0332H21.1426L20.5078 87.8418L20.3613 88.5742L20.2148 88.9648L19.8242 89.4043L19.3848 89.5996L18.8477 89.6484L18.3594 89.5508L17.8711 89.2578L17.5781 88.916L17.4316 88.5254V87.793L18.0664 84.0332H14.7949L14.2578 83.9844L13.8184 83.7891L13.5742 83.5938L13.2812 83.1055L13.1836 82.7637V82.3242L13.3301 81.8359L13.5742 81.4453L14.0137 81.1523L14.3066 81.0547L15.0879 81.0059H18.5059L18.6035 80.7129L18.9941 78.4668L14.3555 78.418L13.916 78.2715L13.5254 77.9297L13.2324 77.3438L13.1836 77.1484V76.7578L13.3301 76.2207L13.623 75.8301L14.0137 75.5371L14.3066 75.4395H19.4824L19.7754 73.6816L20.166 71.2891L20.3125 70.7031L20.6055 70.2148L21.0449 69.9219L21.3867 69.8242ZM22.0215 78.418L21.6309 80.7129V81.0059L22.1191 81.0547H24.1699L24.2188 81.0059L24.6094 78.6133V78.418H22.0215Z" fill="url(#paint4_linear_45_160)"/>
<path d="M12.1094 17.1387H13.1836L13.9648 17.2852L14.6484 17.5293L15.2832 17.8711L15.6738 18.1641L15.8691 18.1152L16.3574 17.7734L17.0898 17.4316L17.7246 17.2363L18.5059 17.1387H19.1895L20.166 17.2852L20.9961 17.5781L21.7285 17.9688L22.3633 18.457L22.6562 18.7012L22.998 19.0918L23.4375 19.7266L23.8281 20.5078L24.0723 21.2402L24.2188 22.0215V23.584L24.0723 24.4141L23.8281 25.2441L23.4375 26.123L22.998 26.8066L22.6074 27.3438L22.168 27.832L21.9238 28.125L21.5332 28.4668L20.9961 28.9551L20.166 29.5898L18.8477 30.4688L17.8711 31.0547L16.6504 31.7383L16.0156 31.9824H15.6738L15.1855 31.8359L13.916 31.1523L12.5977 30.3711L11.4258 29.5898L10.5957 28.9551L9.86328 28.3203L9.375 27.832L8.93555 27.2949L8.49609 26.709L8.05664 25.9277L7.71484 25.1465L7.4707 24.3164L7.37305 23.7305L7.32422 23.1934V22.4121L7.4707 21.3867L7.71484 20.5566L8.10547 19.7754L8.44727 19.2383L8.98438 18.6035L9.57031 18.1152L10.1074 17.7734L10.6934 17.4805L11.4258 17.2363L12.1094 17.1387ZM12.3047 20.1172L11.6699 20.3125L11.1816 20.6543L10.7422 21.1426L10.498 21.6797L10.3516 22.2168L10.3027 22.8516L10.4004 23.7305L10.6445 24.4629L11.0352 25.1465L11.5234 25.7812L12.1094 26.3672L12.9395 27.002L13.623 27.4902L14.5508 28.0762L15.6738 28.7109L15.8691 28.7598L16.8945 28.1738L17.8223 27.5879L18.6523 27.002L19.4336 26.3672L19.8242 26.0254V25.9277H19.9219L20.2637 25.5371L20.6055 25.0488L20.8984 24.5605L21.1426 23.8281L21.2402 23.291V22.3633L21.1426 21.875L20.8984 21.2891L20.5566 20.8008L20.166 20.5078L19.6777 20.2637L19.043 20.1172H18.6523L18.0664 20.2637L17.5781 20.5566L17.2852 20.8984L16.9434 21.4844L16.5527 21.8262L15.918 22.0215L15.3809 21.9727L14.9414 21.7773L14.7461 21.6797L14.6484 21.4844L14.1602 20.8008L13.7207 20.4102L13.3301 20.2148L12.9395 20.1172H12.3047Z" fill="url(#paint5_linear_45_160)"/>
<path d="M77.6855 81.8848H78.2715L78.7109 82.0312L79.0039 82.2266L79.2969 82.5684L79.4434 82.8613L79.4922 83.1055V86.377H82.8613L83.3496 86.5723L83.6914 86.9141L83.9355 87.4023L83.9844 87.6465V88.0859L83.7891 88.623L83.4473 89.0625L83.1055 89.2578L82.5684 89.3555H79.4922V92.5781L79.3457 93.0664L79.0039 93.5059L78.5156 93.75L78.3203 93.7988H77.6367L77.1484 93.6035L76.8066 93.3105L76.5625 92.8711L76.5137 92.6758L76.4648 91.1621V89.3555H73.3398L72.9004 89.2578L72.5098 89.0137L72.2168 88.6719L72.0215 88.1348V87.5488L72.2168 87.0605L72.4121 86.7676L72.8027 86.4746L73.0957 86.377L76.416 86.3281L76.4648 85.5957L76.5137 83.0078L76.709 82.5195L76.9531 82.2266L77.3438 81.9824L77.6855 81.8848Z" fill="url(#paint6_linear_45_160)"/>
<path d="M38.0742 39H52.0879L52.5762 39.1953L52.918 39.5371L53.1133 39.9277L53.1621 40.0742V40.9043L52.918 41.3926L52.7227 41.6367L52.2832 41.8809L51.5508 41.9785H38.416L37.8789 41.8809L37.4395 41.5879L37.1465 41.1973L37 40.8066V40.1719L37.1953 39.6348L37.5371 39.2441L37.9277 39.0488L38.0742 39Z" fill="url(#paint7_linear_45_160)"/>
<path d="M62.3535 56.2012L63.8184 56.25L64.2578 56.3965L64.6973 56.7871L64.8926 57.1777L64.9902 57.5195V57.9102L64.8438 58.3984L64.5508 58.8379L64.0625 59.1309L63.8672 59.1797L62.9395 59.2285H50.3418L49.6582 59.1309L49.2188 58.8379L48.9258 58.4473L48.7793 57.959V57.5195L48.9258 57.0312L49.2188 56.5918L49.707 56.2988L49.9023 56.25L62.3535 56.2012Z" fill="url(#paint8_linear_45_160)"/>
<path d="M38.2324 56.2012H41.3574L42.1387 56.25L42.5293 56.3965L42.9688 56.7871L43.1641 57.1289L43.2617 57.5195V57.9102L43.1152 58.3984L42.8223 58.8379L42.6758 58.9844L42.1387 59.1797L41.3574 59.2285H38.1348L37.5977 59.1797L37.1094 58.9355L36.7676 58.5449L36.5723 58.0566V57.4219L36.7676 56.8848L37.0605 56.543L37.6465 56.25L38.2324 56.2012Z" fill="url(#paint9_linear_45_160)"/>
<path d="M59.375 47.1191H63.8672L64.3555 47.3145L64.6973 47.6562L64.9414 48.1445L64.9902 48.3398V48.7793L64.8438 49.3164L64.3555 49.8535L64.0625 50L63.4277 50.0977H59.668L59.082 49.9512L58.6914 49.6582L58.4961 49.4141L58.3008 49.0234L58.252 48.877V48.291L58.4473 47.8027L58.7891 47.4121L59.375 47.1191Z" fill="url(#paint10_linear_45_160)"/>
</g>
<defs>
<linearGradient id="paint0_linear_45_160" x1="51.8799" y1="0" x2="51.8799" y2="99.0234" gradientUnits="userSpaceOnUse">
<stop stop-color="#FF8B38"/>
<stop offset="1" stop-color="#FF6B00"/>
</linearGradient>
<linearGradient id="paint1_linear_45_160" x1="77.6611" y1="7.56836" x2="77.6611" y2="33.6914" gradientUnits="userSpaceOnUse">
<stop stop-color="#FF8B38"/>
<stop offset="1" stop-color="#FF6B00"/>
</linearGradient>
<linearGradient id="paint2_linear_45_160" x1="15.7715" y1="7.95898" x2="15.7715" y2="39.4043" gradientUnits="userSpaceOnUse">
<stop stop-color="#FF8B38"/>
<stop offset="1" stop-color="#FF6B00"/>
</linearGradient>
<linearGradient id="paint3_linear_45_160" x1="78.0029" y1="75.6836" x2="78.0029" y2="100" gradientUnits="userSpaceOnUse">
<stop stop-color="#FF8B38"/>
<stop offset="1" stop-color="#FF6B00"/>
</linearGradient>
<linearGradient id="paint4_linear_45_160" x1="23.0957" y1="69.8242" x2="23.0957" y2="89.6484" gradientUnits="userSpaceOnUse">
<stop stop-color="#FF8B38"/>
<stop offset="1" stop-color="#FF6B00"/>
</linearGradient>
<linearGradient id="paint5_linear_45_160" x1="15.7715" y1="17.1387" x2="15.7715" y2="31.9824" gradientUnits="userSpaceOnUse">
<stop stop-color="#FF8B38"/>
<stop offset="1" stop-color="#FF6B00"/>
</linearGradient>
<linearGradient id="paint6_linear_45_160" x1="78.0029" y1="81.8848" x2="78.0029" y2="93.7988" gradientUnits="userSpaceOnUse">
<stop stop-color="#FF8B38"/>
<stop offset="1" stop-color="#FF6B00"/>
</linearGradient>
<linearGradient id="paint7_linear_45_160" x1="45.0811" y1="39" x2="45.0811" y2="41.9785" gradientUnits="userSpaceOnUse">
<stop stop-color="#FF8B38"/>
<stop offset="1" stop-color="#FF6B00"/>
</linearGradient>
<linearGradient id="paint8_linear_45_160" x1="56.8848" y1="56.2012" x2="56.8848" y2="59.2285" gradientUnits="userSpaceOnUse">
<stop stop-color="#FF8B38"/>
<stop offset="1" stop-color="#FF6B00"/>
</linearGradient>
<linearGradient id="paint9_linear_45_160" x1="39.917" y1="56.2012" x2="39.917" y2="59.2285" gradientUnits="userSpaceOnUse">
<stop stop-color="#FF8B38"/>
<stop offset="1" stop-color="#FF6B00"/>
</linearGradient>
<linearGradient id="paint10_linear_45_160" x1="61.6211" y1="47.1191" x2="61.6211" y2="50.0977" gradientUnits="userSpaceOnUse">
<stop stop-color="#FF8B38"/>
<stop offset="1" stop-color="#FF6B00"/>
</linearGradient>
<clipPath id="clip0_45_160">
<rect width="100" height="100" fill="white"/>
</clipPath>
</defs>
</svg>
