<svg width="100" height="100" viewBox="0 0 100 100" fill="none" xmlns="http://www.w3.org/2000/svg">
<path d="M52.4414 0H69.6777L69.7266 0.292969L69.8242 2.00195L70.0195 3.66211L70.3613 5.41992L70.752 6.88477L71.1914 8.20312L71.8262 9.76562L72.3633 10.8887L72.9492 11.9629L73.584 12.9883L74.1211 13.7695L74.5605 14.3555L75.2441 15.2344L75.6836 15.7227L76.0254 16.1133L76.2695 16.3574V16.4551H76.3672L76.709 16.8457L77.0508 17.1875L77.4414 17.5293L78.0762 18.1152L78.6133 18.5547L79.4922 19.2383L80.2734 19.7754L81.3477 20.459L82.0801 20.8984L82.8613 21.2891L84.082 21.875L85.3027 22.3633L86.7676 22.8516L88.0371 23.1934L89.4531 23.4863L91.2109 23.7305L92.4316 23.8281L93.457 23.877L93.6035 23.9258L93.6523 41.0156L93.6035 41.1133H92.1875L89.8438 40.9668L88.0859 40.7715L86.2305 40.4785L84.3262 40.0879L82.7637 39.6973L80.8105 39.1113L79.1504 38.5254L77.6855 37.9395L76.3672 37.3535L74.7559 36.5723L73.3887 35.8398L72.168 35.1074L71.0938 34.4238L69.7754 33.5449L69.7266 35.1562V67.8711L69.6777 70.0684L69.4824 72.2656L69.2383 73.877L68.8965 75.5371L68.5547 76.9043L68.1152 78.3203L67.5781 79.834L66.9922 81.2012L66.3574 82.5684L65.625 83.9355L64.9902 85.0098L64.1113 86.3281L63.5254 87.1582L63.0371 87.793L62.4023 88.5742L62.1094 88.9648H62.0117L61.9141 89.1602L60.7422 90.4297L59.7168 91.4551L59.3262 91.7969L58.6914 92.3828L58.0078 92.9199L57.4707 93.3594L56.4941 94.0918L55.7129 94.6289L54.7363 95.2637L53.5645 95.9473L52.8809 96.3379L52.0996 96.7285L50.8789 97.3145L49.0723 98.0469L47.3145 98.6328L45.752 99.0723L44.2383 99.4141L42.5293 99.707L40.4297 100H35.5957L32.959 99.6094L31.3477 99.3164L29.3945 98.8281L27.6855 98.291L26.3672 97.8027L24.9023 97.168L23.291 96.3867L22.168 95.752L21.1914 95.166L20.0195 94.3848L19.0918 93.7012L18.2617 93.0664L17.5293 92.4316L16.9922 91.9922L16.6504 91.6504L16.2598 91.3086L15.8203 90.8691L15.5273 90.625L15.1855 90.2344L14.8926 89.9414V89.8438H14.7949L14.4531 89.4531L13.916 88.8672L13.3789 88.1836L12.8906 87.5977L12.207 86.6699L11.2305 85.2051L10.8398 84.5703L10.2539 83.5449L9.66797 82.4219L8.98438 81.0059L8.44727 79.6875L7.95898 78.3203L7.56836 77.0508L7.17773 75.5859L6.78711 73.6328L6.54297 71.875L6.39648 70.2637L6.34766 69.1895V67.7246L6.44531 65.7715L6.64062 64.0137L6.98242 62.0117L7.32422 60.5469L7.71484 59.1309L8.25195 57.5195L8.78906 56.1523L9.375 54.834L10.0586 53.4668L10.6934 52.3438L11.2305 51.4648L11.8164 50.5859L12.4023 49.7559L12.793 49.2188L13.3789 48.4863L13.8184 47.9492L13.916 47.8027H14.0137L14.1113 47.6074L14.7461 46.875L15.2832 46.3379L15.332 46.2402H15.4297L15.5273 46.0449H15.625L15.7227 45.8496H15.8203V45.752L16.2109 45.4102L16.748 44.873L17.1387 44.5312L17.7734 43.9941L18.5547 43.3594L19.4824 42.6758L20.3613 42.041L21.5332 41.3086L22.168 40.918L23.3887 40.2344L24.6582 39.5996L26.123 38.9648L27.832 38.3301L29.3945 37.8418L30.957 37.4512L32.7148 37.1094L33.9844 36.9141L35.4004 36.7676L37.207 36.6699H38.8672L40.9668 36.8164L42.2363 36.9629L42.334 37.0605V54.541L41.8945 54.4922L40.625 54.1992L39.6484 54.0527L38.3789 53.9551H37.4512L36.2305 54.0527L35.0586 54.248L33.8867 54.541L32.6172 54.9805L31.4453 55.5176L30.5176 56.0547L29.6387 56.6406L28.9551 57.1777L28.2715 57.7637L27.3926 58.6426L27.0508 59.0332L26.4648 59.7656L25.7812 60.791L25.2441 61.7188L24.707 62.8906L24.2676 64.1113L23.877 65.6738L23.6816 67.1875V69.4824L23.877 70.9473L24.1699 72.2168L24.6582 73.6816L25.1953 74.8535L25.7324 75.8301L26.3184 76.709L26.8066 77.3438L27.3926 78.0273L27.6367 78.2715V78.3691H27.7344L28.0273 78.7109L28.418 79.0527L29.1016 79.6387L29.834 80.1758L30.7617 80.7617L32.1777 81.4941L33.3008 81.9336L34.4238 82.2754L35.5469 82.5195L36.6699 82.666L37.207 82.7148H38.916L40.2344 82.5684L41.4551 82.3242L42.627 81.9824L43.6523 81.5918L44.3359 81.2988L45.4102 80.7129L46.4355 80.0293L47.0703 79.541L47.7539 78.9551L48.0469 78.6621H48.1445V78.5645H48.2422V78.4668H48.3398L48.4375 78.2715L48.8281 77.8809L49.2676 77.3438L49.8535 76.5625L50.4395 75.6348L50.9277 74.7559L51.3184 73.877L51.7578 72.6562L52.0508 71.582L52.2461 70.5566L52.3438 69.6777L52.3926 68.9453V12.1094L52.4414 0Z" fill="white"/>
</svg>
