<svg width="100" height="100" viewBox="0 0 100 100" fill="none" xmlns="http://www.w3.org/2000/svg">
<path d="M1.07422 0H30.2734L31.0059 1.07422L31.543 1.85547L32.3242 2.97852L32.7148 3.56445L33.4961 4.6875L34.1309 5.61523L34.8633 6.68945L35.6445 7.8125L36.0352 8.39844L36.377 8.88672L37.0117 9.81445L37.793 10.9375L38.1836 11.5234L38.5254 12.0117L39.2578 13.0859L40.0391 14.209L41.5039 16.3574L42.1875 17.334L42.6758 18.0664L43.0176 18.5547L43.6523 19.4824L44.3359 20.459L44.8242 21.1914L45.6055 22.3145L46.2402 23.2422L46.9727 24.3164L47.7539 25.4395L48.4863 26.5137L49.1211 27.4414L49.9023 28.5645L50.293 29.1504L51.0742 30.2734L51.709 31.2012L52.7832 32.7637L53.418 33.6914L54.1992 34.8145L54.7363 35.5957L55.3711 36.5234L55.5176 36.6211L56.1523 35.8887L56.5918 35.4004L57.0312 34.8633L57.5684 34.2773L57.959 33.7891L58.3984 33.3008L58.7402 32.9102L59.2773 32.2754L59.8633 31.5918L60.498 30.8594L60.9375 30.3223L61.1816 30.0293H61.2793L61.377 29.834L61.9629 29.1504L62.0117 29.0527H62.1094L62.207 28.8574L62.6465 28.3691L63.0859 27.832L63.623 27.2461L64.0137 26.7578L64.6484 26.0254L65.8203 24.6582L66.2598 24.1699L66.6992 23.6328L67.1875 23.0957L67.627 22.5586L68.2617 21.8262L68.7012 21.3379L69.1406 20.8008L69.2383 20.6543H69.3359L69.4336 20.459L69.873 19.9707L70.3125 19.4336L70.4102 19.2871H70.5078L70.6055 19.0918L71.0449 18.6035L71.4844 18.0664L72.0215 17.4805L72.4121 16.9922L73.0469 16.2598L73.4863 15.7715L73.9258 15.2344L74.4141 14.6973L74.8535 14.1602L76.123 12.6953L76.4648 12.2559H76.5625L76.6602 12.0605L77.0996 11.5723L77.5391 11.0352L77.6367 10.8887H77.7344L77.832 10.6934L78.2715 10.2051L78.7109 9.66797L79.248 9.08203L79.6387 8.59375L80.2734 7.86133L80.7129 7.37305L81.1523 6.83594L81.5918 6.34766L82.0312 5.81055L82.4707 5.32227L82.9102 4.78516L83.3496 4.29688L83.6914 3.85742H83.7891L83.8867 3.66211L84.0332 3.4668H84.1309L84.2285 3.27148L84.8145 2.58789L84.8633 2.49023H84.9609L85.0586 2.29492L85.498 1.80664L85.9375 1.26953L86.4746 0.683594L86.8652 0.195312L87.0117 0H95.7031L95.6055 0.195312L95.0195 0.878906L94.5801 1.41602L94.0918 1.95312L93.6523 2.49023L93.5547 2.63672H93.457L93.3594 2.83203L92.9199 3.32031L92.4805 3.85742L92.041 4.3457L91.6016 4.88281L91.1621 5.37109L90.7227 5.9082L90.2832 6.39648L89.8438 6.93359L89.3555 7.4707L88.916 8.00781L88.2812 8.74023L87.8418 9.22852L87.4023 9.76562L86.9629 10.2539L86.5234 10.791L86.0352 11.3281L85.1562 12.4023H85.0586L84.9609 12.5977L84.5215 13.0859L84.082 13.623L83.6426 14.1113L83.2031 14.6484L82.7637 15.1367L82.3242 15.6738L81.8848 16.1621L81.4453 16.6992L80.957 17.2363L80.5176 17.7734L80.0293 18.3105L79.5898 18.8477L79.1504 19.3359L78.7109 19.873L78.2227 20.4102L77.7832 20.9473L77.1484 21.6797L76.709 22.168L76.2695 22.7051L75 24.1699L73.2422 26.2207L72.8027 26.709L72.3633 27.2461L71.9238 27.7344L71.4844 28.2715L70.9961 28.8086L70.5566 29.3457L69.9219 30.0781L69.5312 30.5664H69.4336L69.3359 30.7617L68.8965 31.25L68.457 31.7871L68.0176 32.2754L67.5781 32.8125L67.1387 33.3008L66.6992 33.8379L66.2598 34.3262L65.8203 34.8633L65.332 35.4004L64.8926 35.9375L64.4043 36.4746L63.9648 37.0117L63.5254 37.5L63.0859 38.0371L62.5977 38.5742L62.3047 38.9648H62.207L62.1094 39.1602L61.6699 39.6484L61.2305 40.1855L59.9609 41.6504L59.4727 42.2363L59.4238 42.3828L59.8633 43.0664L60.6445 44.1895L61.0352 44.7754L61.8164 45.8984L62.207 46.4844L62.5488 46.9727L63.2812 48.0469L64.0625 49.1699L64.5508 49.9023L64.8926 50.3906L65.5273 51.3184L66.2109 52.2949L66.6992 53.0273L67.041 53.5156L67.6758 54.4434L68.457 55.5664L68.8477 56.1523L69.6289 57.2754L70.2637 58.2031L70.9961 59.2773L71.7773 60.4004L72.168 60.9863L72.9492 62.1094L73.584 63.0371L74.1211 63.8184L74.7559 64.7461L75.293 65.5273L76.0742 66.6504L76.4648 67.2363L77.2461 68.3594L77.8809 69.2871L78.418 70.0684L79.0527 70.9961L79.7852 72.0703L80.127 72.5586L80.7617 73.4863L81.543 74.6094L81.9336 75.1953L82.2754 75.6836L83.0078 76.7578L83.6914 77.7344L84.082 78.3203L84.8633 79.4434L85.2539 80.0293L85.9375 81.0059L86.4258 81.7383L87.0117 82.5684L87.4023 83.1543L88.0859 84.1309L88.5742 84.8633L88.916 85.3516L89.5508 86.2793L90.332 87.4023L90.7227 87.9883L91.5039 89.1113L92.2363 90.1855L92.8711 91.1133L93.6523 92.2363L94.043 92.8223L94.8242 93.9453L95.459 94.873L95.9961 95.6543L97.2656 97.5098L97.9492 98.4863L98.9258 99.9512V100H69.6777L69.3848 99.4629L68.8965 98.7793L68.1641 97.7051L67.3828 96.582L66.748 95.6543L65.6738 94.0918L64.8926 92.9688L64.1113 91.7969L63.7207 91.2598L62.8906 90.0391L62.1094 88.916L61.377 87.8418L60.7422 86.9141L59.9609 85.791L59.5703 85.2051L58.7891 84.082L58.1543 83.1543L57.4219 82.0801L56.6406 80.957L55.8105 79.7363L55.2734 78.9551L54.4922 77.832L53.6621 76.6113L50.4395 71.9238L49.8047 70.9961L47.6562 67.8711L47.0215 66.9434L46.2402 65.8203L45.5078 64.7461L44.873 63.8184L44.0918 62.6953L43.3594 61.6211L43.2129 61.377L43.0664 61.3281L42.7246 61.6699L42.2852 62.207L41.8457 62.6953L41.4062 63.2324L40.918 63.7695L40.4785 64.3066L39.8438 65.0391L39.4043 65.5273L38.9648 66.0645L38.8672 66.2109H38.7695L38.6719 66.4062L38.2324 66.8945L37.793 67.4316L37.3535 67.9199L36.9141 68.457L36.4258 68.9941L35.9863 69.5312L35.3516 70.2637L34.7656 70.9473L34.3262 71.4355L33.8867 71.9727L33.4473 72.4609L33.0078 72.998L32.5195 73.5352L32.0801 74.0723L31.4453 74.8047L31.0059 75.293L30.5664 75.8301L29.2969 77.2949L26.9531 80.0293L26.5137 80.5176L26.0742 81.0547L25.6348 81.543L25.1953 82.0801L24.707 82.6172L23.8281 83.6914H23.7305L23.6328 83.8867L23.1934 84.375L22.7539 84.9121L22.3145 85.4004L21.875 85.9375L21.4355 86.4258L20.9961 86.9629L20.5566 87.4512L20.1172 87.9883L19.6289 88.5254L19.1895 89.0625L18.7012 89.5996L18.2617 90.1367L17.8223 90.625L17.3828 91.1621L16.8945 91.6992L16.6016 92.0898H16.5039L16.4062 92.2852L15.9668 92.7734L15.5273 93.3105L15.0879 93.7988L14.6484 94.3359L14.209 94.8242L13.7695 95.3613L13.2812 95.8984L12.8418 96.4355L12.3535 96.9727L11.9141 97.5098L11.4746 97.998L11.0352 98.5352L10.5957 99.0234L10.1562 99.5605L9.76562 100H1.07422L1.36719 99.5605L1.95312 98.9258L2.39258 98.3887L3.02734 97.6562L3.4668 97.168L3.90625 96.6309L5.17578 95.166L5.76172 94.4824L6.39648 93.75L6.83594 93.2129L7.32422 92.6758L7.76367 92.1387L7.91016 91.9434H8.00781L8.10547 91.748L8.54492 91.2598L8.98438 90.7227L9.08203 90.5762H9.17969L9.27734 90.3809L9.7168 89.8926L10.1562 89.3555L10.6934 88.7695L11.084 88.2812L11.7188 87.5488L12.1582 87.0605L12.5977 86.5234L13.0859 85.9863L13.5254 85.4492L14.7949 83.9844L15.1367 83.5449H15.2344L15.332 83.3496L15.7715 82.8613L16.2109 82.3242L16.3086 82.1777H16.4062L16.5039 81.9824L16.9434 81.4941L17.3828 80.957L17.9199 80.3711L18.3105 79.8828L18.9453 79.1504L19.3848 78.6621L19.8242 78.125L20.2637 77.6367L20.7031 77.0996L21.1426 76.6113L21.582 76.0742L22.0215 75.5859L22.4609 75.0488L22.7051 74.7559H22.8027L22.9004 74.5605L23.4863 73.877L23.5352 73.7793H23.6328L23.7305 73.584L24.1699 73.0957L24.6094 72.5586L25.1465 71.9727L25.5371 71.4844L26.1719 70.752L27.3438 69.3848L27.7832 68.8965L28.2227 68.3594L28.7109 67.8223L29.1504 67.2852L29.7852 66.5527L30.2246 66.0645L30.6641 65.5273L30.7617 65.3809H30.8594L30.957 65.1855L31.3965 64.6973L31.8359 64.1602L32.373 63.5742L32.7637 63.0859L33.3984 62.3535L34.5703 60.9863L35.0098 60.498L35.4492 59.9609L35.9375 59.4238L36.377 58.8867L37.0117 58.1543L37.4512 57.666L37.8906 57.1289L37.9883 56.9824H38.0859L38.1836 56.7871L38.623 56.2988L39.0137 55.8105L39.1602 55.6641L39.1113 55.4199L38.5254 54.5898L37.6953 53.3691L36.9141 52.2461L36.1816 51.1719L35.5469 50.2441L34.7656 49.1211L34.0332 48.0469L33.3984 47.1191L32.6172 45.9961L31.8359 44.8242L31.4453 44.2871L30.7129 43.2129L29.6387 41.6504L29.0039 40.7227L28.2227 39.5996L27.4902 38.5254L26.8555 37.5977L25.7812 36.0352L25.1465 35.1074L24.3652 33.9844L23.584 32.8125L23.0957 32.1289L22.5586 31.3477L21.2891 29.4922L20.5078 28.3691L19.7754 27.2949L19.1406 26.3672L18.3594 25.2441L17.5293 24.0234L16.9922 23.2422L16.2109 22.1191L15.8203 21.5332L15.0391 20.4102L14.3066 19.3359L13.6719 18.4082L12.8906 17.2852L12.1094 16.1133L11.7188 15.5762L10.9863 14.502L9.91211 12.9395L9.27734 12.0117L8.49609 10.8887L7.76367 9.81445L7.12891 8.88672L6.5918 8.10547L5.85938 7.03125L5.07812 5.9082L4.29688 4.73633L3.90625 4.19922L3.17383 3.125L2.63672 2.34375L2.00195 1.41602L1.46484 0.634766L1.07422 0.0488281V0ZM15.918 6.49414L12.8906 6.54297L13.2324 7.08008L13.7207 7.76367L14.2578 8.54492L14.9414 9.52148L15.7227 10.6445L16.3086 11.4746L16.8457 12.2559L18.0176 13.916L18.6523 14.8438L19.8242 16.5039L20.3613 17.2852L20.9473 18.1152L23.6816 22.0215L24.3164 22.9492L24.9512 23.8281L25.4883 24.6094L26.2695 25.7324L26.8555 26.5625L27.3926 27.3438L27.9785 28.1738L30.7129 32.0801L31.4941 33.2031L32.0801 34.0332L32.7148 34.9609L33.3496 35.8398L34.4238 37.4023L34.8145 37.9395L35.4492 38.8672L36.0352 39.6973L38.7695 43.6035L39.209 44.2383L39.7949 45.0684L40.4785 46.0449L41.1133 46.9727L42.2852 48.6328L42.8223 49.4141L43.4082 50.2441L44.7754 52.1973L45.5566 53.3203L46.1426 54.1504L46.9238 55.2734L47.5098 56.1035L48.1445 57.0312L49.3164 58.6914L49.8535 59.4727L50.4395 60.3027L54.541 66.1621L55.1758 67.0898L55.8105 67.9688L56.3477 68.75L57.1289 69.873L61.2305 75.7324L62.0117 76.8555L62.5977 77.6855L63.1348 78.4668L64.3066 80.127L64.9414 81.0547L66.1133 82.7148L66.6504 83.4961L67.2363 84.3262L69.9707 88.2324L70.6055 89.1602L71.2402 90.0391L71.7773 90.8203L72.3633 91.6504L72.9004 92.4316L73.4863 93.2617L73.8281 93.7012L73.877 93.75L77.7344 93.7988H82.7637L86.9629 93.75L86.9141 93.5547L86.4258 92.8223L78.2227 81.1035L77.5879 80.1758L77.002 79.3457L76.5137 78.6621L75.9766 77.8809L71.875 72.0215L71.0938 70.8984L70.5078 70.0684L69.7266 68.9453L68.3594 66.9922L67.5781 65.8691L62.793 59.0332L62.1582 58.1055L61.5723 57.2754L61.084 56.5918L60.5469 55.8105L59.8633 54.834L59.2773 54.0039L58.4961 52.8809L55.7617 48.9746L54.9805 47.8516L54.2969 46.875L53.5156 45.752L48.7305 38.916L48.0957 37.9883L47.5586 37.2559L46.9238 36.3281L46.1426 35.2051L45.5566 34.375L44.7754 33.252L40.6738 27.3926L39.8926 26.2695L37.1582 22.3633L36.377 21.2402L33.6426 17.334L33.2031 16.6992L31.1523 13.7695L30.3711 12.6465L29.7852 11.8164L29.0039 10.6934L28.3203 9.7168L27.5391 8.59375L26.8555 7.61719L26.123 6.54297L23.0469 6.49414H15.918Z" fill="white"/>
</svg>
