<svg height="80px" version="1.1" id="Layer_1" xmlns="http://www.w3.org/2000/svg" xmlns:xlink="http://www.w3.org/1999/xlink" x="0px" y="0px"
	  viewBox="0 0 2150 572" enable-background="new 0 0 2150 572" xml:space="preserve">
<path fill="transparent" opacity="1.000000" stroke="none"
	d="
M1414.000000,573.000000
	C942.709839,573.000000 471.919647,573.000000 1.064743,573.000000
	C1.064743,382.393982 1.064743,191.787964 1.064743,1.090962
	C717.666687,1.090962 1434.333374,1.090962 2150.965820,1.090962
	C2150.965820,191.747299 2150.965820,382.373657 2150.965820,573.000000
	C1905.454224,573.000000 1659.977173,573.000000 1414.000000,573.000000
M1864.562866,474.991394
	C1880.095215,484.097321 1895.974976,492.389893 1914.210693,494.560120
	C1927.361328,496.125183 1939.607422,494.424255 1948.303223,482.958374
	C1952.209106,477.808441 1956.006958,472.513824 1959.246338,466.932281
	C1974.399780,440.822266 1984.772339,412.645081 1993.898682,384.034363
	C2013.661865,322.076935 2027.947021,258.948730 2033.180420,193.965118
	C2035.268677,168.036118 2035.949707,142.135483 2030.956299,116.443253
	C2028.170410,102.109230 2024.006104,88.245354 2012.055054,78.444061
	C2002.670776,70.747803 1991.393311,67.341408 1979.757080,64.985069
	C1949.884888,58.935970 1919.786133,60.201485 1889.817139,63.395081
	C1868.232300,65.695229 1846.728760,69.153854 1825.366089,73.063026
	C1776.372070,82.028511 1728.540039,95.342209 1682.121948,113.496239
	C1660.303101,122.029564 1638.886719,131.480804 1619.741211,145.260605
	C1599.462402,159.856064 1595.062256,172.001770 1603.831909,195.547104
	C1609.063599,209.592972 1615.838013,223.308411 1623.679077,236.092758
	C1647.915161,275.607330 1678.800781,309.880829 1711.430054,342.488495
	C1736.269043,367.311005 1761.949097,391.318115 1787.806885,415.087585
	C1811.567139,436.929047 1836.397217,457.541931 1864.562866,474.991394
M743.781128,463.915863
	C703.237000,420.300476 662.692932,376.685120 622.053772,332.967529
	C663.581482,288.316528 704.768616,244.031662 746.652283,198.997925
	C744.967041,198.997925 744.365479,198.997925 743.763855,198.997925
	C716.600952,198.997772 689.437683,198.948227 662.275757,199.107651
	C660.449036,199.118378 658.155334,200.263016 656.879944,201.628510
	C629.495972,230.948196 602.226929,260.375275 574.934265,289.780182
	C569.136963,296.026215 563.333984,302.266968 556.712891,309.393402
	C556.712891,235.462845 556.712891,162.867462 556.712891,90.057495
	C532.783081,90.057495 509.207092,90.057495 485.397583,90.057495
	C485.397583,215.846680 485.397583,341.407471 485.397583,467.095184
	C509.271088,467.095184 532.961670,467.095184 556.336060,467.095184
	C556.336060,431.165405 556.336060,395.652496 556.336060,359.644135
	C557.235718,360.491760 557.834473,360.997986 558.367188,361.566101
	C590.251770,395.568298 622.145264,429.562103 653.978577,463.612213
	C656.142883,465.927277 658.289856,467.112152 661.655090,467.092285
	C688.817078,466.932098 715.980408,467.004395 743.143372,466.994171
	C744.036194,466.993835 744.929016,466.869965 746.036133,466.787781
	C745.641968,466.085754 745.526123,465.788788 745.332947,465.556061
	C745.015076,465.173035 744.647095,464.831512 743.781128,463.915863
M901.054871,295.592438
	C888.060059,346.094849 898.351135,391.358276 934.307617,429.100800
	C980.283752,477.360748 1049.631348,488.023315 1108.995361,457.790070
	C1162.026611,430.782013 1192.899048,370.784851 1183.766602,313.210999
	C1170.984863,232.631149 1092.908569,179.893723 1012.886169,195.785202
	C956.877808,206.907776 919.491455,240.421448 901.054871,295.592438
M312.490906,457.005859
	C327.943909,447.138397 340.285278,434.135254 351.225464,419.130005
	C351.225464,435.133636 351.225464,451.137268 351.225464,467.234497
	C375.218414,467.234497 398.634277,467.234497 422.247528,467.234497
	C422.247528,377.713562 422.247528,288.473450 422.247528,199.385712
	C398.417114,199.385712 374.856140,199.385712 351.161743,199.385712
	C351.161743,201.599213 351.161743,203.423233 351.161743,205.247253
	C351.161743,248.410675 351.480255,291.578003 350.951447,334.734955
	C350.808350,346.413147 349.514648,358.467896 346.289703,369.639893
	C338.508606,396.595520 316.167694,411.854919 286.611755,411.778229
	C263.484100,411.718231 245.324875,402.505371 234.314194,381.482910
	C228.672394,370.711121 226.064484,358.999390 225.901901,346.890411
	C225.662704,329.077057 225.817398,311.258057 225.843719,293.441528
	C225.875977,271.613098 225.955933,249.784775 226.000992,227.956375
	C226.020508,218.501678 226.004257,209.046921 226.004257,199.450165
	C202.007095,199.450165 178.459595,199.450165 154.681854,199.450165
	C154.605225,200.697220 154.494705,201.672058 154.492630,202.647141
	C154.376663,257.298615 153.987701,311.951721 154.295944,366.600861
	C154.425598,389.587463 159.971054,411.447662 173.201813,430.724365
	C203.130890,474.329956 265.510773,486.257996 312.490906,457.005859
M1229.162476,263.499939
	C1229.162476,331.447540 1229.162476,399.395142 1229.162476,467.583008
	C1253.223755,467.583008 1276.789185,467.583008 1300.837524,467.583008
	C1300.837524,465.547363 1300.837524,463.759186 1300.837524,461.970978
	C1300.837524,418.640015 1300.791382,375.308990 1300.887451,331.978241
	C1300.901855,325.502197 1301.295044,318.995728 1302.005615,312.557709
	C1305.672607,279.328400 1325.859131,259.171234 1359.027222,255.389221
	C1383.401733,252.609909 1406.034424,263.713837 1416.804077,283.809357
	C1422.477783,294.396271 1425.743286,305.818512 1425.880493,317.732361
	C1426.246826,349.556580 1426.049561,381.387360 1426.067017,413.215515
	C1426.077026,431.172241 1426.068970,449.128937 1426.068970,467.298401
	C1449.841797,467.298401 1473.275391,467.298401 1496.937866,467.298401
	C1497.023560,465.803162 1497.157715,464.508606 1497.163452,463.213470
	C1497.288818,434.890228 1497.385376,406.566864 1497.519165,378.243683
	C1497.596313,361.922180 1498.137207,345.590729 1497.726807,329.282410
	C1497.283569,311.679108 1497.822876,293.763733 1494.716553,276.565521
	C1482.480225,208.818375 1422.509277,186.547012 1373.975098,195.831970
	C1343.765991,201.611191 1321.512207,219.785645 1304.102783,244.449280
	C1303.261841,245.640671 1302.457397,246.857803 1301.635986,248.062943
	C1301.252686,247.884796 1300.869385,247.706650 1300.486084,247.528488
	C1300.486084,231.457657 1300.486084,215.386826 1300.486084,199.407806
	C1276.554565,199.407806 1253.108154,199.407806 1229.162476,199.407806
	C1229.162476,220.599228 1229.162476,241.549561 1229.162476,263.499939
M845.299133,467.514343
	C847.094910,467.514343 848.890747,467.514343 850.644226,467.514343
	C850.644226,341.323761 850.644226,215.618149 850.644226,90.055206
	C826.828857,90.055206 803.373474,90.055206 779.742676,90.055206
	C779.742676,215.855911 779.742676,341.428619 779.742676,467.514313
	C801.445190,467.514313 822.894714,467.514313 845.299133,467.514343
z"/>
<path fill="#FFD700" opacity="1.000000" stroke="none"
	d="
M1864.250244,474.803528
	C1836.397217,457.541931 1811.567139,436.929047 1787.806885,415.087585
	C1761.949097,391.318115 1736.269043,367.311005 1711.430054,342.488495
	C1678.800781,309.880829 1647.915161,275.607330 1623.679077,236.092758
	C1615.838013,223.308411 1609.063599,209.592972 1603.831909,195.547104
	C1595.062256,172.001770 1599.462402,159.856064 1619.741211,145.260605
	C1638.886719,131.480804 1660.303101,122.029564 1682.121948,113.496239
	C1728.540039,95.342209 1776.372070,82.028511 1825.366089,73.063026
	C1846.728760,69.153854 1868.232300,65.695229 1889.817139,63.395081
	C1919.786133,60.201485 1949.884888,58.935970 1979.757080,64.985069
	C1991.393311,67.341408 2002.670776,70.747803 2012.055054,78.444061
	C2024.006104,88.245354 2028.170410,102.109230 2030.956299,116.443253
	C2035.949707,142.135483 2035.268677,168.036118 2033.180420,193.965118
	C2027.947021,258.948730 2013.661865,322.076935 1993.898682,384.034363
	C1984.772339,412.645081 1974.399780,440.822266 1959.246338,466.932281
	C1956.006958,472.513824 1952.209106,477.808441 1948.303223,482.958374
	C1939.607422,494.424255 1927.361328,496.125183 1914.210693,494.560120
	C1895.974976,492.389893 1880.095215,484.097321 1864.250244,474.803528
z"/>
<path fill="#fff" opacity="1.000000" stroke="none"
	d="
M744.040649,464.194183
	C744.647095,464.831512 745.015076,465.173035 745.332947,465.556061
	C745.526123,465.788788 745.641968,466.085754 746.036133,466.787781
	C744.929016,466.869965 744.036194,466.993835 743.143372,466.994171
	C715.980408,467.004395 688.817078,466.932098 661.655090,467.092285
	C658.289856,467.112152 656.142883,465.927277 653.978577,463.612213
	C622.145264,429.562103 590.251770,395.568298 558.367188,361.566101
	C557.834473,360.997986 557.235718,360.491760 556.336060,359.644135
	C556.336060,395.652496 556.336060,431.165405 556.336060,467.095184
	C532.961670,467.095184 509.271088,467.095184 485.397583,467.095184
	C485.397583,341.407471 485.397583,215.846680 485.397583,90.057495
	C509.207092,90.057495 532.783081,90.057495 556.712891,90.057495
	C556.712891,162.867462 556.712891,235.462845 556.712891,309.393402
	C563.333984,302.266968 569.136963,296.026215 574.934265,289.780182
	C602.226929,260.375275 629.495972,230.948196 656.879944,201.628510
	C658.155334,200.263016 660.449036,199.118378 662.275757,199.107651
	C689.437683,198.948227 716.600952,198.997772 743.763855,198.997925
	C744.365479,198.997925 744.967041,198.997925 746.652283,198.997925
	C704.768616,244.031662 663.581482,288.316528 622.053772,332.967529
	C662.692932,376.685120 703.237000,420.300476 744.040649,464.194183
z"/>
<path fill="#fff" opacity="1.000000" stroke="none"
	d="
M901.140991,295.198181
	C919.491455,240.421448 956.877808,206.907776 1012.886169,195.785202
	C1092.908569,179.893723 1170.984863,232.631149 1183.766602,313.210999
	C1192.899048,370.784851 1162.026611,430.782013 1108.995361,457.790070
	C1049.631348,488.023315 980.283752,477.360748 934.307617,429.100800
	C898.351135,391.358276 888.060059,346.094849 901.140991,295.198181
M1061.633057,260.790283
	C1050.983032,257.353210 1040.041748,256.479248 1029.112183,258.460022
	C985.606873,266.344574 958.389526,307.706390 968.030334,350.907104
	C977.858765,394.948639 1023.982117,420.941040 1065.148804,405.637268
	C1095.624878,394.307770 1115.191162,365.324097 1114.831665,332.041168
	C1114.486084,300.033630 1093.767944,271.935425 1061.633057,260.790283
z"/>
<path fill="#fff" opacity="1.000000" stroke="none"
	d="
M312.178467,457.189392
	C265.510773,486.257996 203.130890,474.329956 173.201813,430.724365
	C159.971054,411.447662 154.425598,389.587463 154.295944,366.600861
	C153.987701,311.951721 154.376663,257.298615 154.492630,202.647141
	C154.494705,201.672058 154.605225,200.697220 154.681854,199.450165
	C178.459595,199.450165 202.007095,199.450165 226.004257,199.450165
	C226.004257,209.046921 226.020508,218.501678 226.000992,227.956375
	C225.955933,249.784775 225.875977,271.613098 225.843719,293.441528
	C225.817398,311.258057 225.662704,329.077057 225.901901,346.890411
	C226.064484,358.999390 228.672394,370.711121 234.314194,381.482910
	C245.324875,402.505371 263.484100,411.718231 286.611755,411.778229
	C316.167694,411.854919 338.508606,396.595520 346.289703,369.639893
	C349.514648,358.467896 350.808350,346.413147 350.951447,334.734955
	C351.480255,291.578003 351.161743,248.410675 351.161743,205.247253
	C351.161743,203.423233 351.161743,201.599213 351.161743,199.385712
	C374.856140,199.385712 398.417114,199.385712 422.247528,199.385712
	C422.247528,288.473450 422.247528,377.713562 422.247528,467.234497
	C398.634277,467.234497 375.218414,467.234497 351.225464,467.234497
	C351.225464,451.137268 351.225464,435.133636 351.225464,419.130005
	C340.285278,434.135254 327.943909,447.138397 312.178467,457.189392
z"/>
<path fill="#fff" opacity="1.000000" stroke="none"
	d="
M1229.162476,262.999908
	C1229.162476,241.549561 1229.162476,220.599228 1229.162476,199.407806
	C1253.108154,199.407806 1276.554565,199.407806 1300.486084,199.407806
	C1300.486084,215.386826 1300.486084,231.457657 1300.486084,247.528488
	C1300.869385,247.706650 1301.252686,247.884796 1301.635986,248.062943
	C1302.457397,246.857803 1303.261841,245.640671 1304.102783,244.449280
	C1321.512207,219.785645 1343.765991,201.611191 1373.975098,195.831970
	C1422.509277,186.547012 1482.480225,208.818375 1494.716553,276.565521
	C1497.822876,293.763733 1497.283569,311.679108 1497.726807,329.282410
	C1498.137207,345.590729 1497.596313,361.922180 1497.519165,378.243683
	C1497.385376,406.566864 1497.288818,434.890228 1497.163452,463.213470
	C1497.157715,464.508606 1497.023560,465.803162 1496.937866,467.298401
	C1473.275391,467.298401 1449.841797,467.298401 1426.068970,467.298401
	C1426.068970,449.128937 1426.077026,431.172241 1426.067017,413.215515
	C1426.049561,381.387360 1426.246826,349.556580 1425.880493,317.732361
	C1425.743286,305.818512 1422.477783,294.396271 1416.804077,283.809357
	C1406.034424,263.713837 1383.401733,252.609909 1359.027222,255.389221
	C1325.859131,259.171234 1305.672607,279.328400 1302.005615,312.557709
	C1301.295044,318.995728 1300.901855,325.502197 1300.887451,331.978241
	C1300.791382,375.308990 1300.837524,418.640015 1300.837524,461.970978
	C1300.837524,463.759186 1300.837524,465.547363 1300.837524,467.583008
	C1276.789185,467.583008 1253.223755,467.583008 1229.162476,467.583008
	C1229.162476,399.395142 1229.162476,331.447540 1229.162476,262.999908
z"/>
<path fill="#fff" opacity="1.000000" stroke="none"
	d="
M844.821716,467.514343
	C822.894714,467.514313 801.445190,467.514313 779.742676,467.514313
	C779.742676,341.428619 779.742676,215.855911 779.742676,90.055206
	C803.373474,90.055206 826.828857,90.055206 850.644226,90.055206
	C850.644226,215.618149 850.644226,341.323761 850.644226,467.514343
	C848.890747,467.514343 847.094910,467.514343 844.821716,467.514343
z"/>
<path fill="transparent" opacity="1.000000" stroke="none"
	d="
M1062.025391,260.873383
	C1093.767944,271.935425 1114.486084,300.033630 1114.831665,332.041168
	C1115.191162,365.324097 1095.624878,394.307770 1065.148804,405.637268
	C1023.982117,420.941040 977.858765,394.948639 968.030334,350.907104
	C958.389526,307.706390 985.606873,266.344574 1029.112183,258.460022
	C1040.041748,256.479248 1050.983032,257.353210 1062.025391,260.873383
z"/>
</svg>
