<svg xmlns="http://www.w3.org/2000/svg" width="533" height="186" fill="none" viewBox="0 0 533 186">
  <path fill="#FF6B00" d="M168.311 134.387a2 2 0 1 1 3.69-1.542 2 2 0 0 1-3.69 1.542Zm-12.231 18.847a3 3 0 1 1 5.538-2.31 3 3 0 0 1-5.538 2.31Zm-17.231 14.848a4 4 0 1 1 7.384-3.081 4 4 0 0 1-7.384 3.081Zm-20.231 8.848a5 5 0 1 1 9.227-3.852 5 5 0 0 1-9.227 3.852Zm-21.115 4.924a5.501 5.501 0 1 1 10.153-4.238 5.501 5.501 0 0 1-10.153 4.238Zm-22.115-1.076a6 6 0 1 1 11.075-4.623 6 6 0 0 1-11.075 4.623Zm-21.001-6a6 6 0 1 1 11.075-4.623 6 6 0 0 1-11.075 4.623Zm-18-12a6 6 0 1 1 11.075-4.623 6 6 0 0 1-11.075 4.623Zm-16-15a6 6 0 1 1 11.075-4.623 6 6 0 0 1-11.075 4.623Zm-11-19a6 6 0 1 1 11.075-4.623 6 6 0 0 1-11.075 4.623ZM2.618 106.93a5 5 0 1 1 9.229-3.854 5 5 0 0 1-9.229 3.854ZM.734 84.006a4.5 4.5 0 1 1 8.305-3.467 4.5 4.5 0 0 1-8.305 3.467ZM5.08 62.234a3 3 0 1 1 5.537-2.311 3 3 0 0 1-5.537 2.311Zm8.23-20.847a2 2 0 1 1 3.692-1.541 2 2 0 0 1-3.691 1.54Z"/>
  <path fill="#FF8025" d="M53.195 12.31a2.5 2.5 0 1 1 4.614-1.926 2.5 2.5 0 0 1-4.614 1.926ZM38.08 26.234a3 3 0 1 1 5.537-2.311 3 3 0 0 1-5.537 2.311ZM25.85 43.082A4 4 0 1 1 33.231 40a4 4 0 0 1-7.383 3.082ZM18.618 62.93a5 5 0 1 1 9.228-3.853 5 5 0 0 1-9.228 3.853Zm-2 20a5 5 0 1 1 9.228-3.853 5 5 0 0 1-9.228 3.853Zm2 20a5 5 0 1 1 9.229-3.853 5 5 0 0 1-9.229 3.853Zm5.885 18.924a5.5 5.5 0 1 1 10.153-4.238 5.5 5.5 0 0 1-10.153 4.238Zm11 16a5.5 5.5 0 1 1 10.153-4.238 5.5 5.5 0 0 1-10.153 4.238Zm15.115 13.076a5 5 0 1 1 9.229-3.853 5 5 0 0 1-9.229 3.853Zm17 9a5 5 0 1 1 9.229-3.852 5 5 0 0 1-9.229 3.852Zm19.116 4.076a4.5 4.5 0 1 1 8.304-3.467 4.5 4.5 0 0 1-8.304 3.467Zm20.115.076a4 4 0 1 1 7.384-3.081 4 4 0 0 1-7.384 3.081Zm19.231-5.848a3 3 0 1 1 5.538-2.31 3 3 0 0 1-5.538 2.31Zm18.231-10.847a2 2 0 1 1 3.69-1.542 2 2 0 0 1-3.69 1.542Z"/>
  <path fill="#FF8B38" d="M117.195 147.311a2.5 2.5 0 1 1 4.615-1.927 2.5 2.5 0 0 1-4.615 1.927Zm-18.115 2.923a3 3 0 1 1 5.537-2.311 3 3 0 0 1-5.537 2.311Zm-17.115-2.076a3.5 3.5 0 1 1 6.46-2.697 3.5 3.5 0 0 1-6.46 2.697Zm-16.115-7.076A4 4 0 1 1 73.23 138a4 4 0 0 1-7.382 3.082Zm-14.116-11.076a4.5 4.5 0 1 1 8.304-3.467 4.5 4.5 0 0 1-8.304 3.467ZM40.618 116.93a5 5 0 1 1 9.229-3.853 5 5 0 0 1-9.229 3.853Zm-6.54-15.614a5 5 0 1 1 9.228-3.853 5 5 0 0 1-9.228 3.853Zm-2.46-17.386a5 5 0 1 1 9.228-3.853 5 5 0 0 1-9.228 3.853Zm1-18a5 5 0 1 1 9.228-3.853 5 5 0 0 1-9.228 3.853Zm6.116-16.924a4.5 4.5 0 1 1 8.305-3.467 4.5 4.5 0 0 1-8.305 3.467ZM48.85 33.082A4 4 0 1 1 56.231 30a4 4 0 0 1-7.383 3.082Zm13.115-12.924a3.5 3.5 0 1 1 6.459-2.697 3.5 3.5 0 0 1-6.46 2.697Zm15.115-9.924a3 3 0 1 1 5.537-2.311 3 3 0 0 1-5.537 2.311Zm18.23-6.847a2 2 0 1 1 3.692-1.541 2 2 0 0 1-3.691 1.54Z"/>
  <path fill="#FF9E58" d="M134.311 12.387a2 2 0 1 1 3.691-1.542 2 2 0 0 1-3.691 1.542Zm-15.58-.459a2.5 2.5 0 1 1 4.614-1.926 2.5 2.5 0 0 1-4.614 1.926Zm-17.651 1.306a3 3 0 1 1 5.538-2.31 3 3 0 0 1-5.538 2.31Zm-14.964 6.388a3.5 3.5 0 1 1 6.46-2.697 3.5 3.5 0 0 1-6.46 2.697Zm-14.266 9.46A4 4 0 1 1 79.23 26a4 4 0 0 1-7.382 3.082Zm-12 12A4 4 0 1 1 67.23 38a4 4 0 0 1-7.382 3.082Zm-8 14A4 4 0 1 1 59.23 52a4 4 0 0 1-7.382 3.082Zm-5.116 14.924a4.5 4.5 0 1 1 8.305-3.467 4.5 4.5 0 0 1-8.305 3.467Zm.116 16.076A4 4 0 1 1 54.23 83a4 4 0 0 1-7.382 3.082Zm4 15A4 4 0 1 1 58.23 98a4 4 0 0 1-7.382 3.082Zm7.115 14.076a3.5 3.5 0 1 1 6.459-2.697 3.5 3.5 0 0 1-6.46 2.697Zm11.115 11.076a3 3 0 1 1 5.537-2.311 3 3 0 0 1-5.537 2.311Zm13.115 9.077a2.5 2.5 0 1 1 4.615-1.927 2.5 2.5 0 0 1-4.615 1.927Zm16.115 5.076a2 2 0 1 1 3.69-1.541 2 2 0 0 1-3.69 1.541Z"/>
  <path fill="#FF6B00" d="M92.18 104.772v-44.8h6.4v39.232h24.256v5.568H92.18Zm51.77.384c-3.626 0-6.826-.747-9.6-2.24-2.73-1.493-4.864-3.541-6.4-6.144-1.493-2.603-2.24-5.59-2.24-8.96 0-3.37.726-6.357 2.176-8.96 1.494-2.603 3.52-4.63 6.08-6.08 2.603-1.493 5.526-2.24 8.768-2.24 3.286 0 6.187.725 8.704 2.176 2.518 1.45 4.48 3.499 5.888 6.144 1.451 2.603 2.176 5.653 2.176 9.152 0 .256-.021.555-.064.896 0 .341-.021.661-.064.96H130.51v-4.416h25.664l-2.496 1.536c.043-2.176-.405-4.117-1.344-5.824-.938-1.707-2.24-3.03-3.904-3.968-1.621-.981-3.52-1.472-5.696-1.472-2.133 0-4.032.49-5.696 1.472-1.664.939-2.965 2.283-3.904 4.032-.938 1.707-1.408 3.67-1.408 5.888v1.024c0 2.261.512 4.288 1.536 6.08 1.067 1.75 2.539 3.115 4.416 4.096 1.878.981 4.032 1.472 6.464 1.472 2.006 0 3.819-.341 5.44-1.024a11.917 11.917 0 0 0 4.352-3.072l3.392 3.968c-1.536 1.792-3.456 3.157-5.76 4.096-2.261.939-4.8 1.408-7.616 1.408Zm44.202-.384v-7.168l-.32-1.344V84.036c0-2.603-.768-4.608-2.304-6.016-1.493-1.45-3.754-2.176-6.784-2.176-2.005 0-3.968.341-5.888 1.024-1.92.64-3.541 1.515-4.864 2.624l-2.56-4.608c1.75-1.408 3.84-2.475 6.272-3.2a25.978 25.978 0 0 1 7.744-1.152c4.651 0 8.235 1.13 10.752 3.392 2.518 2.261 3.776 5.717 3.776 10.368v20.48h-5.824Zm-11.136.384c-2.517 0-4.736-.427-6.656-1.28-1.877-.853-3.328-2.027-4.352-3.52-1.024-1.536-1.536-3.264-1.536-5.184 0-1.835.427-3.499 1.28-4.992.896-1.493 2.326-2.688 4.288-3.584 2.006-.896 4.694-1.344 8.064-1.344h10.752v4.416H178.36c-3.072 0-5.141.512-6.208 1.536-1.066 1.024-1.6 2.261-1.6 3.712 0 1.664.662 3.008 1.984 4.032 1.323.981 3.158 1.472 5.504 1.472 2.304 0 4.31-.512 6.016-1.536 1.75-1.024 3.008-2.517 3.776-4.48l1.216 4.224c-.81 2.005-2.24 3.605-4.288 4.8-2.048 1.152-4.629 1.728-7.744 1.728Zm42.346 0c-3.285 0-6.229-.725-8.832-2.176-2.56-1.451-4.586-3.477-6.08-6.08-1.493-2.603-2.24-5.632-2.24-9.088 0-3.456.747-6.464 2.24-9.024 1.494-2.603 3.52-4.63 6.08-6.08 2.603-1.45 5.547-2.176 8.832-2.176 2.859 0 5.44.64 7.744 1.92 2.304 1.28 4.139 3.2 5.504 5.76 1.408 2.56 2.112 5.76 2.112 9.6s-.682 7.04-2.048 9.6c-1.322 2.56-3.136 4.501-5.44 5.824-2.304 1.28-4.928 1.92-7.872 1.92Zm.512-5.376c2.134 0 4.054-.49 5.76-1.472 1.75-.981 3.115-2.368 4.096-4.16 1.024-1.835 1.536-3.947 1.536-6.336 0-2.432-.512-4.523-1.536-6.272-.981-1.792-2.346-3.179-4.096-4.16-1.706-.981-3.626-1.472-5.76-1.472-2.176 0-4.117.49-5.824 1.472-1.706.981-3.072 2.368-4.096 4.16-1.024 1.75-1.536 3.84-1.536 6.272 0 2.39.512 4.501 1.536 6.336 1.024 1.792 2.39 3.179 4.096 4.16 1.707.981 3.648 1.472 5.824 1.472Zm11.584 4.992V95.62l.384-7.872-.64-7.872V57.284h6.144v47.488h-5.888Z"/>
  <path fill="#FF9E58" d="M280.111 105.284c-3.414 0-6.678-.512-9.792-1.536-3.115-1.067-5.568-2.432-7.36-4.096l2.368-4.992c1.706 1.493 3.882 2.73 6.528 3.712a23.546 23.546 0 0 0 8.256 1.472c2.602 0 4.714-.299 6.336-.896 1.621-.597 2.816-1.408 3.584-2.432a5.988 5.988 0 0 0 1.152-3.584c0-1.536-.512-2.773-1.536-3.712-.982-.939-2.283-1.685-3.904-2.24-1.579-.597-3.328-1.11-5.248-1.536-1.92-.427-3.862-.917-5.824-1.472a28.372 28.372 0 0 1-5.312-2.24 11.046 11.046 0 0 1-3.84-3.584c-.982-1.536-1.472-3.499-1.472-5.888 0-2.304.597-4.416 1.792-6.336 1.237-1.963 3.114-3.52 5.632-4.672 2.56-1.195 5.802-1.792 9.728-1.792 2.602 0 5.184.341 7.744 1.024 2.56.683 4.778 1.664 6.656 2.944l-2.112 5.12c-1.92-1.28-3.947-2.197-6.08-2.752-2.134-.597-4.203-.896-6.208-.896-2.518 0-4.587.32-6.208.96-1.622.64-2.816 1.493-3.584 2.56-.726 1.067-1.088 2.261-1.088 3.584 0 1.579.49 2.837 1.472 3.776 1.024.939 2.325 1.685 3.904 2.24a61.76 61.76 0 0 0 5.312 1.536c1.92.427 3.84.917 5.76 1.472 1.962.555 3.733 1.28 5.312 2.176 1.621.896 2.922 2.09 3.904 3.584.981 1.493 1.472 3.413 1.472 5.76 0 2.261-.619 4.373-1.856 6.336-1.238 1.92-3.158 3.477-5.76 4.672-2.56 1.152-5.803 1.728-9.728 1.728Zm37.446-.128c-3.414 0-6.059-.917-7.936-2.752-1.878-1.835-2.816-4.459-2.816-7.872V63.428h6.144v30.848c0 1.835.448 3.243 1.344 4.224.938.981 2.261 1.472 3.968 1.472 1.92 0 3.52-.533 4.8-1.6l1.92 4.416c-.939.811-2.07 1.408-3.392 1.792-1.28.384-2.624.576-4.032.576Zm-16.512-29.248v-5.056h21.632v5.056h-21.632Zm31.364 28.864v-33.92h5.888v9.216l-.576-2.304c.938-2.347 2.517-4.139 4.736-5.376 2.218-1.237 4.949-1.856 8.192-1.856v5.952a4.66 4.66 0 0 0-.768-.064h-.64c-3.286 0-5.888.981-7.808 2.944s-2.88 4.8-2.88 8.512v16.896h-6.144Zm44.368 0v-7.168l-.32-1.344V84.036c0-2.603-.768-4.608-2.304-6.016-1.493-1.45-3.754-2.176-6.784-2.176-2.005 0-3.968.341-5.888 1.024-1.92.64-3.541 1.515-4.864 2.624l-2.56-4.608c1.75-1.408 3.84-2.475 6.272-3.2a25.978 25.978 0 0 1 7.744-1.152c4.651 0 8.235 1.13 10.752 3.392 2.518 2.261 3.776 5.717 3.776 10.368v20.48h-5.824Zm-11.136.384c-2.517 0-4.736-.427-6.656-1.28-1.877-.853-3.328-2.027-4.352-3.52-1.024-1.536-1.536-3.264-1.536-5.184 0-1.835.427-3.499 1.28-4.992.896-1.493 2.326-2.688 4.288-3.584 2.006-.896 4.694-1.344 8.064-1.344h10.752v4.416h-10.496c-3.072 0-5.141.512-6.208 1.536-1.066 1.024-1.6 2.261-1.6 3.712 0 1.664.662 3.008 1.984 4.032 1.323.981 3.158 1.472 5.504 1.472 2.304 0 4.31-.512 6.016-1.536 1.75-1.024 3.008-2.517 3.776-4.48l1.216 4.224c-.81 2.005-2.24 3.605-4.288 4.8-2.048 1.152-4.629 1.728-7.744 1.728Zm39.978 0c-3.413 0-6.058-.917-7.936-2.752-1.877-1.835-2.816-4.459-2.816-7.872V63.428h6.144v30.848c0 1.835.448 3.243 1.344 4.224.939.981 2.262 1.472 3.968 1.472 1.92 0 3.52-.533 4.8-1.6l1.92 4.416c-.938.811-2.069 1.408-3.392 1.792-1.28.384-2.624.576-4.032.576Zm-16.512-29.248v-5.056h21.632v5.056h-21.632Zm45.343 29.248c-3.626 0-6.826-.747-9.6-2.24-2.73-1.493-4.864-3.541-6.4-6.144-1.493-2.603-2.24-5.59-2.24-8.96 0-3.37.726-6.357 2.176-8.96 1.494-2.603 3.52-4.63 6.08-6.08 2.603-1.493 5.526-2.24 8.768-2.24 3.286 0 6.187.725 8.704 2.176 2.518 1.45 4.48 3.499 5.888 6.144 1.451 2.603 2.176 5.653 2.176 9.152 0 .256-.021.555-.064.896 0 .341-.021.661-.064.96H421.01v-4.416h25.664l-2.496 1.536c.043-2.176-.405-4.117-1.344-5.824-.938-1.707-2.24-3.03-3.904-3.968-1.621-.981-3.52-1.472-5.696-1.472-2.133 0-4.032.49-5.696 1.472-1.664.939-2.965 2.283-3.904 4.032-.938 1.707-1.408 3.67-1.408 5.888v1.024c0 2.261.512 4.288 1.536 6.08 1.067 1.75 2.539 3.115 4.416 4.096 1.878.981 4.032 1.472 6.464 1.472 2.006 0 3.819-.341 5.44-1.024a11.917 11.917 0 0 0 4.352-3.072l3.392 3.968c-1.536 1.792-3.456 3.157-5.76 4.096-2.261.939-4.8 1.408-7.616 1.408Zm38.932 12.416c-3.115 0-6.144-.448-9.088-1.344-2.902-.853-5.27-2.091-7.104-3.712l2.944-4.736c1.578 1.365 3.52 2.432 5.824 3.2a21.618 21.618 0 0 0 7.232 1.216c4.01 0 6.954-.939 8.832-2.816 1.877-1.877 2.816-4.736 2.816-8.576v-7.168l.64-6.72-.32-6.784v-9.28h5.824v29.312c0 5.973-1.494 10.368-4.48 13.184-2.987 2.816-7.36 4.224-13.12 4.224Zm-.768-14.208c-3.286 0-6.23-.683-8.832-2.048a16.434 16.434 0 0 1-6.144-5.824c-1.494-2.475-2.24-5.333-2.24-8.576 0-3.285.746-6.144 2.24-8.576a15.943 15.943 0 0 1 6.144-5.76c2.602-1.365 5.546-2.048 8.832-2.048 2.901 0 5.546.597 7.936 1.792 2.389 1.152 4.288 2.944 5.696 5.376 1.45 2.432 2.176 5.504 2.176 9.216 0 3.67-.726 6.72-2.176 9.152-1.408 2.432-3.307 4.267-5.696 5.504-2.39 1.195-5.035 1.792-7.936 1.792Zm.704-5.376c2.261 0 4.266-.47 6.016-1.408 1.749-.939 3.114-2.24 4.096-3.904 1.024-1.664 1.536-3.584 1.536-5.76 0-2.176-.512-4.096-1.536-5.76-.982-1.664-2.347-2.944-4.096-3.84-1.75-.939-3.755-1.408-6.016-1.408-2.262 0-4.288.47-6.08 1.408a10.308 10.308 0 0 0-4.16 3.84c-.982 1.664-1.472 3.584-1.472 5.76 0 2.176.49 4.096 1.472 5.76a10.77 10.77 0 0 0 4.16 3.904c1.792.939 3.818 1.408 6.08 1.408Zm30.875 19.584c-1.621 0-3.2-.277-4.736-.832-1.536-.512-2.858-1.28-3.968-2.304l2.624-4.608a9.23 9.23 0 0 0 2.816 1.856 8.395 8.395 0 0 0 3.264.64c1.494 0 2.731-.384 3.712-1.152.982-.768 1.899-2.133 2.752-4.096l2.112-4.672.64-.768 13.312-30.784h6.016l-16.448 37.312c-.981 2.389-2.09 4.267-3.328 5.632-1.194 1.365-2.517 2.325-3.968 2.88-1.45.597-3.05.896-4.8.896Zm8.064-11.712-15.488-35.008h6.4l13.184 30.208-4.096 4.8Z"/>
</svg>
