<svg width="100" height="100" viewBox="0 0 100 100" fill="none" xmlns="http://www.w3.org/2000/svg">
<path d="M13.8667 0.633331C9.93333 1.93333 6.76666 4.9 5.23333 8.76666C4.23333 11.3 4.3 16.4 5.43333 20.7667C6.4 24.3667 8.6 29.3 10.4333 31.8C11.6 33.4 11.6 33.4333 11.1333 34.7667C9.33333 39.8667 8.73333 48.7 9.8 54.3333C11.4333 63.0667 15.4 70.2333 22.1667 76.6333C26.8333 81 26.7667 80.9 27.0333 86.5C27.2 90.6333 27.3333 91.3667 28.1 93C29.2333 95.3667 31.6 97.7667 34 98.9333L35.8333 99.8333H49H62.1667L64.0333 98.9667C66.5667 97.7667 68.3333 96.1 69.7 93.6C70.8 91.5333 70.8333 91.4 70.9333 86.8667C71.0667 82.5 71.1333 82.1667 71.9667 80.8C72.4667 80.0333 73.8333 78.6 75 77.6C79.3 74 83.3 68.5667 85.7 63C86.9333 60.1333 88.3333 55.4 88.3333 54.0667C88.3333 53.7 88.9 52.6 89.5667 51.6333C93.7667 45.5 96.3333 36.4 95.3667 31.0333C94.0333 23.8667 87.5 19.0333 80.3333 20L78.5 20.2333L76.1333 18.0333C65.2333 7.83333 49.5 4.7 35.3667 9.9C33.6 10.5333 31.9333 11.1333 31.6667 11.2C31.2667 11.3333 31.0333 10.9667 30.7 9.7C29.7667 6.1 26.7 2.66666 22.8 0.966664C20.5 -0.0666693 16.4333 -0.200003 13.8667 0.633331ZM22.5333 4.1C27.1333 6.43333 29.1 11.2667 27.9667 17.5333C26.6 25.3 21.1333 34.3333 17.8 34.3333C15.2 34.3333 10.4667 27.5 8.46666 20.7667C7.26666 16.7667 7.16666 11.5667 8.2 9.3C9.5 6.5 12 4.26666 15 3.3C15.4667 3.13333 16.9667 3.06666 18.3333 3.13333C20.2333 3.2 21.2333 3.43333 22.5333 4.1ZM57.6 11.3C60.5667 12.0333 65.6667 13.9667 65.6667 14.3333C65.6667 14.4333 65.2667 14.8333 64.7667 15.2333C64.2333 15.6 62.9667 16.7 61.9333 17.6333C60 19.4 59.5667 20.4333 60.4 21.2667C61.1667 22.0333 62 21.6333 64.5667 19.3C68.6 15.6 68.3667 15.7 70.4333 17.1333C71.4 17.8 72.9333 19 73.8333 19.8L75.5 21.2667L73.4333 23.1667C70.7 25.6333 69.0667 28.8333 68.8 32.1667C68.6 34.3 69.2333 39.5 69.8667 41.1333C70.0333 41.6 69.8 41.6667 68 41.6667C66.1667 41.6667 65.8333 41.5667 64.9667 40.7C64.2667 39.9667 64 39.4 64 38.5C64 35.7667 62.5 34 59.5667 33.3333C58.6333 33.1 57.5 32.7 57.1 32.4667C56 31.7667 56.1 30.0333 57.4 27.6C58.5667 25.3667 58.4667 24.5667 56.9 24.4C56.1667 24.3 55.8333 24.5667 55.0667 25.8C53.2 28.7333 52.8667 32.1 54.2667 33.9667C54.9 34.8333 56.5667 35.6 59.2333 36.3333C60.2667 36.6 60.7 36.9 60.8 37.4333C61.5667 41.1667 61.8 41.8 62.8667 42.8333C64.2333 44.2333 66.1333 44.7667 68.8333 44.6L70.8667 44.4667L72.3 47.4C73.0667 49 73.6667 50.4333 73.6 50.5667C73.5667 50.7 72.4667 51.1333 71.1667 51.5C68.5 52.3 65.7 53.7333 64.6333 54.8667L63.9 55.6667L62.4333 54.3C59.5 51.6 59 51.5 49.1667 51.5H40.5L38.2333 52.6C36.5667 53.4333 35.6667 54.1333 34.7333 55.3667C33.8667 56.5333 33.3667 56.9333 33 56.8C32.7333 56.6667 31.3667 56.2667 29.9667 55.8667C27.1333 55.1333 26.3333 55.3333 26.3333 56.8667C26.3333 57.7667 26.6333 57.9333 30.3 59L32.7333 59.7L32.5333 60.9333C32.4333 61.6 32.3333 63 32.3333 64.0333V65.9L30.8667 66.0667C27.4 66.4667 24.7 69.3333 24.4 72.9L24.2333 74.7333L22.7667 73.2667C21.0667 71.6 18.5333 68.3 17 65.7C15.8333 63.6667 13.5333 58.3333 13.7667 58.1333C14.0333 57.8667 17.8 57.3333 19.4 57.3333C21.7 57.3333 22.7 56.0667 21.4333 54.8C20.9333 54.3333 20.4667 54.2667 17.8667 54.5C12.6 54.9667 12.9 55.0333 12.6 53.5C12.5 52.7667 12.2667 50.6333 12.1333 48.7333C11.8667 44.8333 11.6333 45.0667 15.1667 45.8333C16.4667 46.1 18.9333 46.3333 20.6667 46.3333C27.8333 46.3333 32.0333 43.9 35.6667 37.6667C36.4667 36.3 37.9667 33.9667 39 32.5C41.9 28.4667 42.4333 27.2667 42.6 24.1667C42.7667 20.9 42.1333 17.9333 40.5 14.4C39.8333 13.0333 39.4333 11.7667 39.6 11.6C39.7333 11.4667 41.1333 11.1333 42.6667 10.8667C46.6 10.1667 53.9 10.4 57.6 11.3ZM37.5 15C39 18 39.6667 20.5667 39.6667 23.4C39.6667 26.1333 39.3 26.9667 35.8333 32C34.5 33.9333 33.1 36.1333 32.7 36.9C31.2333 39.8333 28.7333 41.8667 25.4 42.8667C21.9667 43.9333 12.4 43.0333 12.5667 41.6667C12.6 41.4 12.8667 40 13.1667 38.5667C13.7667 35.6667 13.5333 35.8 16.3667 36.8667C17.8333 37.4333 17.9667 37.4333 19.5 36.8333C21.4667 36.1 23.2667 34.5 25.1667 31.8667C28 27.8333 30.3333 22.0333 30.9667 17.4C31.1333 16.0333 31.3333 14.9 31.4 14.8333C31.6 14.6 35.8333 12.6667 36.0667 12.6667C36.2 12.6667 36.8667 13.7333 37.5 15ZM86.9 24.0333C89.1333 25.1 90.5333 26.5667 91.7333 29C92.7667 31.1 92.7667 36 91.7 39.9667C89.8 47.2 85.1 54 82.0667 54C80.2333 54 77.2333 50.7 75.0667 46.3C71.0667 38.1667 70.6 31.1 73.8333 26.9C76.9 22.9 82.2 21.7333 86.9 24.0333ZM77.3333 54.5333C79.5333 56.8 82.1667 57.5333 84.4 56.5333C84.9333 56.3 84.9667 56.3667 84.4667 58.0667C83.0333 62.9333 79.2667 69.2667 75.6667 72.8333L73.6667 74.8V73.1667C73.6333 69.2333 70.4333 66 66.6 66H65.6667V63.4C65.6667 62 65.5667 60.3 65.4667 59.6667C65.3 58.6333 65.4333 58.3333 66.5333 57.2333C68.1 55.7 70.5 54.5333 73.5 53.9C74.8 53.6 75.9 53.3667 76 53.3667C76.1 53.3667 76.7 53.9 77.3333 54.5333ZM59.1667 55.5C61.6667 57.0333 62.6667 59.2 62.6667 63.0333V66H60.7H58.7333L58.6333 63.1667C58.5 60.6 58.4 60.2667 57.5667 59.4333L56.6667 58.5L50.1 58.4C42.6667 58.2667 41.5667 58.4 40.4667 59.5C39.7333 60.2333 39.6667 60.6 39.6667 63.1667V66H37.5H35.3333V63.6333C35.3333 60.3333 35.8667 58.6 37.3667 56.8667C39.4667 54.5 40.2 54.3667 49.5333 54.4333L57.5667 54.5L59.1667 55.5ZM55.6667 63.6667V66H49H42.3333V63.9C42.3333 62.7333 42.4333 61.6667 42.5667 61.5667C42.6667 61.4333 45.6667 61.3333 49.2333 61.3333H55.6667V63.6667ZM68.7 69.5333C72.1667 71.3 71.4 78.5333 67.4333 81.5333C65.6667 82.9 63.3333 83.4 59.5 83.2667L56.5333 83.1667L56.2667 82.1C55.9333 80.8 54.3333 79.4333 52.8333 79.1333C52.2 79.0333 50.0333 78.9667 48.0333 79.0667C43.7667 79.2 42.8333 79.6667 42 82L41.5 83.4L37.5 83.2667C32.9667 83.1 31.7 82.6667 29.5667 80.4667C27.9333 78.7667 27.2333 76.5667 27.4 73.6667C27.5333 71.2667 28.2333 69.9667 29.8333 69.3333C30.2 69.1667 38.8667 69.0333 49.1 69.0333C65.3667 69 67.8333 69.0667 68.7 69.5333ZM52.9667 82.3C53.5667 82.7 53.8333 85.7 53.3667 86.6333C53 87.3 52.7333 87.3333 49.2333 87.3333C46.7333 87.3333 45.3333 87.2 45.0667 86.9333C44.8333 86.7 44.6667 85.7 44.6667 84.6667C44.6667 83.6333 44.8333 82.6333 45.0667 82.4C45.5333 81.9333 52.2333 81.8333 52.9667 82.3ZM37.5 86.2333L41.5333 86.4333L42.0667 87.7C42.3667 88.4 43.1 89.2667 43.7333 89.6667C44.7333 90.3 45.2667 90.3333 49.4333 90.2667L54.0667 90.1667L55.2 88.9333C55.8333 88.2333 56.3333 87.4 56.3333 87.0667C56.3333 86.5 56.7 86.4 60.4333 86.2333C64.0667 86.1 65.4333 85.8333 67.8 84.8333C68.4 84.5667 68.4333 84.7 68.2667 87.4C68.0333 90.7333 67.2667 92.7 65.5333 94.4C63 96.8667 63.2333 96.8333 49.7333 96.9333C41.9667 97 37.2 96.9 36.3333 96.6667C34.5333 96.1667 32.3667 94.4667 31.2 92.5333C30.3 91.1333 30.1667 90.5667 30.0667 87.8L29.9333 84.7L31.7 85.3667C32.9667 85.8667 34.6333 86.1 37.5 86.2333Z" fill="url(#paint0_linear_34_125)"/>
<path d="M15.1333 8.00001C11.6333 9.73334 10.7 14.3333 13.2 17.3333C16.2333 20.9333 21.8333 19.9333 23.5333 15.5C25.4667 10.4333 20.0333 5.60001 15.1333 8.00001ZM20.0333 11.3C21.2667 12.5667 21.3333 14.2 20.2 15.4333C18.1 17.7 14.6667 16.2667 14.6667 13.1667C14.6667 11.8333 16.3333 10.3333 17.8333 10.3333C18.7333 10.3333 19.3 10.6 20.0333 11.3Z" fill="url(#paint1_linear_34_125)"/>
<path d="M81.5 27.1667C81.3333 27.2333 80.7667 27.3667 80.2667 27.4667C78.9 27.7667 77.1 29.5 76.4667 31.1667C74.5333 36.2333 79.9 41.0333 84.8333 38.6667C90.1667 36.1 88.9 28.1667 83 27.2333C82.3667 27.1333 81.7 27.1 81.5 27.1667ZM83.6333 30.4667C84.6333 31 85.3333 32.2333 85.3333 33.5333C85.3333 34.8333 83.6333 36.3333 82.1667 36.3333C79.7 36.3333 78.1 33.3 79.6 31.4667C80.7667 30 82.0667 29.6667 83.6333 30.4667Z" fill="url(#paint2_linear_34_125)"/>
<defs>
<linearGradient id="paint0_linear_34_125" x1="50.0502" y1="99.8333" x2="50.0502" y2="0.0890808" gradientUnits="userSpaceOnUse">
<stop stop-color="#FF8B38"/>
<stop offset="1" stop-color="#FF6B00"/>
</linearGradient>
<linearGradient id="paint1_linear_34_125" x1="17.8618" y1="19.5221" x2="17.8618" y2="7.3662" gradientUnits="userSpaceOnUse">
<stop stop-color="#FF8B38"/>
<stop offset="1" stop-color="#FF6B00"/>
</linearGradient>
<linearGradient id="paint2_linear_34_125" x1="82.1356" y1="39.2883" x2="82.1356" y2="27.132" gradientUnits="userSpaceOnUse">
<stop stop-color="#FF8B38"/>
<stop offset="1" stop-color="#FF6B00"/>
</linearGradient>
</defs>
</svg>
